<?xml version="1.0" standalone="no"?>
<!DOCTYPE svg PUBLIC "-//W3C//DTD SVG 1.1//EN" "http://www.w3.org/Graphics/SVG/1.1/DTD/svg11.dtd" >
<svg>
<metadata>
Created by FontForge 20090914 at Wed Sep 25 13:02:46 2013
 By www-data
Copyright (c) 1992-97 Hewlett-Packard. All rights reserved.
</metadata>
<defs>
<font id="CourierHP-Bold" horiz-adv-x="1229" >
  <font-face 
    font-family="Dark Courier"
    font-weight="700"
    font-stretch="normal"
    units-per-em="2048"
    panose-1="2 7 6 9 2 2 5 2 4 4"
    ascent="1638"
    descent="-410"
    x-height="925"
    cap-height="1171"
    bbox="-736.001 -623.001 1488 1768"
    underline-thickness="105"
    underline-position="-355"
    unicode-range="U+0020-U+FB01"
  />
<missing-glyph horiz-adv-x="669" 
d="M0 1274h569v-1274h-569v1274zM100 1174v-1074h369v1074h-369z" />
    <glyph glyph-name=".notdef" horiz-adv-x="669" 
d="M0 1274h569v-1274h-569v1274zM100 1174v-1074h369v1074h-369z" />
    <glyph glyph-name="space" unicode=" " 
 />
    <glyph glyph-name="exclam" unicode="!" 
d="M552 420l-37 751h260l-36 -751h-187zM645 340c59.333 0 109.666 -17.667 150.999 -53s62 -78.333 62 -129s-20.667 -93.5 -62 -128.5s-91.666 -52.5 -150.999 -52.5s-109.666 17.5 -150.999 52.5s-62 77.833 -62 128.5s20.667 93.667 62 129s91.666 53 150.999 53z" />
    <glyph glyph-name="quotedbl" unicode="&#x22;" 
d="M332 444l-41 727h321l-40 -727h-240zM658 444l-41 727h321l-40 -727h-240z" />
    <glyph glyph-name="numbersign" unicode="#" 
d="M575 1328l-26 -406h166l26 406h202l-26 -406h171v-220h-184l-12 -184h196v-220h-210l-25 -402h-202l25 402h-166l-25 -402h-202l25 402h-170v220h184l12 184h-196v220h209l26 406h202zM536 702l-12 -184h166l12 184h-166z" />
    <glyph glyph-name="dollar" unicode="$" 
d="M822 790l-0.00292969 105.001c-58 2.66699 -99.167 4.33398 -123.5 5.00098s-50.166 1 -77.499 1c-56 0 -99 -7.83301 -129 -23.5s-45 -38.167 -45 -67.5c0 -28 21.667 -54 65 -78c42.667 -24 113.334 -49.333 212.001 -76c116.667 -32 199.667 -72.667 249 -122
c48.667 -48.667 73 -115.667 73 -201c0 -91.333 -39 -166.333 -117 -225c-52.667 -39.333 -116.667 -65.666 -192 -78.999v-286h-216v286c-40.667 7.33301 -79.667 17.666 -117 30.999v0v-59h-191v0v355v0h191v0v-93c55.333 -3.33301 96.833 -5.5 124.5 -6.5
s61.167 -1.5 100.5 -1.5c72.667 0 124 6.83301 154 20.5s45 37.167 45 70.5c0 23.333 -15.667 44.666 -47 63.999c-31.333 18.667 -82.666 37.667 -153.999 57c-154.667 42.667 -259.667 88.667 -315 138s-83 122 -83 218c0 91.333 36.667 166.333 110 225
c51.333 41.333 112 67.333 182 78v198h216v-199c30 -6.66699 58.333 -15.334 85 -26.001v0v48h191v0v-357v0h-191z" />
    <glyph glyph-name="percent" unicode="%" 
d="M406 681c-85.333 0 -157.5 28.5 -216.5 85.5s-88.5 126.833 -88.5 209.5c0 81.333 29.5 150 88.5 206s131.167 84 216.5 84c86 0 158.5 -28 217.5 -84s88.5 -124.667 88.5 -206c0 -82.667 -29.5 -152.5 -88.5 -209.5s-131.5 -85.5 -217.5 -85.5v0zM406 1097
c-37.333 0 -69 -11.833 -95 -35.5s-39 -52.834 -39 -87.501s13 -64 39 -88s57.667 -36 95 -36c38 0 70 12 96 36s39 53.333 39 88s-13 63.834 -39 87.501s-58 35.5 -96 35.5v0zM128 476l912 396l75 -157l-912 -396zM805 -75c-85.333 0 -157.5 28.5 -216.5 85.5
s-88.5 126.833 -88.5 209.5c0 81.333 29.5 150 88.5 206s131.167 84 216.5 84c86 0 158.5 -28 217.5 -84s88.5 -124.667 88.5 -206c0 -82.667 -29.5 -152.5 -88.5 -209.5s-131.5 -85.5 -217.5 -85.5v0zM805 341c-37.333 0 -69 -11.833 -95 -35.5s-39 -52.834 -39 -87.501
s13 -64 39 -88s57.667 -36 95 -36c38 0 70 12 96 36s39 53.333 39 88s-13 63.834 -39 87.501s-58 35.5 -96 35.5v0z" />
    <glyph glyph-name="ampersand" unicode="&#x26;" 
d="M252 839c0 78 28.835 141.833 86.502 191.5s131.834 74.5 222.501 74.5c54 0 104.667 -10.167 152 -30.5s99.666 -54.166 156.999 -101.499l-126 -158c-36 26.667 -67.833 45.5 -95.5 56.5s-56.834 16.5 -87.501 16.5c-26.667 0 -48.334 -6.33301 -65.001 -19
s-25 -28.667 -25 -48c0 -22 9.16699 -50.833 27.5 -86.5s48.833 -84.167 91.5 -145.5l112 -160l12 26c33.333 71.333 51.666 123.666 54.999 156.999h55h134h134v-189h-179l-18 -56c-16 -49.333 -34.667 -94.333 -56 -135l30 -43h261v-189h-192h-192v0l-45 66
c-18.667 -14 -39 -27 -61 -39c-60 -33.333 -117.667 -50 -173 -50c-98.667 0 -179.5 31.333 -242.5 94s-94.5 143.334 -94.5 242.001c0 80.667 27.667 154.667 83 222c30.667 37.333 66.334 68 107.001 92l-33 64c-23.333 51.333 -35 100.666 -35 147.999zM479.002 196
c20.667 0 44 8.33203 70 24.999l30 22l-151 219c-10.667 -7.33301 -21 -16.333 -31 -27c-32 -33.333 -48 -69.666 -48 -108.999c0 -38 12.333 -69.333 37 -94c24 -24 55 -36 93 -36z" />
    <glyph glyph-name="quotesingle" unicode="'" 
d="M517 444l-41 727h321l-40 -727h-240z" />
    <glyph glyph-name="parenleft" unicode="(" 
d="M539 563c0 130.667 18 252.331 54 364.998s98.333 241 187 385h217c-87.333 -142.667 -148.833 -270.167 -184.5 -382.5s-53.5 -234.833 -53.5 -367.5c0 -133.333 17.833 -256.333 53.5 -369s97.167 -240 184.5 -382h-217c-88.667 144.667 -151 273.334 -187 386.001
s-54 234.334 -54 365.001z" />
    <glyph glyph-name="parenright" unicode=")" 
d="M689 562c0 -130.667 -18 -252.331 -54 -364.998s-98.333 -241 -187 -385h-217c87.333 142.667 148.833 270.167 184.5 382.5s53.5 234.833 53.5 367.5c0 133.333 -17.833 256.333 -53.5 369s-97.167 240 -184.5 382h217c88.667 -144.667 151 -273.334 187 -386.001
s54 -234.334 54 -365.001z" />
    <glyph glyph-name="asterisk" unicode="*" 
d="M720 1163l-22 -286v0l264 109l69 -214l-279 -68v0l186 -216l-182 -133l-150 245v0l-149 -244l-182 132l187 218v0l-279 67l69 214l265 -109v0l-22 285h225z" />
    <glyph glyph-name="plus" unicode="+" 
d="M504 345h-333v220h333v333h220v-333h333v-220h-333v-333h-220v333z" />
    <glyph glyph-name="comma" unicode="," 
d="M314 -235l176 625h298l-251 -625h-223z" />
    <glyph glyph-name="hyphen" unicode="-" 
d="M285 610h658v-220h-658v220z" />
    <glyph glyph-name="period" unicode="." 
d="M644 368c62 0 114.5 -19 157.5 -57s64.5 -84.333 64.5 -139s-21.5 -100.834 -64.5 -138.501s-95.5 -56.5 -157.5 -56.5s-114.5 18.833 -157.5 56.5s-64.5 83.834 -64.5 138.501s21.5 101 64.5 139s95.5 57 157.5 57z" />
    <glyph glyph-name="slash" unicode="/" 
d="M1078 1347l-742 -1630l-186 84l741 1628z" />
    <glyph glyph-name="zero" unicode="0" 
d="M614 -23c-137.333 0 -240.167 53.667 -308.5 161s-102.833 268.333 -103.5 483c0 202 35.833 357.833 107.5 467.5s173.167 164.5 304.5 164.5c135.333 0 238 -53.667 308 -161s105 -264.333 105 -471c0.666992 -214.667 -33.5 -375.667 -102.5 -483
s-172.5 -161 -310.5 -161v0zM613.999 194c64.667 0 112.999 35.333 144.999 106s48 177 48 319c0 139.333 -16 243.666 -48 312.999s-80.333 104 -145 104c-64 0 -112 -34.667 -144 -104s-48 -173.666 -48 -312.999c0 -138.667 16.333 -244.167 49 -316.5
s80.334 -108.5 143.001 -108.5v0z" />
    <glyph glyph-name="one" unicode="1" 
d="M566 189v805v0l-351 -61v220l571 100v0v0v-1064h376v-189h-486h-486v189h376z" />
    <glyph glyph-name="two" unicode="2" 
d="M993 861c0 -61.333 -15 -121.001 -45 -179.001s-75 -114.333 -135 -169l-322 -293v0h319v136h183v-178v-178v0h-846v88v88l532 484c31.333 28.667 55 59.334 71 92.001c15.333 32 23 66.333 23 103c0 50.667 -19 93.5 -57 128.5s-84.667 52.5 -140 52.5
c-70 0 -123.333 -13.333 -160 -40s-50 -62 -40 -106l4 -39v0h-191v219v0c48 64 104 110.5 168 139.5s142 43.5 234 43.5c118 0 214.667 -36.667 290 -110c74.667 -73.333 112 -167.333 112 -282z" />
    <glyph glyph-name="three" unicode="3" 
d="M708 893c0 40 -15.1689 73.834 -45.502 101.501s-67.5 41.5 -111.5 41.5c-39.333 0 -84 -9 -134 -27s-97 -42 -141 -72l-111 163c56 45.333 121 82.166 195 110.499s141.667 42.5 203 42.5c102 0 188.333 -32.5 259 -97.5s106 -144.5 106 -238.5
c0 -96 -33.333 -177 -100 -243l-17 -16v0c19.333 -11.333 37 -24.333 53 -39c82 -72 123 -160 123 -264c0 -106 -41 -195.5 -123 -268.5s-182.333 -109.5 -301 -109.5c-52 0 -122.5 11.333 -211.5 34s-159.5 47.334 -211.5 74.001l87 185
c30.667 -18 80.334 -35.167 149.001 -51.5s126.334 -24.5 173.001 -24.5c61.333 0 113 16.5 155 49.5s63 73.167 63 120.5c0 58 -22 100.667 -66 128l-28 14c-23.333 11.333 -56.333 19.166 -99 23.499s-83 3.83301 -121 -1.5v220c40 -1.33301 80 2.5 120 11.5
s68.667 20.5 86 34.5c32.667 26.667 49 59.667 49 99z" />
    <glyph glyph-name="four" unicode="4" 
d="M607 364h-481v99v99l459 692h121h121v-670v0h164v-220h-164v0v-175h191v-189h-313h-313v189h215v175v0zM607 584v368v0v0l-244 -368v0h244z" />
    <glyph glyph-name="five" unicode="5" 
d="M1037 396c0 -128.667 -39.334 -230.667 -118.001 -306s-185.334 -113 -320.001 -113c-61.333 0 -134.166 10.333 -218.499 31s-157.166 46 -218.499 76l85 180c33.333 -17.333 84.333 -33.333 153 -48s126.334 -22 173.001 -22c78 0 138.167 17.167 180.5 51.5
s63.5 83.5 63.5 147.5c0 60.667 -22 108.667 -66 144s-103.333 53 -178 53c-35.333 0 -74 -6.83301 -116 -20.5s-75.667 -30.5 -101 -50.5l-116 59v652v0h745v-220h-528v0v-226v0c50.667 15.333 101 23 151 23c131.333 0 235.666 -37 312.999 -111s116 -174 116 -300z" />
    <glyph glyph-name="six" unicode="6" 
d="M1021 1240l-12.999 -216c-57.333 8.66699 -110.333 12.667 -159 12c-134.667 0.666992 -237.334 -30.333 -308.001 -93c-53.333 -46.667 -92 -116 -116 -208v0c60 30 125.333 45 196 45c107.333 0 198.166 -38.5 272.499 -115.5s111.5 -171.167 111.5 -282.5
c0 -113.333 -37.167 -209.166 -111.5 -287.499s-165.166 -117.5 -272.499 -117.5c-122 0 -221.667 47.667 -299 143s-116 217.666 -116 366.999c0 273.333 70.667 475.333 212 606c112.667 104.667 264 157 454 157c47.333 0 97 -3.33301 149 -10zM623.001 194
c45.333 0 83.667 18.001 115 54.001s47 80 47 132c0 51.333 -16.333 94.666 -49 129.999s-72.667 53 -120 53c-84 0 -155 -37.333 -213 -112l-3 -4v0c6 -71.333 26 -129.333 60 -174c40 -52.667 94.333 -79 163 -79z" />
    <glyph glyph-name="seven" unicode="7" 
d="M398 0l373 1010v0h-439v-154h-189v187v187v0h850v-85v-86l-359 -1059h-236z" />
    <glyph glyph-name="eight" unicode="8" 
d="M858 631l53.999 -40c81.333 -68.667 122 -152.667 122 -252c0 -101.333 -40.667 -187 -122 -257s-180.666 -105 -297.999 -105s-216.5 35 -297.5 105s-121.5 155.667 -121.5 257c0 99.333 40.667 183.333 122 252c16.667 14.667 34.667 27.667 54 39v0l-40 31
c-76.667 67.333 -115 150 -115 248c0 96 38.5 177.333 115.5 244s171.167 100 282.5 100c112 0 206.5 -33.333 283.5 -100s115.5 -148 115.5 -244c0 -98 -38.667 -180.667 -116 -248c-12.667 -11.333 -25.667 -21.333 -39 -30zM613.999 733c50 0 92.333 14.832 127 44.499
s52 65.834 52 108.501c0 42 -17.333 77.5 -52 106.5s-77 43.5 -127 43.5s-92.167 -14.5 -126.5 -43.5s-51.5 -64.5 -51.5 -106.5c0 -42.667 17.333 -79 52 -109c34 -29.333 76 -44 126 -44zM613.999 520.999c-56 0 -103.167 -15.667 -141.5 -47
s-57.5 -69.666 -57.5 -114.999c0 -46 19.167 -85 57.5 -117s85.5 -48 141.5 -48s103.333 16 142 48s58 71 58 117c0 45.333 -19.333 83.666 -58 114.999s-86 47 -142 47z" />
    <glyph glyph-name="nine" unicode="9" 
d="M207 -23l13 216c46.667 -5.33301 91 -8 133 -8c148 0 259.667 33.667 335 101c54.667 48 93.334 118.667 116.001 212v0c-60 -30 -125.667 -45 -197 -45c-107.333 0 -198.166 38.333 -272.499 115s-111.5 170.667 -111.5 282c0 112.667 37.167 208 111.5 286
s165.166 117 272.499 117c122 0 221.833 -48 299.5 -144s116.5 -219.667 116.5 -371c0 -272 -71 -474 -213 -606c-116 -108 -272.333 -162.333 -469 -163c-42.667 0 -87.334 2.66699 -134.001 8zM605 1036c-45.333 0 -83.667 -17.832 -115 -53.499s-47 -79.167 -47 -130.5
c0 -50.667 16.5 -93.667 49.5 -129s73.167 -53 120.5 -53c84 0 155 37 213 111l2 3c-5.33301 69.333 -25 126.666 -59 171.999c-40 53.333 -94.667 80 -164 80z" />
    <glyph glyph-name="colon" unicode=":" 
d="M644 368c62 0 114.5 -19 157.5 -57s64.5 -84.333 64.5 -139s-21.5 -100.834 -64.5 -138.501s-95.5 -56.5 -157.5 -56.5s-114.5 18.833 -157.5 56.5s-64.5 83.834 -64.5 138.501s21.5 101 64.5 139s95.5 57 157.5 57zM644 846c62 0 114.5 -19 157.5 -57
s64.5 -84.333 64.5 -139s-21.5 -100.834 -64.5 -138.501s-95.5 -56.5 -157.5 -56.5s-114.5 18.833 -157.5 56.5s-64.5 83.834 -64.5 138.501s21.5 101 64.5 139s95.5 57 157.5 57z" />
    <glyph glyph-name="semicolon" unicode=";" 
d="M314 -235l176 626h298l-251 -626h-223zM588 846c62 0 114.5 -19 157.5 -57s64.5 -84.333 64.5 -139s-21.5 -100.834 -64.5 -138.501s-95.5 -56.5 -157.5 -56.5s-114.5 18.833 -157.5 56.5s-64.5 83.834 -64.5 138.501s21.5 101 64.5 139s95.5 57 157.5 57z" />
    <glyph glyph-name="less" unicode="&#x3c;" 
d="M148 316v130v130l884 337v-212l-669 -255v0l669 -255v-212z" />
    <glyph glyph-name="equal" unicode="=" 
d="M176 358h876v-220h-876v220zM176 727h876v-220h-876v220z" />
    <glyph glyph-name="greater" unicode="&#x3e;" 
d="M1103 316l-883 -337v212l668 255v0l-668 255v212l883 -337v-130v-130z" />
    <glyph glyph-name="question" unicode="?" 
d="M555 977c-28.667 0 -52.666 -1.33301 -71.999 -4s-43.333 -8.33398 -72 -17.001v-128v0h-191v290v0c41.333 24.667 93 43.5 155 56.5s129.667 19.5 203 19.5c123.333 0 224.166 -29.5 302.499 -88.5s117.5 -134.833 117.5 -227.5c0 -105.333 -44.333 -187 -133 -245
c-50 -33.333 -117.667 -60.333 -203 -81v0v-135h-216v249v0c108.667 12 191.167 36 247.5 72s84.5 82.667 84.5 140c0 32.667 -19 57.334 -57 74.001s-93.333 25 -166 25zM554.001 336c60 0 110.833 -17.333 152.5 -52s62.5 -77.334 62.5 -128.001
c0 -50 -20.833 -92.333 -62.5 -127s-92.5 -52 -152.5 -52s-110.833 17.333 -152.5 52s-62.5 77 -62.5 127c0 50.667 20.833 93.334 62.5 128.001s92.5 52 152.5 52z" />
    <glyph glyph-name="at" unicode="@" 
d="M862 421c42 0 77.4971 26.5 106.497 79.5s43.5 117.833 43.5 194.5c0 96.667 -36 174.667 -108 234s-167 89 -285 89s-213.167 -40.833 -285.5 -122.5s-108.5 -189.167 -108.5 -322.5c0 -142.667 33.833 -252.5 101.5 -329.5s163.834 -115.5 288.501 -115.5
c60 0 130.833 15.167 212.5 45.5s151.5 67.5 209.5 111.5l62 -150c-59.333 -47.333 -135.166 -87.5 -227.499 -120.5s-175.5 -49.5 -249.5 -49.5c-179.333 0 -321.5 54.667 -426.5 164s-157.5 257.333 -157.5 444c0 182.667 53 329.667 159 441s245.333 167 418 167
s311.834 -44.5 417.501 -133.5s158.5 -206.5 158.5 -352.5c0 -125.333 -29.333 -229.5 -88 -312.5s-132 -124.5 -220 -124.5c-85.333 0 -151 24.667 -197 74l1 -1c-49.333 -48 -102 -72.333 -158 -73c-55.333 0 -99.833 19.833 -133.5 59.5s-50.167 92.5 -49.5 158.5
c-0.666992 113.333 30.333 212.5 93 297.5s135.334 127.5 218.001 127.5c33.333 0.666992 60.666 -9.33301 81.999 -30v0l2 7v0h163l-94 -366c-6.66699 -25.333 -5 -46.833 5 -64.5s25.667 -26.5 47 -26.5zM644.997 728c-35.333 0 -66.335 -24.8311 -93.002 -74.498
s-40 -107.834 -40 -174.501c0.666992 -14.667 4.5 -26.334 11.5 -35.001s16.833 -13 29.5 -13c22.667 0 41.334 11.167 56.001 33.5s29 60.833 43 115.5c11.333 43.333 16.333 78.833 15 106.5s-8.66602 41.5 -21.999 41.5z" />
    <glyph glyph-name="A" unicode="A" 
d="M134 189l315 781h-261v189h259h259v0l392 -970h123v-189h-258h-258v189h169l-49 125v0h-421v0l-49 -125h188v-189h-268h-269v189h128zM612 852l-125 -321v0h252v0l-127 321v0v0z" />
    <glyph glyph-name="B" unicode="B" 
d="M244 189l0.000976562 792.999h-171v189h281v0h303c121.333 0 220.666 -29.833 297.999 -89.5s116 -136.167 116 -229.5c0 -90 -34.667 -164.667 -104 -224v0c18.667 -9.33301 35.667 -20.333 51 -33c77.333 -61.333 116 -148.666 116 -261.999
c0 -98 -39.5 -178 -118.5 -240s-180.5 -93 -304.5 -93h-357v0h-281v189h171zM464.001 953.999v-238.001v0h193c66 0 114.833 9.83301 146.5 29.5s47.5 49.834 47.5 90.501c0 40 -15.833 69.667 -47.5 89s-80.5 29 -146.5 29h-193v0zM464.001 498.998l0.000976562 -282v0h247
c69.333 0 120.5 11.667 153.5 35s49.5 59 49.5 107c0 47.333 -18.333 82.5 -55 105.5s-93.334 34.5 -170.001 34.5h-225v0z" />
    <glyph glyph-name="C" unicode="C" 
d="M1160 161c-89.333 -66.667 -169.833 -114.002 -241.5 -142.002s-149.167 -42 -232.5 -42c-169.333 0 -308.166 57.333 -416.499 172s-162.5 262 -162.5 442c0 176.667 54.167 321.334 162.5 434.001s247.166 169 416.499 169c108 -0.666992 202.333 -25.667 283 -75v0v75
h191v0v-491v0h-191v0v199c-50 28.667 -95.167 48.334 -135.5 59.001s-89.5 16 -147.5 16c-105.333 0 -191.5 -36.167 -258.5 -108.5s-100.5 -165.5 -100.5 -279.5c0 -116 33.5 -210.833 100.5 -284.5s153.167 -110.5 258.5 -110.5c57.333 0 111.833 8.83301 163.5 26.5
s114.167 49.167 187.5 94.5z" />
    <glyph glyph-name="D" unicode="D" 
d="M220 189l0.000976562 792.999h-171v189h281v0h306c168.667 0 296.667 -49.333 384 -148s131 -242.667 131 -432c0 -193.333 -45.833 -340.166 -137.5 -440.499s-225.834 -150.5 -402.501 -150.5h-281v0h-281v189h171zM440.001 216.999l171 -0.000976562
c110.667 0 191.667 29.833 243 89.5s77 153.834 77 282.501c0 126.667 -23.667 219.167 -71 277.5s-122 87.5 -224 87.5h-196v0v-737z" />
    <glyph glyph-name="E" unicode="E" 
d="M99 0v189h171v793h-171v189h391v0h637v0v-229v-230h-191v242h-446v0v-249v0h173v145h189v-253v-254h-189v145h-173v0v-271v0h446v242h191v-229v-230v0h-637v0h-391z" />
    <glyph glyph-name="F" unicode="F" 
d="M297 189v793h-171v189h391v0h623v0v-229v-230h-191v242h-432v0v-249v0h172v145h189v-253v-254h-189v145h-172v0v-299h256v-189h-323h-324v189h171z" />
    <glyph glyph-name="G" unicode="G" 
d="M633 -23c-161.333 0 -293.333 57.332 -396 171.999s-154 262 -154 442c0 176.667 52.5 321.334 157.5 434.001s239.5 169 403.5 169c109.333 0.666992 205.333 -25 288 -77v0v77h191v0v-480v0h-191v0v199c-55.333 25.333 -103 42.333 -143 51s-89 13 -147 13
c-99.333 0 -180.666 -36.167 -243.999 -108.5s-95 -165.5 -95 -279.5c0 -126.667 30.5 -224.167 91.5 -292.5s147.833 -102.5 260.5 -102.5h-1c85.333 0 161.666 10.333 228.999 31v0v160h-299v189h306h307v-189h-94v-298v0c-129.333 -73.333 -286 -110 -470 -110z" />
    <glyph glyph-name="H" unicode="H" 
d="M219 189v793h-171v189h255h256v-189h-120v-277v0h358v0v277h-120v189h255h256v-189h-171v-793h171v-189h-255h-256v189h120v299v0h-358v0v-299h120v-189h-255h-256v189h171z" />
    <glyph glyph-name="I" unicode="I" 
d="M539 189v793h-359v189h469h469v-189h-359v-793h359v-189h-469h-469v189h359z" />
    <glyph glyph-name="J" unicode="J" 
d="M729 982l-376.002 -0.000976562v189h426h426v-189h-256v-622c0 -123.333 -31.833 -218 -95.5 -284s-155.5 -99 -275.5 -99c-75.333 0 -159.166 13.833 -251.499 41.5s-165.166 60.834 -218.499 99.501v0v490h191v0v-206c0 -44 7.66699 -80.5 23 -109.5
s38.333 -50.5 69 -64.5l26 -12c38 -14.667 83 -22 135 -22c62 0 107 13.167 135 39.5s42 68.5 42 126.5v622z" />
    <glyph glyph-name="K" unicode="K" 
d="M233 189v793h-171v189h265h265v-189h-139v-368v0l309 368h-77v189h242h242v-189h-140l-349 -408v0l84 -102c62 -79.333 126 -173.666 192 -282.999h231v-189h-181h-182v0c-66 127.333 -130 231.666 -192 312.999l-87 105v0l-92 -108v0v-121h166v-189h-278h-279v189h171z
" />
    <glyph glyph-name="L" unicode="L" 
d="M99 0v189h205v793h-205v189h340h341v-189h-256v-765v0h427v363h191v-290v-290v0h-618v0h-425z" />
    <glyph glyph-name="M" unicode="M" 
d="M358 189h200v-189h-264h-265v189h111l33 793h-171v189h223h224v0l185 -523v0v0l181 523v0h221h222v-189h-171l32 -793h119v-189h-269h-270v189h201l-24 579v0l-177 -511h-70h-70l-178 502v0z" />
    <glyph glyph-name="N" unicode="N" 
d="M415 189h200v-189h-294h-294v189h171v793h-171v189h195h196v0l440 -751v0v0v562h-205v189h296h297v-189h-171v-982h-108h-108l-444 758v0v0v-569z" />
    <glyph glyph-name="O" unicode="O" 
d="M614 -23c-158.667 0 -288.667 57.333 -390 172s-152 262 -152 442c0 176.667 50.667 321.334 152 434.001s231.333 169 390 169c159.333 0 289.5 -56.333 390.5 -169s151.5 -257.334 151.5 -434.001c0 -180 -50.5 -327.333 -151.5 -442s-231.167 -172 -390.5 -172v0z
M614 194c94.667 0 172 36.833 232 110.5s90 168.5 90 284.5c0 114 -30 207.167 -90 279.5s-137.333 108.5 -232 108.5s-172 -36.167 -232 -108.5s-90 -165.5 -90 -279.5c0 -116 30 -210.833 90 -284.5s137.333 -110.5 232 -110.5v0z" />
    <glyph glyph-name="P" unicode="P" 
d="M288 189v793.001h-171v189h281v0h264c147.333 0 259.333 -33.333 336 -100s115 -164.334 115 -293.001c0 -130.667 -38.333 -230 -115 -298s-188.667 -102 -336 -102h-154v0v-189h255v-189h-323h-323v189h171zM508 595.001h154c81.333 0 140.166 14.167 176.499 42.5
s54.5 74.5 54.5 138.5c0 62.667 -18.167 108 -54.5 136s-95.166 42 -176.499 42h-154v0v-359z" />
    <glyph glyph-name="Q" unicode="Q" 
d="M1222 -129c-41.333 -54.667 -84.666 -95.665 -129.999 -122.998s-93.333 -41 -144 -41c-21.333 0 -46 4 -74 12s-66 22 -114 42c-18 7.33301 -36.333 13.666 -55 18.999s-32.334 8 -41.001 8c-40.667 0 -82.5 -7.33301 -125.5 -22s-87.167 -37 -132.5 -67l-62 149
c61.333 24 113.333 57 156 99l32 36v0c-122 16.667 -224.333 72 -307 166c-101.333 114.667 -152 262 -152 442c0 176.667 50.667 321.334 152 434.001s231.333 169 390 169c159.333 0 289.5 -56.333 390.5 -169s151.5 -257.334 151.5 -434.001
c0 -196.667 -47 -348.334 -141 -455.001c-58 -66 -131.667 -111.333 -221 -136v0c28.667 -16 61 -37 97 -63c10.667 -8 23 -14.667 37 -20s26.333 -8 37 -8c21.333 0 43.333 8.33301 66 25s46.667 41.667 72 75zM615 977.002c-94.667 0 -172 -35.667 -232 -107
s-90 -163.333 -90 -276c0 -119.333 29 -214.166 87 -284.499s136.333 -105.5 235 -105.5s177 35.167 235 105.5s87 165.166 87 284.499c0 112.667 -30 204.667 -90 276s-137.333 107 -232 107v0z" />
    <glyph glyph-name="R" unicode="R" 
d="M260 189l0.000976562 793.001h-171v189h281v0h299c122 0 217.333 -30.167 286 -90.5s103 -144.166 103 -251.499c0 -125.333 -44 -219.333 -132 -282c-32.667 -22.667 -71 -41.334 -115 -56.001v0c39.333 -52 74.666 -100.667 105.999 -146c32 -46 65.667 -98 101 -156
h169v-189h-169h-149c-72 137.333 -139 252.666 -201 345.999c-22.667 34.667 -48 70.667 -76 108v0l-62 -1h-50v0v-264h160v-189h-275h-276v189h171zM480.001 665.001l143 -0.000976562c68.667 0 121.667 13.167 159 39.5s56 63.5 56 111.5c0 46.667 -12 81.334 -36 104.001
s-61 34 -111 34h-211v0v-289z" />
    <glyph glyph-name="S" unicode="S" 
d="M860 749l0.00195312 199.002c-47.333 15.333 -87 25.5 -119 30.5s-72.667 7.5 -122 7.5c-65.333 0 -118.833 -14.333 -160.5 -43s-62.5 -65.334 -62.5 -110.001c0 -44 24.333 -79.333 73 -106c48 -26 123 -44.333 225 -55c137.333 -15.333 237.333 -49.666 300 -102.999
c62.667 -52.667 94 -130.334 94 -233.001c0 -105.333 -40.167 -191.5 -120.5 -258.5s-183.833 -100.5 -310.5 -100.5c-118 0 -223.333 23 -316 69v0v-69h-191v0v421v0h191v0v-152c55.333 -24 104.666 -40.167 147.999 -48.5s99.333 -12.5 168 -12.5
c65.333 0 118.666 13.167 159.999 39.5s62 60.166 62 101.499c0 43.333 -18 75.666 -54 96.999s-99 37 -189 47c-156.667 17.333 -270.667 54 -342 110s-107 137 -107 243c0 108.667 40.333 197.667 121 267s184.334 104 311.001 104
c95.333 0.666992 175.666 -15.666 240.999 -48.999v0v49h191v0v-445v0h-191z" />
    <glyph glyph-name="T" unicode="T" 
d="M504 189v765v0h-238v-266h-189v241v242v0h537v0h538v0v-241v-242h-189v266h-239v0v-765h256v-189h-366h-366v189h256z" />
    <glyph glyph-name="U" unicode="U" 
d="M1062 406c0 -144.667 -35.168 -252.334 -105.501 -323.001s-177.833 -106 -322.5 -106s-252.334 35.333 -323.001 106s-106 178.334 -106 323.001v576h-171v189h270h271v-189h-150v-578c0 -70.667 17.333 -123.334 52 -158.001s87.334 -52 158.001 -52
s123.334 17.333 158.001 52s52 87.334 52 158.001v578h-171v189h275h275v-189h-162v-576z" />
    <glyph glyph-name="V" unicode="V" 
d="M151 982h-154v189h270h271v-189h-154l242 -677v0v0l244 677h-197v189h278h279v-189h-140l-362 -982h-108h-108z" />
    <glyph glyph-name="W" unicode="W" 
d="M202 0l-109 982h-101v189h248h249v-189h-184l54 -526v0v0l178 498h75h76l191 -503v0v0l59 531h-216v189h257h257v-189h-102l-119 -982h-97h-97l-219 557v0v0l-206 -557h-97h-97z" />
    <glyph glyph-name="X" unicode="X" 
d="M191 189l308 425v0l-254 368h-154v189h250h251v-189h-104l135 -195v0v0l141 195h-109v189h241h241v-189h-128l-266 -368v0l293 -425h154v-189h-267h-268v189h138l-174 253v0v0l-183 -253h150v-189h-267h-268v189h140z" />
    <glyph glyph-name="Y" unicode="Y" 
d="M511 455l-305 527h-161v189h256h256v-189h-107l176 -327v0l191 327h-131v189h258h259v-189h-153l-319 -513v0v-280h273v-189h-374h-375v189h256v266z" />
    <glyph glyph-name="Z" unicode="Z" 
d="M150 171l595 783v0h-406v-266h-189v241v242v0h512v0h369v-85v-86l-596 -783v0h452v290h191v-253v-254v0h-559v0h-369v85v86z" />
    <glyph glyph-name="bracketleft" unicode="[" 
d="M588 -188v1501v0h433v-215h-213v0v-1071v0h213v-215h-433v0z" />
    <glyph glyph-name="backslash" unicode="\" 
d="M896 -281l-742 1628l182 92l747 -1638z" />
    <glyph glyph-name="bracketright" unicode="]" 
d="M640 -188h-433v215h213v0v1071v0h-213v215h433v0v-1501z" />
    <glyph glyph-name="asciicircum" unicode="^" 
d="M669 1536c46 -105.333 94.001 -189.332 144.001 -251.999c50.667 -63.333 122.667 -129 216 -197v-94c-154.667 70 -277.334 143 -368.001 219l-46 41v0l-44 -40c-90.667 -76 -213 -149.333 -367 -220v94c92.667 68 164 133.333 214 196
c50.667 63.333 99 147.666 145 252.999h53h53z" />
    <glyph glyph-name="underscore" unicode="_" 
d="M0 -512v105h1229v-105h-1229z" />
    <glyph glyph-name="grave" unicode="`" 
d="M944 1048l-630 163l75 220l598 -258z" />
    <glyph glyph-name="a" unicode="a" 
d="M471 -23c-99.333 0 -183.17 29.001 -251.503 87.001s-102.5 129 -102.5 213c0 102 43.667 183 131 243s205.333 90 354 90c60.667 0 118.667 -5 174 -15v0v14c0 39.333 -15.333 69.5 -46 90.5s-74.667 31.5 -132 31.5c-45.333 0 -96.166 -6.33301 -152.499 -19
s-114.166 -31 -173.499 -55l-85 189c94.667 39.333 170.667 66.166 228 80.499s117.333 21.5 180 21.5c136.667 0 237.334 -27.5 302.001 -82.5s97 -140.5 97 -256.5v-420h165v-189h-191h-192v0v81v0c-22.667 -16 -46.667 -31 -72 -45c-74 -39.333 -151.667 -59 -233 -59z
M775.996 333.001v40.001v0c-2.66699 5.33301 -29 10 -79 14s-97 6 -141 6c-64 0 -116.5 -10.167 -157.5 -30.5s-61.5 -46.5 -61.5 -78.5c0 -26.667 14.333 -48.334 43 -65.001s65.334 -25 110.001 -25c40.667 0 91.167 14.667 151.5 44s105.166 61 134.499 95v0z" />
    <glyph glyph-name="b" unicode="b" 
d="M185 1087h-172v189h167h168h55v-413v0c78 56.667 167 85 267 85c129.333 0 238.666 -46.5 327.999 -139.5s134 -206.833 134 -341.5c0 -144 -43.167 -261.667 -129.5 -353s-197.166 -137 -332.499 -137c-100 1.33301 -189 29 -267 83v0v-60v0h-191h-192v189h165v898z
M656 194c75.333 0 136.834 25.333 184.501 76s71.5 115.667 71.5 195c0 78 -23.833 141.833 -71.5 191.5s-108.834 74.5 -183.501 74.5c-78 0 -139.833 -24.167 -185.5 -72.5s-68.5 -113.5 -68.5 -195.5v0v0v0c0 -78.667 23.667 -143.167 71 -193.5s108 -75.5 182 -75.5z
" />
    <glyph glyph-name="c" unicode="c" 
d="M1113 167c-90.667 -70 -173.831 -119.168 -249.498 -147.501s-161.834 -42.5 -258.501 -42.5c-142 0 -258.167 45.667 -348.5 137s-135.5 209 -135.5 353c0 141.333 48 256.833 144 346.5s219.667 134.5 371 134.5c81.333 0 155 -10.333 221 -31v0v31h187v0v-411v0h-187
v0v166c-48.667 11.333 -87.167 18.833 -115.5 22.5s-63.166 5.5 -104.499 5.5c-86.667 0 -157.667 -24.833 -213 -74.5s-83 -113.5 -83 -191.5c0 -79.333 27.667 -144.166 83 -194.499s126.333 -75.5 213 -75.5c73.333 0 134.666 9.83301 183.999 29.5
s106.666 57.5 171.999 113.5z" />
    <glyph glyph-name="d" unicode="d" 
d="M554 -23c-130 0 -240.001 47.333 -330.001 142s-135 210.667 -135 348c0 134.667 45 248.5 135 341.5s200 139.5 330 139.5c104 0 194.333 -29.667 271 -89v0v228h-258v189h210h211h55v-1087h165v-189h-191h-192v0v57v0c-75.333 -53.333 -165.666 -80 -270.999 -80z
M566.999 731c-76 0 -138.001 -24.833 -186.001 -74.5s-72 -113.5 -72 -191.5c0 -79.333 24 -144.333 72 -195s109.667 -76 185 -76c76 0 138.167 25.167 186.5 75.5s72.5 114.833 72.5 193.5c0 82 -23.167 147.167 -69.5 195.5s-109.166 72.5 -188.499 72.5z" />
    <glyph glyph-name="e" unicode="e" 
d="M645 -23c-151.333 0 -275.168 45.666 -371.501 136.999s-144.5 209 -144.5 353c0 141.333 49.5 256.833 148.5 346.5s226.5 134.5 382.5 134.5c132.667 0 241.334 -44.833 326.001 -134.5s127 -205.167 127 -346.5c0 -30.667 -2 -60.667 -6 -90v0h-759v0
c12 -47.333 35.667 -86 71 -116c54 -44.667 135 -67 243 -67c74.667 0 140.667 8.33301 198 25s124 46.667 200 90l94 -179c-77.333 -47.333 -161.5 -84.666 -252.5 -111.999s-176.5 -41 -256.5 -41zM909.998 563.999c-12.667 35.333 -34 66.334 -64 93.001
c-55.333 49.333 -126.333 74 -213 74s-157.667 -25 -213 -75c-28.667 -26.667 -50.667 -57.334 -66 -92.001v0h556z" />
    <glyph glyph-name="f" unicode="f" 
d="M655 708l0.000976562 -519h435v-189h-432h-433v189h212v519v0h-186v217h186v0v87c0 105.333 25.5 183 76.5 233s130.5 75 238.5 75c76.667 0 134.167 -2 172.5 -6s98.166 -14.333 179.499 -31l-82 -217c-64.667 16.667 -111 27 -139 31s-66.333 6 -115 6
c-42.667 0 -72.167 -6.66699 -88.5 -20s-24.5 -37 -24.5 -71v-87v0h395v-217h-395z" />
    <glyph glyph-name="g" unicode="g" 
d="M566 -161c78.667 0 137.333 12.666 176 37.999s58 64 58 116v107v0c-76 -51.333 -166.333 -77 -271 -77c-136.667 0 -248.5 43.667 -335.5 131s-130.5 199.333 -130.5 336c0 134.667 45.167 244.667 135.5 330s206.5 128 348.5 128c96 0 180.333 -26 253 -78v0v55v0h191
h192v-189h-165v-762c0 -113.333 -37 -200.333 -111 -261s-180.333 -91 -319 -91c-72 0 -143.333 6.33301 -214 19s-152 34 -244 64l58 215c92.667 -31.333 165 -52.666 217 -63.999s105.667 -17 161 -17zM540.999 730.999c-76 0 -138 -22.833 -186 -68.5
s-72 -104.167 -72 -175.5c0 -72.667 24 -132 72 -178s109.667 -69 185 -69c76 0 138.333 23 187 69s73 105 73 177s-24.167 130.833 -72.5 176.5s-110.5 68.5 -186.5 68.5z" />
    <glyph glyph-name="h" unicode="h" 
d="M244 189l0.00195312 898h-172v189h167h168h55v-398v0v0l35 17c75.333 35.333 150 53 224 53c102 0 180.333 -22.833 235 -68.5s82 -111.5 82 -197.5v-493h165v-189h-257h-258v189h132v433c0 40 -9 68 -27 84s-49 24 -93 24c-50.667 0 -100.334 -10.667 -149.001 -32
c-30.667 -14 -60.334 -31.667 -89.001 -53v0v-456h132v-189h-257h-258v189h165z" />
    <glyph glyph-name="i" unicode="i" 
d="M543 189v547h-304v189h233h234h55v-736h363v-189h-472h-472v189h363zM511 1367h248v-333h-248v333z" />
    <glyph glyph-name="j" unicode="j" 
d="M680 736h-507v189h335h335h55v-952c0 -106.667 -32.333 -192 -97 -256s-151 -96 -259 -96c-61.333 0 -113.833 3 -157.5 9s-101.5 18.333 -173.5 37l55 217c20 -8.66699 60.667 -18.5 122 -29.5s106 -16.5 134 -16.5c61.333 0 103 16 125 48s33 92.667 33 182v668z
M648 1367h248v-333h-248v333z" />
    <glyph glyph-name="k" unicode="k" 
d="M263 189l-0.000976562 898.001h-163v189h163h163h55v-653v0l144 113h-42v189h278h279v-189h-202l-258 -197v0l93 -93c70.667 -72.667 145 -158.334 223 -257.001h213v-189h-263h-264v189h64c-37.333 45.333 -73.333 86.333 -108 123
c-33.333 35.333 -70.666 72 -111.999 110v0l-45 -34v0v-388h-55h-164h-164v189h165z" />
    <glyph glyph-name="l" unicode="l" 
d="M543 189v898h-347v189h255h255h55v-1087h363v-189h-472h-472v189h363z" />
    <glyph glyph-name="m" unicode="m" 
d="M137 189l-0.000976562 547.001h-169v189h160h161h55v-34v0v0c50 38 100 57 150 57c66.667 0.666992 123 -26 169 -80v0l18 14c56.667 44 117 66 181 66c88.667 0 156.667 -26.833 204 -80.5s71 -130.834 71 -231.501v-447h123v-189h-170h-171v0v631
c0 32 -5.66699 56.5 -17 73.5s-27.333 25.5 -48 25.5c-28.667 0 -56 -10.667 -82 -32l-26 -25v0v-484h90v-189h-154h-154v0v620c0 35.333 -6.16699 62.5 -18.5 81.5s-30.166 28.5 -53.499 28.5c-30 0 -57.333 -8.66699 -82 -26l-19 -13v0v-502h90v-189h-236h-237v189h165z
" />
    <glyph glyph-name="n" unicode="n" 
d="M218 189l-0.000976562 547h-169v189h160h161h55v-52v0v0l47 22c75.333 35.333 150.333 53 225 53c102.667 0 181.334 -23 236.001 -69s82 -112 82 -198v-492h165v-189h-257h-258v189h132v432c0 40 -9 68.167 -27 84.5s-49.333 24.5 -94 24.5
c-51.333 0 -101.333 -10.667 -150 -32c-30.667 -13.333 -60.667 -31 -90 -53v0v-456h132v-189h-257h-258v189h165z" />
    <glyph glyph-name="o" unicode="o" 
d="M613 -23c-153.333 0 -278.833 45.667 -376.5 137s-146.5 209 -146.5 353c0 141.333 48.833 256.833 146.5 346.5s223.167 134.5 376.5 134.5c154 0 279.833 -44.833 377.5 -134.5s146.5 -205.167 146.5 -346.5c0 -144 -48.833 -261.667 -146.5 -353
s-223.5 -137 -377.5 -137v0zM613 194c89.333 0 162.333 25.333 219 76s85 115.667 85 195c0 78 -28.333 141.833 -85 191.5s-129.667 74.5 -219 74.5c-88.667 0 -161.334 -24.833 -218.001 -74.5s-85 -113.5 -85 -191.5c0 -79.333 28.333 -144.333 85 -195
s129.334 -76 218.001 -76v0z" />
    <glyph glyph-name="p" unicode="p" 
d="M192 736h-169v189h166h166h55v-62v0c78.667 56.667 168 85 268 85c130 0 239.833 -46.5 329.5 -139.5s134.5 -206.833 134.5 -341.5c0 -144 -43.333 -261.667 -130 -353s-198 -137 -334 -137c-100 0.666992 -189.333 28.667 -268 84v0v-247h305v-189h-342h-343v189h162
v922zM665 194c75.333 0 136.999 25.333 184.999 76s72 115.667 72 195c0 78 -23.833 141.833 -71.5 191.5s-109.167 74.5 -184.5 74.5c-78.667 0 -141 -24.167 -187 -72.5s-69 -113.5 -69 -195.5v0v0v0c0 -78.667 23.833 -143.167 71.5 -193.5s108.834 -75.5 183.501 -75.5z
" />
    <glyph glyph-name="q" unicode="q" 
d="M563 -23c-130 0 -240.001 47.333 -330.001 142s-135 210.667 -135 348c0 134.667 45 248.5 135 341.5s200 139.5 330 139.5c102.667 -0.666992 193 -29.667 271 -87v0v64v0h191h192v-189h-165v-922h162v-189h-342h-343v189h305v243v0
c-75.333 -53.333 -165.666 -80 -270.999 -80zM575.999 731c-76 0 -138.001 -24.833 -186.001 -74.5s-72 -113.5 -72 -191.5c0 -79.333 24 -144.333 72 -195s109.667 -76 185 -76c76 0 138.167 25.167 186.5 75.5s72.5 114.833 72.5 193.5c0 82 -23.167 147.167 -69.5 195.5
s-109.166 72.5 -188.499 72.5z" />
    <glyph glyph-name="r" unicode="r" 
d="M371 189v546.999h-236v189h194h194h55v-131v0v0c38 28.667 74.667 53.667 110 75c88.667 52.667 167 79 235 79c79.333 0 137.833 -18.5 175.5 -55.5s59.167 -97.167 64.5 -180.5l-208 -33c-2 16.667 -6.33301 29.334 -13 38.001s-15.667 13 -27 13
c-44 0 -97.667 -20 -161 -60c-50.667 -32 -105.667 -76 -165 -132v0v-349h396v-189h-422h-423v189h231z" />
    <glyph glyph-name="s" unicode="s" 
d="M847 592l-0.00195312 106.002c-48.667 13.333 -90.167 22.166 -124.5 26.499s-79.833 6.5 -136.5 6.5c-50.667 0 -92.167 -5.83301 -124.5 -17.5s-48.5 -26.5 -48.5 -44.5c0 -27.333 20.333 -49.333 61 -66c40 -16.667 102 -29 186 -37
c146.667 -14 252.334 -43 317.001 -87c64 -43.333 96 -107.666 96 -192.999c0 -90.667 -38.5 -164.834 -115.5 -222.501s-176.167 -86.5 -297.5 -86.5c-110.667 0 -208.667 15.667 -294 47v0v-47h-191v0v393v0h191v0v-148c54.667 -11.333 100.834 -18.833 138.501 -22.5
s89.5 -5.5 155.5 -5.5c58.667 0 106.834 7.66699 144.501 23s56.5 35.333 56.5 60s-15 42.667 -45 54c-29.333 11.333 -87.333 21 -174 29c-156.667 14.667 -269.334 46 -338.001 94c-68.667 47.333 -103 117.666 -103 210.999c0 83.333 36 151.333 108 204
s164.333 79 277 79c99.333 0 186.333 -12.667 261 -38v0v38h191v0v-356v0h-191z" />
    <glyph glyph-name="t" unicode="t" 
d="M628 -23c-111.333 0 -192.333 26.332 -243 78.999s-76 136.667 -76 252v400v0h-118v217h118v0v278h218v-278v0h475v-217h-475v0v-310c0 -76.667 9.5 -129.667 28.5 -159s53.167 -44 102.5 -44c60 0 117.333 8.16699 172 24.5s139.667 50.5 255 102.5l38 -222
c-92.667 -43.333 -177.667 -74.666 -255 -93.999s-157.333 -29 -240 -29z" />
    <glyph glyph-name="u" unicode="u" 
d="M430 925v-622c0 -35.333 10.333 -62.333 31 -81s50.667 -28 90 -28c51.333 0 101.333 10.667 150 32c31.333 13.333 61.333 31.333 90 54v0v456h-169v189h166h166h55v-736h165v-189h-186h-186v0v47v0v0l-35 -18c-68 -35.333 -132.333 -53 -193 -53
c-116.667 0 -206.167 26.167 -268.5 78.5s-93.5 127.5 -93.5 225.5v456h-169v189h166h166h55z" />
    <glyph glyph-name="v" unicode="v" 
d="M199 736h-178v189h272h273v-189h-129l192 -438v0v0l193 438h-134v189h259h259v-189h-162l-333 -736h-90h-90z" />
    <glyph glyph-name="w" unicode="w" 
d="M293 0l-206 736h-101v189h232h233v-189h-141l93 -342v0v0l133 374h81h81l135 -373v0v0l92 341h-142v189h229h229v-189h-105l-208 -736h-90h-90l-139 365v0v0l-136 -365h-90h-90z" />
    <glyph glyph-name="x" unicode="x" 
d="M214 189l272 295v0l-231 252h-178v189h248h248v-189h-51l98 -106v0v0l98 106h-47v189h233h233v-189h-162l-227 -246v0l276 -301h169v-189h-256h-257v189h77l-143 155v0v0l-143 -155h71v-189h-253h-253v189h178z" />
    <glyph glyph-name="y" unicode="y" 
d="M1068 736l-528 -926h152v-189h-306h-307v189h234l163 288v0l-306 638h-160v189h251h251v-189h-103l193 -413v0v0l232 413h-94v189h245h245v-189h-162z" />
    <glyph glyph-name="z" unicode="z" 
d="M188 163l523 547v0h-306v-157h-189v186v186v0h461v0h363v-81v-82l-523 -547v0h323v188h189v-201v-202v0h-478v0h-363v81v82z" />
    <glyph glyph-name="braceleft" unicode="{" 
d="M982 -468c-194 -6 -326 17.833 -396 71.5s-105 157.5 -105 311.5v234c0 92.667 -19.5 162.667 -58.5 210s-97.5 72.333 -175.5 75v228c78 2.66699 136.5 27.667 175.5 75s58.5 117.333 58.5 210v234c0 154 35 257.833 105 311.5s202 77.5 396 71.5v-217
c-101.333 3.33301 -175.5 -3 -222.5 -19s-70.5 -43 -70.5 -81v-234c0 -182.667 -32.333 -311 -97 -385c-30 -34 -70.667 -60.667 -122 -80v0c51.333 -19.333 92 -46 122 -80c64.667 -74 97 -202.333 97 -385v-234c0 -38 23.5 -65 70.5 -81s121.167 -22.333 222.5 -19v-217z
" />
    <glyph glyph-name="bar" unicode="|" 
d="M562 -512v2048h105v-2048h-105z" />
    <glyph glyph-name="braceright" unicode="}" 
d="M247 -468v217c101.333 -3.33301 175.5 3 222.5 19s70.5 43 70.5 81v234c0 182.667 32.333 311 97 385c30 34 70.667 60.667 122 80v0c-51.333 19.333 -92 46 -122 80c-64.667 74 -97 202.333 -97 385v234c0 38 -23.5 65 -70.5 81s-121.167 22.333 -222.5 19v217
c194 6 326 -17.833 396 -71.5s105 -157.5 105 -311.5v-234c0 -92.667 19.5 -162.667 58.5 -210s97.5 -72.333 175.5 -75v-228c-78 -2.66699 -136.5 -27.667 -175.5 -75s-58.5 -117.333 -58.5 -210v-234c0 -154 -35 -258 -105 -312c-70 -53.333 -202 -77 -396 -71z" />
    <glyph glyph-name="asciitilde" unicode="~" 
d="M163 378c50.667 82.667 97.1689 140.999 139.502 174.999s89.833 51 142.5 51c14 0 36.833 -3.5 68.5 -10.5s75.834 -18.167 132.501 -33.5c34.667 -9.33301 66 -16.666 94 -21.999s49.333 -8 64 -8c23.333 0 44.166 7.5 62.499 22.5s38.166 41.167 59.499 78.5l145 -124
c-52 -76 -100.333 -129.5 -145 -160.5s-95.667 -46.5 -153 -46.5l-185 50c-24 6.66699 -49.833 11.834 -77.5 15.501s-53.834 5.5 -78.501 5.5c-22 0 -42.333 -8.83301 -61 -26.5s-39.667 -47.834 -63 -90.501z" />
    <glyph glyph-name="uni00A0" unicode="&#xa0;" 
 />
    <glyph glyph-name="exclamdown" unicode="&#xa1;" 
d="M738 468l37 -751h-260l36 751h187zM645 548c-59.333 0 -109.666 17.667 -150.999 53s-62 78.333 -62 129s20.667 93.5 62 128.5s91.666 52.5 150.999 52.5s109.666 -17.5 150.999 -52.5s62 -77.833 62 -128.5s-20.667 -93.667 -62 -129s-91.666 -53 -150.999 -53z" />
    <glyph glyph-name="cent" unicode="&#xa2;" 
d="M530 1290l214.998 0.000976562v-286c38 -6 73 -14.667 105 -26v0v57h191v0v-360v0h-191v0v111c-51.333 15.333 -88.333 25.166 -111 29.499s-50.667 6.5 -84 6.5c-69.333 0 -126 -21.333 -170 -64s-66 -97.667 -66 -165c0 -64.667 22.333 -119.5 67 -164.5
s99.334 -67.5 164.001 -67.5c36.667 0 90.167 14.333 160.5 43s125.833 58.667 166.5 90l99 -157c-58.667 -52 -125.667 -93.333 -201 -124c-44 -18 -87.333 -31 -130 -39v-290h-215v295c-77.333 19.333 -144.666 55 -201.999 107c-86 79.333 -129 181.666 -129 306.999
c0 122.667 40.333 223.334 121 302.001c58.667 56.667 128.667 92.667 210 108v287z" />
    <glyph glyph-name="sterling" unicode="&#xa3;" 
d="M1118 135c-31.333 -46 -72.1709 -85 -122.504 -117s-96.5 -48 -138.5 -48c-26 0 -53.833 2.5 -83.5 7.5s-67.5 13.833 -113.5 26.5c-25.333 7.33301 -46.166 12.166 -62.499 14.499s-36.166 3.5 -59.499 3.5c-24.667 0 -57.334 -8.33301 -98.001 -25
s-78.334 -37 -113.001 -61l-106 143c48 32.667 87.167 78.834 117.5 138.501s45.5 120.167 45.5 181.5c0 41.333 -2.66699 75.666 -8 102.999l-7 30h-203v217h140c-4.66699 34 -7 73.333 -7 118c0 113.333 37.333 206 112 278s170.667 108 288 108
c88.667 0 167.334 -22 236.001 -66s123.334 -107.667 164.001 -191l-193 -95c-26.667 44.667 -56.167 78.334 -88.5 101.001s-67.5 34 -105.5 34c-56.667 0 -103.167 -14.667 -139.5 -44s-54.5 -67.333 -54.5 -114c0 -41.333 2.66699 -76 8 -104l5 -25h426v-217h-363
c6 -36 9 -79.667 9 -131c0 -65.333 -19 -129.333 -57 -192c17.333 5.33301 33 8.33301 47 9c22.667 0 44.5 -2.16699 65.5 -6.5s45.5 -12.166 73.5 -23.499c36 -14.667 61.333 -24.334 76 -29.001s26 -7 34 -7c24.667 0 54.334 9.5 89.001 28.5s64.334 42.167 89.001 69.5z
" />
    <glyph glyph-name="currency" unicode="&#xa4;" 
d="M899 700c0 79.333 -27.5 146.5 -82.5 201.5s-122.167 82.5 -201.5 82.5s-146.5 -27.5 -201.5 -82.5s-82.5 -122.167 -82.5 -201.5s27.5 -146.5 82.5 -201.5s122.167 -82.5 201.5 -82.5s146.5 27.5 201.5 82.5s82.5 122.167 82.5 201.5zM615 216
c-102 0 -192.667 26.668 -272 80.001v0l-136 -136l-132 132l136 136v0c-53.333 79.333 -80 170 -80 272c1.33301 102.667 27.666 193.667 78.999 273v0l-135 135l132 132l136 -136v0c78.667 53.333 169.334 80 272.001 80s193.334 -26.667 272.001 -80v0l136 136l132 -132
l-136 -136v0c53.333 -79.333 80 -170 80 -272c0.666992 -102 -26.333 -192.333 -81 -271v0l137 -137l-132 -132l-136 136v0c-78.667 -52.667 -169.334 -79.334 -272.001 -80.001z" />
    <glyph glyph-name="yen" unicode="&#xa5;" 
d="M253 511v134h248v0l-290 396h-161v189h255h256v-189h-84l156 -229v0l172 229h-109v189h252h252v-189h-153l-318 -396v0h266v-134h-261v0v-100v0h261v-134h-261v0v-88h222v-189h-332h-332v189h222v88v0h-261v134h261v0v100v0h-261z" />
    <glyph glyph-name="brokenbar" unicode="&#xa6;" 
d="M562 -461v919h105v-919h-105zM562 564v919h105v-919h-105z" />
    <glyph glyph-name="section" unicode="&#xa7;" 
d="M579 1194l422 0.00683594v0v-377h-191v0v160h-231c-57.333 0 -86 4 -86 12c0 -3.33301 23.333 -23.666 70 -60.999l318 -255c56 -44.667 96.667 -85.334 122 -122.001s38 -73.334 38 -110.001c0.666992 -92.667 -38 -160.334 -116 -203.001c14.667 -14 26 -27.333 34 -40
c20 -30.667 30 -68.334 30 -113.001c0 -70.667 -21.333 -124.5 -64 -161.5s-105 -55.5 -187 -55.5h-382l-106 1v0v374h191v0v-158h297l32 3c0 7.33301 -18.667 25.666 -56 54.999l-331 256c-62 48.667 -102.333 88 -121 118s-28 71.333 -28 124
c0 77.333 39 142.666 117 195.999l-40 48c-24.667 35.333 -37 69.666 -37 102.999c0 71.333 24.333 123.666 73 156.999c48.667 32.667 126 49 232 49zM822 437.007c0 5.33301 -5.66699 13.833 -17 25.5s-29.333 27.5 -54 47.5l-224 180l-27 -7
c-31.333 -10.667 -47 -26 -47 -46c0 -15.333 3.33301 -27.833 10 -37.5s21 -22.5 43 -38.5l235 -176l18 4c42 10 63 26 63 48z" />
    <glyph glyph-name="dieresis" unicode="&#xa8;" 
d="M328 1396h254v-305h-254v305zM649 1396h254v-305h-254v305z" />
    <glyph glyph-name="copyright" unicode="&#xa9;" 
d="M614 1529c134 0 247.167 -46.167 339.5 -138.5s138.5 -205.5 138.5 -339.5c0 -133.333 -46.167 -246.166 -138.5 -338.499s-205.5 -138.5 -339.5 -138.5c-133.333 0 -246.166 46.167 -338.499 138.5s-138.5 205.166 -138.5 338.499c0 134 46.167 247.167 138.5 339.5
s205.166 138.5 338.499 138.5v0zM1027 1051c0 115.333 -40 213 -120 293s-177.667 120 -293 120s-212.833 -40 -292.5 -120s-119.5 -177.667 -119.5 -293s39.833 -212.833 119.5 -292.5s177.167 -119.5 292.5 -119.5s213 39.833 293 119.5s120 177.167 120 292.5v0zM844 866
c-16 -22.667 -43.0029 -41.666 -81.0029 -56.999s-76.333 -23 -115 -23c-73.333 0 -135.5 26.5 -186.5 79.5s-76.5 117.833 -76.5 194.5c0 77.333 25.167 142.5 75.5 195.5s111.833 79.5 184.5 79.5c38.667 0 76.834 -7.33301 114.501 -22s64.167 -32.667 79.5 -54l-58 -62
c-12.667 17.333 -32.167 32.166 -58.5 44.499s-52.166 18.5 -77.499 18.5c-52 0 -95.833 -19.333 -131.5 -58s-53.5 -86 -53.5 -142s18.167 -103.167 54.5 -141.5s80.833 -57.5 133.5 -57.5c24.667 0 50.334 6.5 77.001 19.5s47 28.833 61 47.5z" />
    <glyph glyph-name="ordfeminine" unicode="&#xaa;" 
d="M554 697c-58 0 -105.499 19.167 -142.499 57.5s-55.5 87.833 -55.5 148.5c0 55.333 21.667 97.833 65 127.5s105 44.5 185 44.5l66 -3v0c-3.33301 18 -10.333 33.333 -21 46s-27.334 19 -50.001 19c-30.667 0 -59.334 -1.5 -86.001 -4.5s-53 -7.5 -79 -13.5l-44 98
c42 14.667 77 24.334 105 29.001s63.333 7 106 7c70.667 0 122.667 -15.833 156 -47.5s50 -80.834 50 -147.501v-227h91v-123h-114h-115v0v40v0l-5 -4c-35.333 -31.333 -72.666 -47 -111.999 -47zM585.001 942c-28 0 -49.333 -4.83203 -64 -14.499s-22 -23.834 -22 -42.501
c0 -13.333 5 -24.5 15 -33.5s22 -13.5 36 -13.5c24.667 0 47 7.83301 67 23.5s38 39.167 54 70.5c-1.33301 6.66699 -30 10 -86 10z" />
    <glyph glyph-name="guillemotleft" unicode="&#xab;" 
d="M665 749l-294 -267v0l294 -267l-124 -171l-459 438v0l459 438zM1147 749l-294 -267v0l294 -267l-124 -171l-459 438v0l459 438z" />
    <glyph glyph-name="logicalnot" unicode="&#xac;" 
d="M832 548h-656v220h876v-626h-220v406z" />
    <glyph glyph-name="uni00AD" unicode="&#xad;" 
d="M285 610h658v-220h-658v220z" />
    <glyph glyph-name="registered" unicode="&#xae;" 
d="M614 1524c134 0 247.167 -46.167 339.5 -138.5s138.5 -205.5 138.5 -339.5c0 -133.333 -46.167 -246.166 -138.5 -338.499s-205.5 -138.5 -339.5 -138.5c-133.333 0 -246.166 46.167 -338.499 138.5s-138.5 205.166 -138.5 338.499c0 134 46.167 247.167 138.5 339.5
s205.166 138.5 338.499 138.5v0zM1027 1046c0 115.333 -40 213 -120 293s-177.667 120 -293 120s-212.833 -40 -292.5 -120s-119.5 -177.667 -119.5 -293s39.833 -212.833 119.5 -292.5s177.167 -119.5 292.5 -119.5s213 39.833 293 119.5s120 177.167 120 292.5v0zM447 807
v505.998h187c41.333 0 76.166 -14.167 104.499 -42.5s42.5 -63.166 42.5 -104.499s-14.333 -76.333 -43 -105c-13.333 -13.333 -28.666 -23.666 -45.999 -30.999l89 -223h-91l-84 212v0h-84v-212h-75zM706 1166c0 20 -7 37 -21 51s-31 21 -51 21h-112v0v-72v-72h112
c20 0 37 7 51 21s21 31 21 51z" />
    <glyph glyph-name="macron" unicode="&#xaf;" 
d="M0 1526v105h1229v-105h-1229z" />
    <glyph glyph-name="degree" unicode="&#xb0;" 
d="M614 1252c86 0 158.5 -29.5 217.5 -88.5s88.5 -131.5 88.5 -217.5c0 -85.333 -29.5 -157.5 -88.5 -216.5s-131.5 -88.5 -217.5 -88.5c-85.333 0 -157.5 29.5 -216.5 88.5s-88.5 131.167 -88.5 216.5c0 86 29.5 158.5 88.5 217.5s131.167 88.5 216.5 88.5zM755 946
c0 39.333 -13.667 72.666 -41 99.999s-60.666 41 -99.999 41s-72.5 -13.667 -99.5 -41s-40.5 -60.666 -40.5 -99.999s13.5 -72.5 40.5 -99.5s60.167 -40.5 99.5 -40.5s72.666 13.5 99.999 40.5s41 60.167 41 99.5z" />
    <glyph glyph-name="plusminus" unicode="&#xb1;" 
d="M504 345h-333v220h333v333h220v-333h333v-220h-333v-333h-220v333zM171 -87h886v-220h-886v220z" />
    <glyph glyph-name="uni00B2" unicode="&#xb2;" 
d="M775 1023c0 -37.333 -11.3311 -75 -33.998 -113s-56.667 -76.333 -102 -115l-113 -97v0h249v0v-79v-80v0h-493v71v72l262 224c26 22 45.333 42.667 58 62s19 37.666 19 54.999c0 18.667 -8.33301 34.334 -25 47.001s-37.334 19 -62.001 19
c-34 0 -59.833 -7.33301 -77.5 -22s-23.834 -34 -18.501 -58l2 -23v0h-134v154v0c28.667 36 61.5 62 98.5 78s82.167 24 135.5 24c68.667 0 125 -20.667 169 -62c44 -40.667 66 -93 66 -157z" />
    <glyph glyph-name="uni00B3" unicode="&#xb3;" 
d="M585 1041c0 15.333 -5.00293 27.1699 -15.0029 35.5029s-24 12.5 -42 12.5c-21.333 0 -46 -5.66699 -74 -17s-54 -26.333 -78 -45l-88 129c30.667 25.333 67.834 46 111.501 62s84.834 24 123.501 24c60.667 0 111.834 -18.5 153.501 -55.5s62.5 -82.5 62.5 -136.5
c0.666992 -46.667 -14 -87 -44 -121v0l6 -6c48.667 -44 73 -98.333 73 -163c0 -65.333 -24.333 -120.5 -73 -165.5s-108 -67.5 -178 -67.5c-28.667 0 -69.5 7.66699 -122.5 23s-95.5 31.666 -127.5 48.999l66 142c18 -14 45.5 -27.667 82.5 -41s65.833 -20 86.5 -20
c35.333 0 62.833 6.83301 82.5 20.5s29.5 32.5 29.5 56.5c0 21.333 -6.33301 38.666 -19 51.999c-9.33301 9.33301 -28.833 16 -58.5 20s-61.167 4.33301 -94.5 1v163v0h56c22.667 0 42 4.66699 58 14c15.333 9.33301 23 20.666 23 33.999z" />
    <glyph glyph-name="acute" unicode="&#xb4;" 
d="M360 1172l587 256l75 -221l-620 -159z" />
    <glyph glyph-name="uni00B5" unicode="&#xb5;" 
d="M558 924l-129.998 -629c-6.66699 -34 -3.5 -59.333 9.5 -76s35.833 -25 68.5 -25c48 0 94.167 29.5 138.5 88.5s74.833 131.5 91.5 217.5v0l87 424h202l-131 -633c-6.66699 -31.333 -4.33398 -56.833 6.99902 -76.5s29.333 -29.5 54 -29.5c18.667 0 37.5 9.66699 56.5 29
s34.5 44.333 46.5 75l85 -24c-18.667 -83.333 -49.834 -151.5 -93.501 -204.5s-91.167 -79.5 -142.5 -79.5c-50 0 -86.667 26 -110 78c-16 38 -23 83.667 -21 137v0v0l-48 -68c-78 -101.333 -160 -152 -246 -152c-39.333 -0.666992 -76 14.333 -110 45v0l-67 -352
c-6 -34 -21.167 -62.667 -45.5 -86s-50.5 -35 -78.5 -35v0c-28 0 -49.5 11.667 -64.5 35s-19.5 52 -13.5 86l120 609l133 646h202z" />
    <glyph glyph-name="paragraph" unicode="&#xb6;" 
d="M651 581c-124 1.33301 -229.667 47.168 -317 137.501s-131 201.166 -131 332.499c0 132 45 243.5 135 334.5s200 136.5 330 136.5h382v-88h-93v0v-1727h-92v1727v0h-122v0v-1727h-92v874z" />
    <glyph glyph-name="periodcentered" unicode="&#xb7;" 
d="M644 781c62 0 114.5 -19 157.5 -57s64.5 -84.333 64.5 -139s-21.5 -100.834 -64.5 -138.501s-95.5 -56.5 -157.5 -56.5s-114.5 18.833 -157.5 56.5s-64.5 83.834 -64.5 138.501s21.5 101 64.5 139s95.5 57 157.5 57z" />
    <glyph glyph-name="cedilla" unicode="&#xb8;" 
d="M692 0l-0.999023 -48v0c42.667 -5.33301 75.667 -19.333 99 -42c28.667 -28 43 -70.333 43 -127c0 -61.333 -17.333 -111.333 -52 -150s-79.334 -58 -134.001 -58c-30 0 -57 4.33301 -81 13s-50 23.667 -78 45l57 94c12.667 -9.33301 27.667 -16.833 45 -22.5
s33.333 -8.5 48 -8.5c18 0 31.167 5.83301 39.5 17.5s12.5 30.167 12.5 55.5c0 20 -4.83301 34.833 -14.5 44.5s-24.167 14.5 -43.5 14.5c-12 0 -25.333 -2 -40 -6s-28 -9 -40 -15v0l17 193h123z" />
    <glyph glyph-name="uni00B9" unicode="&#xb9;" 
d="M505 674v381v0l-155 -32v156l309 63v0v0v-568h188v-135h-264h-265v135h187z" />
    <glyph glyph-name="ordmasculine" unicode="&#xba;" 
d="M614 691c-80 0 -145.333 26.333 -196 79s-76 120.667 -76 204c0 82 25.333 149 76 201s116 78 196 78s145.333 -26 196 -78s76 -119 76 -201c0 -83.333 -25.333 -151.333 -76 -204s-116 -79 -196 -79v0zM614 832c38 0 69 13.167 93 39.5s36 60.166 36 101.499
c0 40.667 -12 74 -36 100s-55 39 -93 39s-69 -13 -93 -39s-36 -59.333 -36 -100c0 -41.333 12 -75.166 36 -101.499s55 -39.5 93 -39.5v0z" />
    <glyph glyph-name="guillemotright" unicode="&#xbb;" 
d="M82 215l294 267v0l-294 267l124 171l459 -438v0l-459 -438zM564 215l294 267v0l-294 267l124 171l459 -438v0l-459 -438z" />
    <glyph glyph-name="onequarter" unicode="&#xbc;" 
d="M1325 1194l-1074 -1354l-107 78l1073 1352zM203 674v381v0l-155 -32v156l309 63v0v0v-568h188v-135h-264h-265v135h187zM1038 -40h-291v61v62l263 444h83h83v-448v0h70v-119h-70v0v-124h-69h-69v124v0zM1038 79v254v0v0l-148 -250l-2 -4v0h150z" />
    <glyph glyph-name="onehalf" unicode="&#xbd;" 
d="M1261 1194l-1074 -1354l-107 78l1073 1352zM133 674v381v0l-155 -32v156l309 63v0v0v-568h188v-135h-264h-265v135h187zM1294 320c0 -37.333 -11.3311 -75 -33.998 -113s-56.667 -76.333 -102 -115l-113 -97v0h249v0v-79v-80v0h-493v71v72l262 224
c26 22 45.333 42.667 58 62s19 37.666 19 54.999c0 18.667 -8.33301 34.334 -25 47.001s-37.334 19 -62.001 19c-34 0 -59.833 -7.33301 -77.5 -22s-23.834 -34 -18.501 -58l2 -23v0h-134v154v0c28.667 36 61.5 62 98.5 78s82.167 24 135.5 24c68.667 0 125 -20.667 169 -62
c44 -40.667 66 -93 66 -157z" />
    <glyph glyph-name="threequarters" unicode="&#xbe;" 
d="M1278 1194l-1074 -1354l-107 78l1073 1352zM306 1041c0 15.333 -5.00293 27.1699 -15.0029 35.5029s-24 12.5 -42 12.5c-21.333 0 -46 -5.66699 -74 -17s-54 -26.333 -78 -45l-88 129c30.667 25.333 67.834 46 111.501 62s84.834 24 123.501 24
c60.667 0 111.834 -18.5 153.501 -55.5s62.5 -82.5 62.5 -136.5c0.666992 -46.667 -14 -87 -44 -121v0l6 -6c48.667 -44 73 -98.333 73 -163c0 -65.333 -24.333 -120.5 -73 -165.5s-108 -67.5 -178 -67.5c-28.667 0 -69.5 7.66699 -122.5 23s-95.5 31.666 -127.5 48.999
l66 142c18 -14 45.5 -27.667 82.5 -41s65.833 -20 86.5 -20c35.333 0 62.833 6.83301 82.5 20.5s29.5 32.5 29.5 56.5c0 21.333 -6.33301 38.666 -19 51.999c-9.33301 9.33301 -28.833 16 -58.5 20s-61.167 4.33301 -94.5 1v163v0h56c22.667 0 42 4.66699 58 14
c15.333 9.33301 23 20.666 23 33.999zM992.997 -39.9961h-291v61v62l263 444h83h83v-448v0h70v-119h-70v0v-124h-69h-69v124v0zM992.997 79.0039v254v0v0l-148 -250l-2 -4v0h150z" />
    <glyph glyph-name="questiondown" unicode="&#xbf;" 
d="M663 -91c28.667 0 52.666 1.33301 71.999 4s43.333 8.33398 72 17.001v128v0h191v-290v0c-41.333 -24.667 -93 -43.5 -155 -56.5s-129.667 -19.5 -203 -19.5c-123.333 0 -224.166 29.5 -302.499 88.5s-117.5 134.833 -117.5 227.5c0 105.333 44.333 187 133 245
c50 33.333 117.667 60.333 203 81v0v135h216v-249v0c-108.667 -12 -191.167 -36 -247.5 -72s-84.5 -82.667 -84.5 -140c0 -32.667 19 -57.334 57 -74.001s93.333 -25 166 -25zM663.999 550c-60 0 -110.833 17.333 -152.5 52s-62.5 77.334 -62.5 128.001
c0 50 20.833 92.333 62.5 127s92.5 52 152.5 52s110.833 -17.333 152.5 -52s62.5 -77 62.5 -127c0 -50.667 -20.833 -93.334 -62.5 -128.001s-92.5 -52 -152.5 -52z" />
    <glyph glyph-name="Agrave" unicode="&#xc0;" 
d="M134 189l315 781h-261v189h259h259v0l392 -970h123v-189h-258h-258v189h169l-49 125v0h-421v0l-49 -125h188v-189h-268h-269v189h128zM612 852l-125 -321v0h252v0l-127 321v0v0zM950 1294l-630 163l75 220l598 -258z" />
    <glyph glyph-name="Aacute" unicode="&#xc1;" 
d="M134 189l315 781h-261v189h259h259v0l392 -970h123v-189h-258h-258v189h169l-49 125v0h-421v0l-49 -125h188v-189h-268h-269v189h128zM612 852l-125 -321v0h252v0l-127 321v0v0zM351 1418l587 256l75 -221l-620 -159z" />
    <glyph glyph-name="Acircumflex" unicode="&#xc2;" 
d="M134 189l315 781h-261v189h259h259v0l392 -970h123v-189h-258h-258v189h169l-49 125v0h-421v0l-49 -125h188v-189h-268h-269v189h128zM612 852l-125 -321v0h252v0l-127 321v0v0zM728 1672l304 -290l-138 -88l-278 219v0l-278 -219l-138 88l304 290h112h112z" />
    <glyph glyph-name="Atilde" unicode="&#xc3;" 
d="M134 189l315 781h-261v189h259h259v0l392 -970h123v-189h-258h-258v189h169l-49 125v0h-421v0l-49 -125h188v-189h-268h-269v189h128zM612 852l-125 -321v0h252v0l-127 321v0v0zM180 1335c28.667 92.667 67.335 164.167 116.002 214.5s103.667 75.5 165 75.5
c40 0 76.833 -7.33301 110.5 -22s68.834 -38.667 105.501 -72c18.667 -16.667 36.5 -29.667 53.5 -39s31.167 -14 42.5 -14c18.667 0 36.167 14.667 52.5 44s27.5 66 33.5 110l193 -56c-23.333 -96 -59.333 -170 -108 -222s-106.334 -78 -173.001 -78
c-39.333 0 -77.333 7.83301 -114 23.5s-76.667 41.5 -120 77.5c-16.667 14 -31.334 25 -44.001 33s-21.667 12 -27 12c-15.333 0 -30.833 -13.833 -46.5 -41.5s-27.834 -62.5 -36.501 -104.5z" />
    <glyph glyph-name="Adieresis" unicode="&#xc4;" 
d="M134 189l315 781h-261v189h259h259v0l392 -970h123v-189h-258h-258v189h169l-49 125v0h-421v0l-49 -125h188v-189h-268h-269v189h128zM612 852l-125 -321v0h252v0l-127 321v0v0zM329 1642h254v-305h-254v305zM649 1642h254v-305h-254v305z" />
    <glyph glyph-name="Aring" unicode="&#xc5;" 
d="M134 189l315 781h-261v189h259h259v0l392 -970h123v-189h-258h-258v189h169l-49 125v0h-421v0l-49 -125h188v-189h-268h-269v189h128zM612 852l-125 -321v0h252v0l-127 321v0v0zM616 1286c-56.667 0 -104.667 19.667 -144 59s-59 87.333 -59 144
c0 57.333 19.667 105.666 59 144.999s87.333 59 144 59c57.333 0 105.666 -19.667 144.999 -59s59 -87.666 59 -144.999c0 -56.667 -19.667 -104.667 -59 -144s-87.666 -59 -144.999 -59v0zM616 1409c22.667 0 41.834 7.66699 57.501 23s23.5 34.333 23.5 57
s-7.83301 41.834 -23.5 57.501s-34.834 23.5 -57.501 23.5s-41.667 -7.83301 -57 -23.5s-23 -34.834 -23 -57.501s7.66699 -41.667 23 -57s34.333 -23 57 -23v0z" />
    <glyph glyph-name="AE" unicode="&#xc6;" 
d="M629 0v314v0h-196v0l-47 -125h150v-189h-251h-252v189h128l308 793h-184v189h564v0h379v0v-195v-196h-152v174h-227v0v-249v0h18v101h151v-209v-210h-151v101h-18v0v-271v0h227v174h152v-195v-196v0h-379v0h-220zM629 830l-114 -299v0h114v0v299v0z" />
    <glyph glyph-name="Ccedilla" unicode="&#xc7;" 
d="M1160 161c-89.333 -66.667 -169.833 -114.002 -241.5 -142.002s-149.167 -42 -232.5 -42c-169.333 0 -308.166 57.333 -416.499 172s-162.5 262 -162.5 442c0 176.667 54.167 321.334 162.5 434.001s247.166 169 416.499 169c108 -0.666992 202.333 -25.667 283 -75v0v75
h191v0v-491v0h-191v0v199c-50 28.667 -95.167 48.334 -135.5 59.001s-89.5 16 -147.5 16c-105.333 0 -191.5 -36.167 -258.5 -108.5s-100.5 -165.5 -100.5 -279.5c0 -116 33.5 -210.833 100.5 -284.5s153.167 -110.5 258.5 -110.5c57.333 0 111.833 8.83301 163.5 26.5
s114.167 49.167 187.5 94.5zM758 -0.00195312l-0.999023 -48v0c43.333 -5.33301 76.666 -19.333 99.999 -42c28.667 -28 43 -70.333 43 -127c0 -61.333 -17.5 -111.333 -52.5 -150s-79.833 -58 -134.5 -58c-30.667 0 -58 4.33301 -82 13s-50 23.667 -78 45l57 94
c13.333 -9.33301 28.666 -16.833 45.999 -22.5s33.333 -8.5 48 -8.5c18.667 0 32.167 5.83301 40.5 17.5s12.5 30.167 12.5 55.5c0 20 -4.83301 34.833 -14.5 44.5s-24.5 14.5 -44.5 14.5c-12 0 -25.667 -2 -41 -6s-28.666 -9 -39.999 -15v0l18 193h123z" />
    <glyph glyph-name="Egrave" unicode="&#xc8;" 
d="M99 0v189h171v793h-171v189h391v0h637v0v-229v-230h-191v242h-446v0v-249v0h173v145h189v-253v-254h-189v145h-173v0v-271v0h446v242h191v-229v-230v0h-637v0h-391zM990 1294l-630 163l75 220l598 -258z" />
    <glyph glyph-name="Eacute" unicode="&#xc9;" 
d="M99 0v189h171v793h-171v189h391v0h637v0v-229v-230h-191v242h-446v0v-249v0h173v145h189v-253v-254h-189v145h-173v0v-271v0h446v242h191v-229v-230v0h-637v0h-391zM391 1418l587 256l75 -221l-620 -159z" />
    <glyph glyph-name="Ecircumflex" unicode="&#xca;" 
d="M99 0v189h171v793h-171v189h391v0h637v0v-229v-230h-191v242h-446v0v-249v0h173v145h189v-253v-254h-189v145h-173v0v-271v0h446v242h191v-229v-230v0h-637v0h-391zM768 1672l304 -290l-138 -88l-278 219v0l-278 -219l-138 88l304 290h112h112z" />
    <glyph glyph-name="Edieresis" unicode="&#xcb;" 
d="M99 0v189h171v793h-171v189h391v0h637v0v-229v-230h-191v242h-446v0v-249v0h173v145h189v-253v-254h-189v145h-173v0v-271v0h446v242h191v-229v-230v0h-637v0h-391zM369 1642h254v-305h-254v305zM689 1642h254v-305h-254v305z" />
    <glyph glyph-name="Igrave" unicode="&#xcc;" 
d="M539 189v793h-359v189h469h469v-189h-359v-793h359v-189h-469h-469v189h359zM983 1294l-630 163l75 220l598 -258z" />
    <glyph glyph-name="Iacute" unicode="&#xcd;" 
d="M539 189v793h-359v189h469h469v-189h-359v-793h359v-189h-469h-469v189h359zM384 1418l587 256l75 -221l-620 -159z" />
    <glyph glyph-name="Icircumflex" unicode="&#xce;" 
d="M539 189v793h-359v189h469h469v-189h-359v-793h359v-189h-469h-469v189h359zM761 1672l304 -290l-138 -88l-278 219v0l-278 -219l-138 88l304 290h112h112z" />
    <glyph glyph-name="Idieresis" unicode="&#xcf;" 
d="M539 189v793h-359v189h469h469v-189h-359v-793h359v-189h-469h-469v189h359zM362 1642h254v-305h-254v305zM682 1642h254v-305h-254v305z" />
    <glyph glyph-name="Eth" unicode="&#xd0;" 
d="M49 0l0.000976562 188.999h171v316v0h-130v162h130v0v315h-171v189h281v0h306c168.667 0 296.667 -49.333 384 -148s131 -242.667 131 -432c0 -193.333 -45.833 -340.166 -137.5 -440.499s-225.834 -150.5 -402.501 -150.5h-281v0h-281zM440.001 953.999v-287.001v0h196
v-162h-196v0v-288v0h171c110.667 0 191.667 29.833 243 89.5s77 153.834 77 282.501c0 126.667 -23.667 219.167 -71 277.5s-122 87.5 -224 87.5h-196z" />
    <glyph glyph-name="Ntilde" unicode="&#xd1;" 
d="M415 189h200v-189h-294h-294v189h171v793h-171v189h195h196v0l440 -751v0v0v562h-205v189h296h297v-189h-171v-982h-108h-108l-444 758v0v0v-569zM200 1335c28.667 92.667 67.335 164.167 116.002 214.5s103.667 75.5 165 75.5c40 0 76.833 -7.33301 110.5 -22
s68.834 -38.667 105.501 -72c18.667 -16.667 36.5 -29.667 53.5 -39s31.167 -14 42.5 -14c18.667 0 36.167 14.667 52.5 44s27.5 66 33.5 110l193 -56c-23.333 -96 -59.333 -170 -108 -222s-106.334 -78 -173.001 -78c-39.333 0 -77.333 7.83301 -114 23.5
s-76.667 41.5 -120 77.5c-16.667 14 -31.334 25 -44.001 33s-21.667 12 -27 12c-15.333 0 -30.833 -13.833 -46.5 -41.5s-27.834 -62.5 -36.501 -104.5z" />
    <glyph glyph-name="Ograve" unicode="&#xd2;" 
d="M614 -23c-158.667 0 -288.667 57.333 -390 172s-152 262 -152 442c0 176.667 50.667 321.334 152 434.001s231.333 169 390 169c159.333 0 289.5 -56.333 390.5 -169s151.5 -257.334 151.5 -434.001c0 -180 -50.5 -327.333 -151.5 -442s-231.167 -172 -390.5 -172v0z
M614 194c94.667 0 172 36.833 232 110.5s90 168.5 90 284.5c0 114 -30 207.167 -90 279.5s-137.333 108.5 -232 108.5s-172 -36.167 -232 -108.5s-90 -165.5 -90 -279.5c0 -116 30 -210.833 90 -284.5s137.333 -110.5 232 -110.5v0zM948 1294l-630 163l75 220l598 -258z" />
    <glyph glyph-name="Oacute" unicode="&#xd3;" 
d="M614 -23c-158.667 0 -288.667 57.333 -390 172s-152 262 -152 442c0 176.667 50.667 321.334 152 434.001s231.333 169 390 169c159.333 0 289.5 -56.333 390.5 -169s151.5 -257.334 151.5 -434.001c0 -180 -50.5 -327.333 -151.5 -442s-231.167 -172 -390.5 -172v0z
M614 194c94.667 0 172 36.833 232 110.5s90 168.5 90 284.5c0 114 -30 207.167 -90 279.5s-137.333 108.5 -232 108.5s-172 -36.167 -232 -108.5s-90 -165.5 -90 -279.5c0 -116 30 -210.833 90 -284.5s137.333 -110.5 232 -110.5v0zM349 1418l587 256l75 -221l-620 -159z
" />
    <glyph glyph-name="Ocircumflex" unicode="&#xd4;" 
d="M614 -23c-158.667 0 -288.667 57.333 -390 172s-152 262 -152 442c0 176.667 50.667 321.334 152 434.001s231.333 169 390 169c159.333 0 289.5 -56.333 390.5 -169s151.5 -257.334 151.5 -434.001c0 -180 -50.5 -327.333 -151.5 -442s-231.167 -172 -390.5 -172v0z
M614 194c94.667 0 172 36.833 232 110.5s90 168.5 90 284.5c0 114 -30 207.167 -90 279.5s-137.333 108.5 -232 108.5s-172 -36.167 -232 -108.5s-90 -165.5 -90 -279.5c0 -116 30 -210.833 90 -284.5s137.333 -110.5 232 -110.5v0zM726 1672l304 -290l-138 -88l-278 219v0
l-278 -219l-138 88l304 290h112h112z" />
    <glyph glyph-name="Otilde" unicode="&#xd5;" 
d="M614 -23c-158.667 0 -288.667 57.333 -390 172s-152 262 -152 442c0 176.667 50.667 321.334 152 434.001s231.333 169 390 169c159.333 0 289.5 -56.333 390.5 -169s151.5 -257.334 151.5 -434.001c0 -180 -50.5 -327.333 -151.5 -442s-231.167 -172 -390.5 -172v0z
M614 194c94.667 0 172 36.833 232 110.5s90 168.5 90 284.5c0 114 -30 207.167 -90 279.5s-137.333 108.5 -232 108.5s-172 -36.167 -232 -108.5s-90 -165.5 -90 -279.5c0 -116 30 -210.833 90 -284.5s137.333 -110.5 232 -110.5v0zM178 1335
c28.667 92.667 67.335 164.167 116.002 214.5s103.667 75.5 165 75.5c40 0 76.833 -7.33301 110.5 -22s68.834 -38.667 105.501 -72c18.667 -16.667 36.5 -29.667 53.5 -39s31.167 -14 42.5 -14c18.667 0 36.167 14.667 52.5 44s27.5 66 33.5 110l193 -56
c-23.333 -96 -59.333 -170 -108 -222s-106.334 -78 -173.001 -78c-39.333 0 -77.333 7.83301 -114 23.5s-76.667 41.5 -120 77.5c-16.667 14 -31.334 25 -44.001 33s-21.667 12 -27 12c-15.333 0 -30.833 -13.833 -46.5 -41.5s-27.834 -62.5 -36.501 -104.5z" />
    <glyph glyph-name="Odieresis" unicode="&#xd6;" 
d="M614 -23c-158.667 0 -288.667 57.333 -390 172s-152 262 -152 442c0 176.667 50.667 321.334 152 434.001s231.333 169 390 169c159.333 0 289.5 -56.333 390.5 -169s151.5 -257.334 151.5 -434.001c0 -180 -50.5 -327.333 -151.5 -442s-231.167 -172 -390.5 -172v0z
M614 194c94.667 0 172 36.833 232 110.5s90 168.5 90 284.5c0 114 -30 207.167 -90 279.5s-137.333 108.5 -232 108.5s-172 -36.167 -232 -108.5s-90 -165.5 -90 -279.5c0 -116 30 -210.833 90 -284.5s137.333 -110.5 232 -110.5v0zM327 1642h254v-305h-254v305zM647 1642
h254v-305h-254v305z" />
    <glyph glyph-name="multiply" unicode="&#xd7;" 
d="M613 306l-287 -288l-150 150l288 287l-288 287l150 150l287 -288l287 288l150 -150l-288 -287l288 -287l-150 -150z" />
    <glyph glyph-name="Oslash" unicode="&#xd8;" 
d="M614 434l-156 -198c45.333 -28 97.333 -42 156 -42v0c94.667 0 172 36.833 232 110.5s90 168.5 90 284.5c0 75.333 -13.333 142.333 -40 201zM614 -23c-112 0 -209.667 28.332 -293 84.999l-77 -97l-151 103l98 123c-80 108 -119.667 241.333 -119 400
c0 176.667 50.667 321.334 152 434.001s231.333 169 390 169c116 0 216 -29.667 300 -89l70 89l151 -103l-91 -115c74.667 -104.667 112 -233 112 -385c0 -180 -50.5 -327.333 -151.5 -442s-231.167 -172 -390.5 -172v0zM614 976.999
c-94.667 0 -172.001 -36.167 -232.001 -108.5s-90 -165.5 -90 -279.5c0.666992 -80.667 15 -152.667 43 -216l279 352l163 206c-47.333 30.667 -101.666 46 -162.999 46z" />
    <glyph glyph-name="Ugrave" unicode="&#xd9;" 
d="M1062 406c0 -144.667 -35.168 -252.334 -105.501 -323.001s-177.833 -106 -322.5 -106s-252.334 35.333 -323.001 106s-106 178.334 -106 323.001v576h-171v189h270h271v-189h-150v-578c0 -70.667 17.333 -123.334 52 -158.001s87.334 -52 158.001 -52
s123.334 17.333 158.001 52s52 87.334 52 158.001v578h-171v189h275h275v-189h-162v-576zM967.999 1294l-630 163l75 220l598 -258z" />
    <glyph glyph-name="Uacute" unicode="&#xda;" 
d="M1062 406c0 -144.667 -35.168 -252.334 -105.501 -323.001s-177.833 -106 -322.5 -106s-252.334 35.333 -323.001 106s-106 178.334 -106 323.001v576h-171v189h270h271v-189h-150v-578c0 -70.667 17.333 -123.334 52 -158.001s87.334 -52 158.001 -52
s123.334 17.333 158.001 52s52 87.334 52 158.001v578h-171v189h275h275v-189h-162v-576zM368.999 1418l587 256l75 -221l-620 -159z" />
    <glyph glyph-name="Ucircumflex" unicode="&#xdb;" 
d="M1062 406c0 -144.667 -35.168 -252.334 -105.501 -323.001s-177.833 -106 -322.5 -106s-252.334 35.333 -323.001 106s-106 178.334 -106 323.001v576h-171v189h270h271v-189h-150v-578c0 -70.667 17.333 -123.334 52 -158.001s87.334 -52 158.001 -52
s123.334 17.333 158.001 52s52 87.334 52 158.001v578h-171v189h275h275v-189h-162v-576zM745.999 1672l304 -290l-138 -88l-278 219v0l-278 -219l-138 88l304 290h112h112z" />
    <glyph glyph-name="Udieresis" unicode="&#xdc;" 
d="M1062 406c0 -144.667 -35.168 -252.334 -105.501 -323.001s-177.833 -106 -322.5 -106s-252.334 35.333 -323.001 106s-106 178.334 -106 323.001v576h-171v189h270h271v-189h-150v-578c0 -70.667 17.333 -123.334 52 -158.001s87.334 -52 158.001 -52
s123.334 17.333 158.001 52s52 87.334 52 158.001v578h-171v189h275h275v-189h-162v-576zM346.999 1642h254v-305h-254v305zM666.999 1642h254v-305h-254v305z" />
    <glyph glyph-name="Yacute" unicode="&#xdd;" 
d="M511 455l-305 527h-161v189h256h256v-189h-107l176 -327v0l191 327h-131v189h258h259v-189h-153l-319 -513v0v-280h273v-189h-374h-375v189h256v266zM367 1418l587 256l75 -221l-620 -159z" />
    <glyph glyph-name="Thorn" unicode="&#xde;" 
d="M293 189v793h-273v189h383h383v-189h-273v-87v0h217c146.667 0 256.5 -25.5 329.5 -76.5s109.5 -127.833 109.5 -230.5c0 -104.667 -36.5 -183 -109.5 -235s-182.833 -78 -329.5 -78h-217v0v-86h273v-189h-383h-383v189h273zM949 585c0 35.333 -15.667 59.668 -47 73.001
s-88.333 20 -171 20h-218v0v-186v0h218c82.667 0 139.667 6.66699 171 20s47 37.666 47 72.999z" />
    <glyph glyph-name="germandbls" unicode="&#xdf;" 
d="M433 1012l-0.00292969 -1012.01v0h-189h-189v189h160v519v0h-134v217h134v0v87c0 112 30 191.333 90 238s161.333 70 304 70c150 0 254.333 -22.167 313 -66.5s88 -122.833 88 -235.5c0 -55.333 -14.167 -102.166 -42.5 -140.499s-77.833 -77.5 -148.5 -117.5
c-33.333 -19.333 -54.666 -33.5 -63.999 -42.5s-14 -19.833 -14 -32.5c0 -17.333 9.33301 -32.666 28 -45.999s58.667 -32.666 120 -57.999c123.333 -51.333 202.333 -95 237 -131s52 -92.333 52 -169c0 -89.333 -35.167 -162.333 -105.5 -219s-160.5 -85 -270.5 -85
c-60 0 -113 7.16699 -159 21.5s-97.333 39.5 -154 75.5l123 154c41.333 -13.333 72.833 -22.333 94.5 -27s42.834 -7 63.501 -7c62 0 109 7.83301 141 23.5s48 38.834 48 69.501c0 16.667 -10.167 32 -30.5 46s-59.5 33.333 -117.5 58c-104 42.667 -178.167 87 -222.5 133
s-66.5 101.667 -66.5 167c0 54 14.167 99.833 42.5 137.5s77.833 76.834 148.5 117.501c28.667 16.667 48.834 30.334 60.501 41.001s17.5 21.334 17.5 32.001c0 31.333 -15 53.166 -45 65.499s-83.333 18.5 -160 18.5c-57.333 0 -97.333 -6.66699 -120 -20
c-22 -13.333 -33 -37 -33 -71z" />
    <glyph glyph-name="agrave" unicode="&#xe0;" 
d="M471 -23c-99.333 0 -183.17 29.001 -251.503 87.001s-102.5 129 -102.5 213c0 102 43.667 183 131 243s205.333 90 354 90c60.667 0 118.667 -5 174 -15v0v14c0 39.333 -15.333 69.5 -46 90.5s-74.667 31.5 -132 31.5c-45.333 0 -96.166 -6.33301 -152.499 -19
s-114.166 -31 -173.499 -55l-85 189c94.667 39.333 170.667 66.166 228 80.499s117.333 21.5 180 21.5c136.667 0 237.334 -27.5 302.001 -82.5s97 -140.5 97 -256.5v-420h165v-189h-191h-192v0v81v0c-22.667 -16 -46.667 -31 -72 -45c-74 -39.333 -151.667 -59 -233 -59z
M775.996 333.001v40.001v0c-2.66699 5.33301 -29 10 -79 14s-97 6 -141 6c-64 0 -116.5 -10.167 -157.5 -30.5s-61.5 -46.5 -61.5 -78.5c0 -26.667 14.333 -48.334 43 -65.001s65.334 -25 110.001 -25c40.667 0 91.167 14.667 151.5 44s105.166 61 134.499 95v0z
M915.996 1048l-630 163l75 220l598 -258z" />
    <glyph glyph-name="aacute" unicode="&#xe1;" 
d="M471 -23c-99.333 0 -183.17 29.001 -251.503 87.001s-102.5 129 -102.5 213c0 102 43.667 183 131 243s205.333 90 354 90c60.667 0 118.667 -5 174 -15v0v14c0 39.333 -15.333 69.5 -46 90.5s-74.667 31.5 -132 31.5c-45.333 0 -96.166 -6.33301 -152.499 -19
s-114.166 -31 -173.499 -55l-85 189c94.667 39.333 170.667 66.166 228 80.499s117.333 21.5 180 21.5c136.667 0 237.334 -27.5 302.001 -82.5s97 -140.5 97 -256.5v-420h165v-189h-191h-192v0v81v0c-22.667 -16 -46.667 -31 -72 -45c-74 -39.333 -151.667 -59 -233 -59z
M775.996 333.001v40.001v0c-2.66699 5.33301 -29 10 -79 14s-97 6 -141 6c-64 0 -116.5 -10.167 -157.5 -30.5s-61.5 -46.5 -61.5 -78.5c0 -26.667 14.333 -48.334 43 -65.001s65.334 -25 110.001 -25c40.667 0 91.167 14.667 151.5 44s105.166 61 134.499 95v0z
M316.996 1172l587 256l75 -221l-620 -159z" />
    <glyph glyph-name="acircumflex" unicode="&#xe2;" 
d="M471 -23c-99.333 0 -183.17 29.001 -251.503 87.001s-102.5 129 -102.5 213c0 102 43.667 183 131 243s205.333 90 354 90c60.667 0 118.667 -5 174 -15v0v14c0 39.333 -15.333 69.5 -46 90.5s-74.667 31.5 -132 31.5c-45.333 0 -96.166 -6.33301 -152.499 -19
s-114.166 -31 -173.499 -55l-85 189c94.667 39.333 170.667 66.166 228 80.499s117.333 21.5 180 21.5c136.667 0 237.334 -27.5 302.001 -82.5s97 -140.5 97 -256.5v-420h165v-189h-191h-192v0v81v0c-22.667 -16 -46.667 -31 -72 -45c-74 -39.333 -151.667 -59 -233 -59z
M775.996 333.001v40.001v0c-2.66699 5.33301 -29 10 -79 14s-97 6 -141 6c-64 0 -116.5 -10.167 -157.5 -30.5s-61.5 -46.5 -61.5 -78.5c0 -26.667 14.333 -48.334 43 -65.001s65.334 -25 110.001 -25c40.667 0 91.167 14.667 151.5 44s105.166 61 134.499 95v0z
M693.996 1426l304 -290l-138 -88l-278 219v0l-278 -219l-138 88l304 290h112h112z" />
    <glyph glyph-name="atilde" unicode="&#xe3;" 
d="M471 -23c-99.333 0 -183.17 29.001 -251.503 87.001s-102.5 129 -102.5 213c0 102 43.667 183 131 243s205.333 90 354 90c60.667 0 118.667 -5 174 -15v0v14c0 39.333 -15.333 69.5 -46 90.5s-74.667 31.5 -132 31.5c-45.333 0 -96.166 -6.33301 -152.499 -19
s-114.166 -31 -173.499 -55l-85 189c94.667 39.333 170.667 66.166 228 80.499s117.333 21.5 180 21.5c136.667 0 237.334 -27.5 302.001 -82.5s97 -140.5 97 -256.5v-420h165v-189h-191h-192v0v81v0c-22.667 -16 -46.667 -31 -72 -45c-74 -39.333 -151.667 -59 -233 -59z
M775.996 333.001v40.001v0c-2.66699 5.33301 -29 10 -79 14s-97 6 -141 6c-64 0 -116.5 -10.167 -157.5 -30.5s-61.5 -46.5 -61.5 -78.5c0 -26.667 14.333 -48.334 43 -65.001s65.334 -25 110.001 -25c40.667 0 91.167 14.667 151.5 44s105.166 61 134.499 95v0z
M144.996 1109c29.333 96 67.8301 167.83 115.497 215.497s104.834 71.5 171.501 71.5c38.667 0 75.167 -7.66699 109.5 -23s70.833 -40 109.5 -74c16.667 -14.667 32.667 -26.167 48 -34.5s28.333 -12.5 39 -12.5c18.667 0 36.334 14.333 53.001 43
s28.334 64.667 35.001 108l193 -56c-25.333 -99.333 -61.833 -173.666 -109.5 -222.999s-106.834 -74 -177.501 -74c-41.333 0 -79.166 7.33301 -113.499 22s-69.5 38.334 -105.5 71.001c-20 18 -37.167 32 -51.5 42s-24.5 15 -30.5 15c-16 0 -31.833 -14.167 -47.5 -42.5
s-27.5 -64.166 -35.5 -107.499z" />
    <glyph glyph-name="adieresis" unicode="&#xe4;" 
d="M471 -23c-99.333 0 -183.17 29.001 -251.503 87.001s-102.5 129 -102.5 213c0 102 43.667 183 131 243s205.333 90 354 90c60.667 0 118.667 -5 174 -15v0v14c0 39.333 -15.333 69.5 -46 90.5s-74.667 31.5 -132 31.5c-45.333 0 -96.166 -6.33301 -152.499 -19
s-114.166 -31 -173.499 -55l-85 189c94.667 39.333 170.667 66.166 228 80.499s117.333 21.5 180 21.5c136.667 0 237.334 -27.5 302.001 -82.5s97 -140.5 97 -256.5v-420h165v-189h-191h-192v0v81v0c-22.667 -16 -46.667 -31 -72 -45c-74 -39.333 -151.667 -59 -233 -59z
M775.996 333.001v40.001v0c-2.66699 5.33301 -29 10 -79 14s-97 6 -141 6c-64 0 -116.5 -10.167 -157.5 -30.5s-61.5 -46.5 -61.5 -78.5c0 -26.667 14.333 -48.334 43 -65.001s65.334 -25 110.001 -25c40.667 0 91.167 14.667 151.5 44s105.166 61 134.499 95v0z
M293.996 1396h254v-305h-254v305zM614.996 1396h254v-305h-254v305z" />
    <glyph glyph-name="aring" unicode="&#xe5;" 
d="M471 -23c-99.333 0 -183.17 29.001 -251.503 87.001s-102.5 129 -102.5 213c0 102 43.667 183 131 243s205.333 90 354 90c60.667 0 118.667 -5 174 -15v0v14c0 39.333 -15.333 69.5 -46 90.5s-74.667 31.5 -132 31.5c-45.333 0 -96.166 -6.33301 -152.499 -19
s-114.166 -31 -173.499 -55l-85 189c94.667 39.333 170.667 66.166 228 80.499s117.333 21.5 180 21.5c136.667 0 237.334 -27.5 302.001 -82.5s97 -140.5 97 -256.5v-420h165v-189h-191h-192v0v81v0c-22.667 -16 -46.667 -31 -72 -45c-74 -39.333 -151.667 -59 -233 -59z
M775.996 333.001v40.001v0c-2.66699 5.33301 -29 10 -79 14s-97 6 -141 6c-64 0 -116.5 -10.167 -157.5 -30.5s-61.5 -46.5 -61.5 -78.5c0 -26.667 14.333 -48.334 43 -65.001s65.334 -25 110.001 -25c40.667 0 91.167 14.667 151.5 44s105.166 61 134.499 95v0z
M581.996 1079c-59.333 0 -109.333 20.333 -150 61s-61 90.667 -61 150s20.333 109.5 61 150.5s90.667 61.5 150 61.5s109.5 -20.5 150.5 -61.5s61.5 -91.167 61.5 -150.5s-20.5 -109.333 -61.5 -150s-91.167 -61 -150.5 -61v0zM581.996 1202c24.667 0 45.667 8.5 63 25.5
s26 37.833 26 62.5s-8.66699 45.667 -26 63s-38.333 26 -63 26s-45.5 -8.66699 -62.5 -26s-25.5 -38.333 -25.5 -63s8.5 -45.5 25.5 -62.5s37.833 -25.5 62.5 -25.5v0z" />
    <glyph glyph-name="ae" unicode="&#xe6;" 
d="M404 948c92.667 0 161.005 -27.667 205.005 -83c8.66699 -11.333 16.667 -24 24 -38v0c66.667 80.667 150 121 250 121c94.667 0 172.167 -41.167 232.5 -123.5s90.5 -188.5 90.5 -318.5c0 -45.333 -2.66699 -88.333 -8 -129v0h-449v0c4.66699 -52.667 18 -94 40 -124
c28 -39.333 70.667 -59 128 -59c34 0 63.667 3.33301 89 10s73.333 24 144 52l71 -210c-42 -22 -90.167 -39 -144.5 -51s-110.833 -18 -169.5 -18c-118 0 -214.667 41.333 -290 124l-13 15v0c-19.333 -24 -43 -46.333 -71 -67c-66.667 -48 -143 -72 -229 -72
c-78.667 0 -145.167 27.333 -199.5 82s-81.5 121.667 -81.5 201c0 102 36 184.333 108 247s166.667 94 284 94c21.333 0.666992 41.666 -0.333008 60.999 -3v0v11c0 39.333 -6.5 69.5 -19.5 90.5s-31.833 31.5 -56.5 31.5c-42.667 0 -87.334 -6.66699 -134.001 -20
s-88.334 -31 -125.001 -53l-66 216c85.333 28.667 150.666 48.167 195.999 58.5s89.666 15.5 132.999 15.5zM476.005 288l-0.000976562 93.001v0c-16.667 2.66699 -44.667 3.66699 -84 3c-44 0 -79.833 -9.66699 -107.5 -29s-41.5 -44.333 -41.5 -75
c0 -28 7.5 -49.333 22.5 -64s36.833 -22 65.5 -22c24.667 0 54.334 13 89.001 39c24 17.333 42.667 35.666 56 54.999v0zM982.004 564.001c-4 48.667 -11.667 85 -23 109c-17.333 38.667 -48.333 58 -93 58c-42.667 0 -73.334 -23.667 -92.001 -71
c-9.33301 -23.333 -16.666 -55.333 -21.999 -96v0h230z" />
    <glyph glyph-name="ccedilla" unicode="&#xe7;" 
d="M1113 167c-90.667 -70 -173.831 -119.168 -249.498 -147.501s-161.834 -42.5 -258.501 -42.5c-142 0 -258.167 45.667 -348.5 137s-135.5 209 -135.5 353c0 141.333 48 256.833 144 346.5s219.667 134.5 371 134.5c81.333 0 155 -10.333 221 -31v0v31h187v0v-411v0h-187
v0v166c-48.667 11.333 -87.167 18.833 -115.5 22.5s-63.166 5.5 -104.499 5.5c-86.667 0 -157.667 -24.833 -213 -74.5s-83 -113.5 -83 -191.5c0 -79.333 27.667 -144.166 83 -194.499s126.333 -75.5 213 -75.5c73.333 0 134.666 9.83301 183.999 29.5
s106.666 57.5 171.999 113.5zM667.003 -0.000976562l-0.999023 -48v0c42.667 -5.33301 75.667 -19.333 99 -42c28.667 -28 43 -70.333 43 -127c0 -61.333 -17.333 -111.333 -52 -150s-79.334 -58 -134.001 -58c-30 0 -57 4.33301 -81 13s-50 23.667 -78 45l57 94
c12.667 -9.33301 27.667 -16.833 45 -22.5s33.333 -8.5 48 -8.5c18 0 31.167 5.83301 39.5 17.5s12.5 30.167 12.5 55.5c0 20 -4.83301 34.833 -14.5 44.5s-24.167 14.5 -43.5 14.5c-12 0 -25.333 -2 -40 -6s-28 -9 -40 -15v0l17 193h123z" />
    <glyph glyph-name="egrave" unicode="&#xe8;" 
d="M645 -23c-151.333 0 -275.168 45.666 -371.501 136.999s-144.5 209 -144.5 353c0 141.333 49.5 256.833 148.5 346.5s226.5 134.5 382.5 134.5c132.667 0 241.334 -44.833 326.001 -134.5s127 -205.167 127 -346.5c0 -30.667 -2 -60.667 -6 -90v0h-759v0
c12 -47.333 35.667 -86 71 -116c54 -44.667 135 -67 243 -67c74.667 0 140.667 8.33301 198 25s124 46.667 200 90l94 -179c-77.333 -47.333 -161.5 -84.666 -252.5 -111.999s-176.5 -41 -256.5 -41zM909.998 563.999c-12.667 35.333 -34 66.334 -64 93.001
c-55.333 49.333 -126.333 74 -213 74s-157.667 -25 -213 -75c-28.667 -26.667 -50.667 -57.334 -66 -92.001v0h556zM990.998 1048l-630 163l75 220l598 -258z" />
    <glyph glyph-name="eacute" unicode="&#xe9;" 
d="M645 -23c-151.333 0 -275.168 45.666 -371.501 136.999s-144.5 209 -144.5 353c0 141.333 49.5 256.833 148.5 346.5s226.5 134.5 382.5 134.5c132.667 0 241.334 -44.833 326.001 -134.5s127 -205.167 127 -346.5c0 -30.667 -2 -60.667 -6 -90v0h-759v0
c12 -47.333 35.667 -86 71 -116c54 -44.667 135 -67 243 -67c74.667 0 140.667 8.33301 198 25s124 46.667 200 90l94 -179c-77.333 -47.333 -161.5 -84.666 -252.5 -111.999s-176.5 -41 -256.5 -41zM909.998 563.999c-12.667 35.333 -34 66.334 -64 93.001
c-55.333 49.333 -126.333 74 -213 74s-157.667 -25 -213 -75c-28.667 -26.667 -50.667 -57.334 -66 -92.001v0h556zM391.998 1172l587 256l75 -221l-620 -159z" />
    <glyph glyph-name="ecircumflex" unicode="&#xea;" 
d="M645 -23c-151.333 0 -275.168 45.666 -371.501 136.999s-144.5 209 -144.5 353c0 141.333 49.5 256.833 148.5 346.5s226.5 134.5 382.5 134.5c132.667 0 241.334 -44.833 326.001 -134.5s127 -205.167 127 -346.5c0 -30.667 -2 -60.667 -6 -90v0h-759v0
c12 -47.333 35.667 -86 71 -116c54 -44.667 135 -67 243 -67c74.667 0 140.667 8.33301 198 25s124 46.667 200 90l94 -179c-77.333 -47.333 -161.5 -84.666 -252.5 -111.999s-176.5 -41 -256.5 -41zM909.998 563.999c-12.667 35.333 -34 66.334 -64 93.001
c-55.333 49.333 -126.333 74 -213 74s-157.667 -25 -213 -75c-28.667 -26.667 -50.667 -57.334 -66 -92.001v0h556zM768.998 1426l304 -290l-138 -88l-278 219v0l-278 -219l-138 88l304 290h112h112z" />
    <glyph glyph-name="edieresis" unicode="&#xeb;" 
d="M645 -23c-151.333 0 -275.168 45.666 -371.501 136.999s-144.5 209 -144.5 353c0 141.333 49.5 256.833 148.5 346.5s226.5 134.5 382.5 134.5c132.667 0 241.334 -44.833 326.001 -134.5s127 -205.167 127 -346.5c0 -30.667 -2 -60.667 -6 -90v0h-759v0
c12 -47.333 35.667 -86 71 -116c54 -44.667 135 -67 243 -67c74.667 0 140.667 8.33301 198 25s124 46.667 200 90l94 -179c-77.333 -47.333 -161.5 -84.666 -252.5 -111.999s-176.5 -41 -256.5 -41zM909.998 563.999c-12.667 35.333 -34 66.334 -64 93.001
c-55.333 49.333 -126.333 74 -213 74s-157.667 -25 -213 -75c-28.667 -26.667 -50.667 -57.334 -66 -92.001v0h556zM368.998 1396h254v-305h-254v305zM689.998 1396h254v-305h-254v305z" />
    <glyph glyph-name="igrave" unicode="&#xec;" 
d="M543 189v547h-304v189h233h234h55v-736h363v-189h-472h-472v189h363zM986 1048l-630 163l75 220l598 -258z" />
    <glyph glyph-name="iacute" unicode="&#xed;" 
d="M543 189v547h-304v189h233h234h55v-736h363v-189h-472h-472v189h363zM387 1172l587 256l75 -221l-620 -159z" />
    <glyph glyph-name="icircumflex" unicode="&#xee;" 
d="M543 189v547h-304v189h233h234h55v-736h363v-189h-472h-472v189h363zM764 1426l304 -290l-138 -88l-278 219v0l-278 -219l-138 88l304 290h112h112z" />
    <glyph glyph-name="idieresis" unicode="&#xef;" 
d="M543 189v547h-304v189h233h234h55v-736h363v-189h-472h-472v189h363zM364 1396h254v-305h-254v305zM685 1396h254v-305h-254v305z" />
    <glyph glyph-name="eth" unicode="&#xf0;" 
d="M617 -23c-148.667 0 -270.167 44.333 -364.5 133s-141.5 202.667 -141.5 342c0 137.333 47.167 249.5 141.5 336.5s215.833 130.5 364.5 130.5c64 0.666992 123.333 -7.66602 178 -24.999v0c-17.333 28.667 -36.333 55 -57 79c-35.333 41.333 -75 78.666 -119 111.999
l-226 -130l-71 139l141 81c-62 28 -130.667 51 -206 69l107 121c96 -22.667 183.667 -54.667 263 -96l265 152l71 -139l-186 -107c52 -39.333 99.333 -84 142 -134c136 -159.333 204 -347 204 -563c0 -150 -46.333 -271 -139 -363s-215 -138 -367 -138zM331 450
c0 -75.333 26.667 -136.833 80 -184.5s122 -71.5 206 -71.5s152.667 23.833 206 71.5s80 109.167 80 184.5c0 74 -26.667 134.5 -80 181.5s-122 70.5 -206 70.5s-152.667 -23.667 -206 -71c-53.333 -46.667 -80 -107 -80 -181z" />
    <glyph glyph-name="ntilde" unicode="&#xf1;" 
d="M218 189l-0.000976562 547h-169v189h160h161h55v-52v0v0l47 22c75.333 35.333 150.333 53 225 53c102.667 0 181.334 -23 236.001 -69s82 -112 82 -198v-492h165v-189h-257h-258v189h132v432c0 40 -9 68.167 -27 84.5s-49.333 24.5 -94 24.5
c-51.333 0 -101.333 -10.667 -150 -32c-30.667 -13.333 -60.667 -31 -90 -53v0v-456h132v-189h-257h-258v189h165zM178.999 1109c29.333 96 67.8301 167.83 115.497 215.497s104.834 71.5 171.501 71.5c38.667 0 75.167 -7.66699 109.5 -23s70.833 -40 109.5 -74
c16.667 -14.667 32.667 -26.167 48 -34.5s28.333 -12.5 39 -12.5c18.667 0 36.334 14.333 53.001 43s28.334 64.667 35.001 108l193 -56c-25.333 -99.333 -61.833 -173.666 -109.5 -222.999s-106.834 -74 -177.501 -74c-41.333 0 -79.166 7.33301 -113.499 22
s-69.5 38.334 -105.5 71.001c-20 18 -37.167 32 -51.5 42s-24.5 15 -30.5 15c-16 0 -31.833 -14.167 -47.5 -42.5s-27.5 -64.166 -35.5 -107.499z" />
    <glyph glyph-name="ograve" unicode="&#xf2;" 
d="M613 -23c-153.333 0 -278.833 45.667 -376.5 137s-146.5 209 -146.5 353c0 141.333 48.833 256.833 146.5 346.5s223.167 134.5 376.5 134.5c154 0 279.833 -44.833 377.5 -134.5s146.5 -205.167 146.5 -346.5c0 -144 -48.833 -261.667 -146.5 -353
s-223.5 -137 -377.5 -137v0zM613 194c89.333 0 162.333 25.333 219 76s85 115.667 85 195c0 78 -28.333 141.833 -85 191.5s-129.667 74.5 -219 74.5c-88.667 0 -161.334 -24.833 -218.001 -74.5s-85 -113.5 -85 -191.5c0 -79.333 28.333 -144.333 85 -195
s129.334 -76 218.001 -76v0zM947 1048l-630 163l75 220l598 -258z" />
    <glyph glyph-name="oacute" unicode="&#xf3;" 
d="M613 -23c-153.333 0 -278.833 45.667 -376.5 137s-146.5 209 -146.5 353c0 141.333 48.833 256.833 146.5 346.5s223.167 134.5 376.5 134.5c154 0 279.833 -44.833 377.5 -134.5s146.5 -205.167 146.5 -346.5c0 -144 -48.833 -261.667 -146.5 -353
s-223.5 -137 -377.5 -137v0zM613 194c89.333 0 162.333 25.333 219 76s85 115.667 85 195c0 78 -28.333 141.833 -85 191.5s-129.667 74.5 -219 74.5c-88.667 0 -161.334 -24.833 -218.001 -74.5s-85 -113.5 -85 -191.5c0 -79.333 28.333 -144.333 85 -195
s129.334 -76 218.001 -76v0zM348 1172l587 256l75 -221l-620 -159z" />
    <glyph glyph-name="ocircumflex" unicode="&#xf4;" 
d="M613 -23c-153.333 0 -278.833 45.667 -376.5 137s-146.5 209 -146.5 353c0 141.333 48.833 256.833 146.5 346.5s223.167 134.5 376.5 134.5c154 0 279.833 -44.833 377.5 -134.5s146.5 -205.167 146.5 -346.5c0 -144 -48.833 -261.667 -146.5 -353
s-223.5 -137 -377.5 -137v0zM613 194c89.333 0 162.333 25.333 219 76s85 115.667 85 195c0 78 -28.333 141.833 -85 191.5s-129.667 74.5 -219 74.5c-88.667 0 -161.334 -24.833 -218.001 -74.5s-85 -113.5 -85 -191.5c0 -79.333 28.333 -144.333 85 -195
s129.334 -76 218.001 -76v0zM725 1426l304 -290l-138 -88l-278 219v0l-278 -219l-138 88l304 290h112h112z" />
    <glyph glyph-name="otilde" unicode="&#xf5;" 
d="M613 -23c-153.333 0 -278.833 45.667 -376.5 137s-146.5 209 -146.5 353c0 141.333 48.833 256.833 146.5 346.5s223.167 134.5 376.5 134.5c154 0 279.833 -44.833 377.5 -134.5s146.5 -205.167 146.5 -346.5c0 -144 -48.833 -261.667 -146.5 -353
s-223.5 -137 -377.5 -137v0zM613 194c89.333 0 162.333 25.333 219 76s85 115.667 85 195c0 78 -28.333 141.833 -85 191.5s-129.667 74.5 -219 74.5c-88.667 0 -161.334 -24.833 -218.001 -74.5s-85 -113.5 -85 -191.5c0 -79.333 28.333 -144.333 85 -195
s129.334 -76 218.001 -76v0zM176 1109c29.333 96 67.8301 167.83 115.497 215.497s104.834 71.5 171.501 71.5c38.667 0 75.167 -7.66699 109.5 -23s70.833 -40 109.5 -74c16.667 -14.667 32.667 -26.167 48 -34.5s28.333 -12.5 39 -12.5c18.667 0 36.334 14.333 53.001 43
s28.334 64.667 35.001 108l193 -56c-25.333 -99.333 -61.833 -173.666 -109.5 -222.999s-106.834 -74 -177.501 -74c-41.333 0 -79.166 7.33301 -113.499 22s-69.5 38.334 -105.5 71.001c-20 18 -37.167 32 -51.5 42s-24.5 15 -30.5 15c-16 0 -31.833 -14.167 -47.5 -42.5
s-27.5 -64.166 -35.5 -107.499z" />
    <glyph glyph-name="odieresis" unicode="&#xf6;" 
d="M613 -23c-153.333 0 -278.833 45.667 -376.5 137s-146.5 209 -146.5 353c0 141.333 48.833 256.833 146.5 346.5s223.167 134.5 376.5 134.5c154 0 279.833 -44.833 377.5 -134.5s146.5 -205.167 146.5 -346.5c0 -144 -48.833 -261.667 -146.5 -353
s-223.5 -137 -377.5 -137v0zM613 194c89.333 0 162.333 25.333 219 76s85 115.667 85 195c0 78 -28.333 141.833 -85 191.5s-129.667 74.5 -219 74.5c-88.667 0 -161.334 -24.833 -218.001 -74.5s-85 -113.5 -85 -191.5c0 -79.333 28.333 -144.333 85 -195
s129.334 -76 218.001 -76v0zM325 1396h254v-305h-254v305zM646 1396h254v-305h-254v305z" />
    <glyph glyph-name="divide" unicode="&#xf7;" 
d="M618 231c28.667 0 52.834 -9.83301 72.501 -29.5s29.5 -43.834 29.5 -72.501s-9.83301 -52.834 -29.5 -72.501s-43.834 -29.5 -72.501 -29.5s-52.834 9.83301 -72.501 29.5s-29.5 43.834 -29.5 72.501s9.83301 52.834 29.5 72.501s43.834 29.5 72.501 29.5zM188 560h860
v-220h-860v220zM618 873c28.667 0 52.834 -9.83301 72.501 -29.5s29.5 -43.834 29.5 -72.501s-9.83301 -52.834 -29.5 -72.501s-43.834 -29.5 -72.501 -29.5s-52.834 9.83301 -72.501 29.5s-29.5 43.834 -29.5 72.501s9.83301 52.834 29.5 72.501s43.834 29.5 72.501 29.5z
" />
    <glyph glyph-name="oslash" unicode="&#xf8;" 
d="M614 333l-122.001 -120c36.667 -12 77.334 -18.333 122.001 -19v0c89.333 0 162.333 25.333 219 76s85 115.667 85 195c0 50.667 -11.667 95 -35 133zM613.999 -23c-110 0 -206.666 23.665 -289.999 70.998l-95 -94l-138 114l98 97
c-65.333 82.667 -98 183.334 -98 302.001c0 141.333 48.833 256.833 146.5 346.5s223.167 134.5 376.5 134.5c113.333 0.666992 212 -24 296 -74l89 88l138 -114l-93 -92c63.333 -79.333 94.666 -175.666 93.999 -288.999c0 -144 -48.833 -261.667 -146.5 -353
s-223.5 -137 -377.5 -137v0zM614 730.998c-88.667 0 -161.334 -24.833 -218.001 -74.5s-85 -113.5 -85 -191.5c0.666992 -53.333 13.334 -101 38.001 -143l265 261l129 127c-38.667 14 -81.667 21 -129 21z" />
    <glyph glyph-name="ugrave" unicode="&#xf9;" 
d="M430 925v-622c0 -35.333 10.333 -62.333 31 -81s50.667 -28 90 -28c51.333 0 101.333 10.667 150 32c31.333 13.333 61.333 31.333 90 54v0v456h-169v189h166h166h55v-736h165v-189h-186h-186v0v47v0v0l-35 -18c-68 -35.333 -132.333 -53 -193 -53
c-116.667 0 -206.167 26.167 -268.5 78.5s-93.5 127.5 -93.5 225.5v456h-169v189h166h166h55zM944 1048l-630 163l75 220l598 -258z" />
    <glyph glyph-name="uacute" unicode="&#xfa;" 
d="M430 925v-622c0 -35.333 10.333 -62.333 31 -81s50.667 -28 90 -28c51.333 0 101.333 10.667 150 32c31.333 13.333 61.333 31.333 90 54v0v456h-169v189h166h166h55v-736h165v-189h-186h-186v0v47v0v0l-35 -18c-68 -35.333 -132.333 -53 -193 -53
c-116.667 0 -206.167 26.167 -268.5 78.5s-93.5 127.5 -93.5 225.5v456h-169v189h166h166h55zM345 1172l587 256l75 -221l-620 -159z" />
    <glyph glyph-name="ucircumflex" unicode="&#xfb;" 
d="M430 925v-622c0 -35.333 10.333 -62.333 31 -81s50.667 -28 90 -28c51.333 0 101.333 10.667 150 32c31.333 13.333 61.333 31.333 90 54v0v456h-169v189h166h166h55v-736h165v-189h-186h-186v0v47v0v0l-35 -18c-68 -35.333 -132.333 -53 -193 -53
c-116.667 0 -206.167 26.167 -268.5 78.5s-93.5 127.5 -93.5 225.5v456h-169v189h166h166h55zM722 1426l304 -290l-138 -88l-278 219v0l-278 -219l-138 88l304 290h112h112z" />
    <glyph glyph-name="udieresis" unicode="&#xfc;" 
d="M430 925v-622c0 -35.333 10.333 -62.333 31 -81s50.667 -28 90 -28c51.333 0 101.333 10.667 150 32c31.333 13.333 61.333 31.333 90 54v0v456h-169v189h166h166h55v-736h165v-189h-186h-186v0v47v0v0l-35 -18c-68 -35.333 -132.333 -53 -193 -53
c-116.667 0 -206.167 26.167 -268.5 78.5s-93.5 127.5 -93.5 225.5v456h-169v189h166h166h55zM322 1396h254v-305h-254v305zM643 1396h254v-305h-254v305z" />
    <glyph glyph-name="yacute" unicode="&#xfd;" 
d="M1068 736l-528 -926h152v-189h-306h-307v189h234l163 288v0l-306 638h-160v189h251h251v-189h-103l193 -413v0v0l232 413h-94v189h245h245v-189h-162zM402 1172l587 256l75 -221l-620 -159z" />
    <glyph glyph-name="thorn" unicode="&#xfe;" 
d="M195 1087h-172v189h167h168h55v-413v0c78 56.667 167 85 267 85c129.333 0 238.666 -46.5 327.999 -139.5s134 -206.833 134 -341.5c0 -144 -43.167 -261.667 -129.5 -353s-197.166 -137 -332.499 -137c-100 0.666992 -189 28.667 -267 84v0v-247h305v-189h-342h-343v189
h162v1273zM666 194c75.333 0 136.834 25.333 184.501 76s71.5 115.667 71.5 195c0 78 -23.833 141.833 -71.5 191.5s-108.834 74.5 -183.501 74.5c-78 0 -139.833 -24.167 -185.5 -72.5s-68.5 -113.5 -68.5 -195.5v0v0v0c0 -78.667 23.667 -143.167 71 -193.5
s108 -75.5 182 -75.5z" />
    <glyph glyph-name="ydieresis" unicode="&#xff;" 
d="M1068 736l-528 -926h152v-189h-306h-307v189h234l163 288v0l-306 638h-160v189h251h251v-189h-103l193 -413v0v0l232 413h-94v189h245h245v-189h-162zM344 1396h254v-305h-254v305zM665 1396h254v-305h-254v305z" />
    <glyph glyph-name="Amacron" unicode="&#x100;" 
d="M134 189l315 781h-261v189h259h259v0l392 -970h123v-189h-258h-258v189h169l-49 125v0h-421v0l-49 -125h188v-189h-268h-269v189h128zM612 852l-125 -321v0h252v0l-127 321v0v0zM186 1487h860v-217h-860v217z" />
    <glyph glyph-name="amacron" unicode="&#x101;" 
d="M471 -23c-99.333 0 -183.17 29.001 -251.503 87.001s-102.5 129 -102.5 213c0 102 43.667 183 131 243s205.333 90 354 90c60.667 0 118.667 -5 174 -15v0v14c0 39.333 -15.333 69.5 -46 90.5s-74.667 31.5 -132 31.5c-45.333 0 -96.166 -6.33301 -152.499 -19
s-114.166 -31 -173.499 -55l-85 189c94.667 39.333 170.667 66.166 228 80.499s117.333 21.5 180 21.5c136.667 0 237.334 -27.5 302.001 -82.5s97 -140.5 97 -256.5v-420h165v-189h-191h-192v0v81v0c-22.667 -16 -46.667 -31 -72 -45c-74 -39.333 -151.667 -59 -233 -59z
M775.996 333.001v40.001v0c-2.66699 5.33301 -29 10 -79 14s-97 6 -141 6c-64 0 -116.5 -10.167 -157.5 -30.5s-61.5 -46.5 -61.5 -78.5c0 -26.667 14.333 -48.334 43 -65.001s65.334 -25 110.001 -25c40.667 0 91.167 14.667 151.5 44s105.166 61 134.499 95v0z
M151.996 1269h860v-217h-860v217z" />
    <glyph glyph-name="Abreve" unicode="&#x102;" 
d="M134 189l315 781h-261v189h259h259v0l392 -970h123v-189h-258h-258v189h169l-49 125v0h-421v0l-49 -125h188v-189h-268h-269v189h128zM612 852l-125 -321v0h252v0l-127 321v0v0zM616 1294c-114 0 -209.333 28.833 -286 86.5s-128.667 139.5 -156 245.5h222
c15.333 -46 42.333 -82 81 -108s85 -39 139 -39s100.333 13 139 39s65.667 62 81 108h222c-27.333 -106 -79.333 -187.833 -156 -245.5s-172 -86.5 -286 -86.5z" />
    <glyph glyph-name="abreve" unicode="&#x103;" 
d="M471 -23c-99.333 0 -183.17 29.001 -251.503 87.001s-102.5 129 -102.5 213c0 102 43.667 183 131 243s205.333 90 354 90c60.667 0 118.667 -5 174 -15v0v14c0 39.333 -15.333 69.5 -46 90.5s-74.667 31.5 -132 31.5c-45.333 0 -96.166 -6.33301 -152.499 -19
s-114.166 -31 -173.499 -55l-85 189c94.667 39.333 170.667 66.166 228 80.499s117.333 21.5 180 21.5c136.667 0 237.334 -27.5 302.001 -82.5s97 -140.5 97 -256.5v-420h165v-189h-191h-192v0v81v0c-22.667 -16 -46.667 -31 -72 -45c-74 -39.333 -151.667 -59 -233 -59z
M775.996 333.001v40.001v0c-2.66699 5.33301 -29 10 -79 14s-97 6 -141 6c-64 0 -116.5 -10.167 -157.5 -30.5s-61.5 -46.5 -61.5 -78.5c0 -26.667 14.333 -48.334 43 -65.001s65.334 -25 110.001 -25c40.667 0 91.167 14.667 151.5 44s105.166 61 134.499 95v0z
M581.996 1048c-114 0 -209.333 28.833 -286 86.5s-128.667 139.5 -156 245.5h222c15.333 -46 42.333 -82 81 -108s85 -39 139 -39s100.333 13 139 39s65.667 62 81 108h222c-27.333 -106 -79.333 -187.833 -156 -245.5s-172 -86.5 -286 -86.5z" />
    <glyph glyph-name="Aogonek" unicode="&#x104;" 
d="M134 189l315 781h-261v189h259h259v0l392 -970h123v-189h-258h-258v189h169l-49 125v0h-421v0l-49 -125h188v-189h-268h-269v189h128zM612 852l-125 -321v0h252v0l-127 321v0v0zM476 -168c0 44.667 19.8311 85.001 59.498 121.001s96.167 65.333 169.5 88h171
c-70 -26.667 -120.667 -53.334 -152 -80.001s-47 -57 -47 -91c0 -20 6 -36.833 18 -50.5s26.667 -20.5 44 -20.5c14.667 0 33.167 6.83301 55.5 20.5s45.833 32.5 70.5 56.5l-25 -147c-23.333 -20.667 -51.666 -37.167 -84.999 -49.5s-65.666 -18.5 -96.999 -18.5
c-53.333 0 -97 16 -131 48s-51 73 -51 123z" />
    <glyph glyph-name="aogonek" unicode="&#x105;" 
d="M471 -23c-99.333 0 -183.17 29.001 -251.503 87.001s-102.5 129 -102.5 213c0 102 43.667 183 131 243s205.333 90 354 90c60.667 0 118.667 -5 174 -15v0v14c0 39.333 -15.333 69.5 -46 90.5s-74.667 31.5 -132 31.5c-45.333 0 -96.166 -6.33301 -152.499 -19
s-114.166 -31 -173.499 -55l-85 189c94.667 39.333 170.667 66.166 228 80.499s117.333 21.5 180 21.5c136.667 0 237.334 -27.5 302.001 -82.5s97 -140.5 97 -256.5v-420h165v-189h-191h-192v0v81v0c-22.667 -16 -46.667 -31 -72 -45c-74 -39.333 -151.667 -59 -233 -59z
M775.996 333.001v40.001v0c-2.66699 5.33301 -29 10 -79 14s-97 6 -141 6c-64 0 -116.5 -10.167 -157.5 -30.5s-61.5 -46.5 -61.5 -78.5c0 -26.667 14.333 -48.334 43 -65.001s65.334 -25 110.001 -25c40.667 0 91.167 14.667 151.5 44s105.166 61 134.499 95v0z
M614.996 -180.998c0 47.333 17.834 90.501 53.501 129.501s86.167 70.833 151.5 95.5h219c-78.667 -34 -137.5 -66.333 -176.5 -97s-58.5 -60.334 -58.5 -89.001c0 -19.333 5.5 -34.166 16.5 -44.499s26.5 -15.5 46.5 -15.5c18 0 40.667 7 68 21s56.333 33.667 87 59
l-28 -161c-24 -24.667 -53.333 -44.5 -88 -59.5s-68.334 -22.5 -101.001 -22.5c-53.333 0 -98.333 18 -135 54c-36.667 35.333 -55 78.666 -55 129.999z" />
    <glyph glyph-name="Cacute" unicode="&#x106;" 
d="M1160 161c-89.333 -66.667 -169.833 -114.002 -241.5 -142.002s-149.167 -42 -232.5 -42c-169.333 0 -308.166 57.333 -416.499 172s-162.5 262 -162.5 442c0 176.667 54.167 321.334 162.5 434.001s247.166 169 416.499 169c108 -0.666992 202.333 -25.667 283 -75v0v75
h191v0v-491v0h-191v0v199c-50 28.667 -95.167 48.334 -135.5 59.001s-89.5 16 -147.5 16c-105.333 0 -191.5 -36.167 -258.5 -108.5s-100.5 -165.5 -100.5 -279.5c0 -116 33.5 -210.833 100.5 -284.5s153.167 -110.5 258.5 -110.5c57.333 0 111.833 8.83301 163.5 26.5
s114.167 49.167 187.5 94.5zM421 1418l587 256l75 -221l-620 -159z" />
    <glyph glyph-name="cacute" unicode="&#x107;" 
d="M1113 167c-90.667 -70 -173.831 -119.168 -249.498 -147.501s-161.834 -42.5 -258.501 -42.5c-142 0 -258.167 45.667 -348.5 137s-135.5 209 -135.5 353c0 141.333 48 256.833 144 346.5s219.667 134.5 371 134.5c81.333 0 155 -10.333 221 -31v0v31h187v0v-411v0h-187
v0v166c-48.667 11.333 -87.167 18.833 -115.5 22.5s-63.166 5.5 -104.499 5.5c-86.667 0 -157.667 -24.833 -213 -74.5s-83 -113.5 -83 -191.5c0 -79.333 27.667 -144.166 83 -194.499s126.333 -75.5 213 -75.5c73.333 0 134.666 9.83301 183.999 29.5
s106.666 57.5 171.999 113.5zM371.003 1172l587 256l75 -221l-620 -159z" />
    <glyph glyph-name="Ccaron" unicode="&#x10c;" 
d="M1160 161c-89.333 -66.667 -169.833 -114.002 -241.5 -142.002s-149.167 -42 -232.5 -42c-169.333 0 -308.166 57.333 -416.499 172s-162.5 262 -162.5 442c0 176.667 54.167 321.334 162.5 434.001s247.166 169 416.499 169c108 -0.666992 202.333 -25.667 283 -75v0v75
h191v0v-491v0h-191v0v199c-50 28.667 -95.167 48.334 -135.5 59.001s-89.5 16 -147.5 16c-105.333 0 -191.5 -36.167 -258.5 -108.5s-100.5 -165.5 -100.5 -279.5c0 -116 33.5 -210.833 100.5 -284.5s153.167 -110.5 258.5 -110.5c57.333 0 111.833 8.83301 163.5 26.5
s114.167 49.167 187.5 94.5zM574 1294l-304 290l138 88l278 -219v0l278 219l138 -88l-304 -290h-112h-112z" />
    <glyph glyph-name="ccaron" unicode="&#x10d;" 
d="M1113 167c-90.667 -70 -173.831 -119.168 -249.498 -147.501s-161.834 -42.5 -258.501 -42.5c-142 0 -258.167 45.667 -348.5 137s-135.5 209 -135.5 353c0 141.333 48 256.833 144 346.5s219.667 134.5 371 134.5c81.333 0 155 -10.333 221 -31v0v31h187v0v-411v0h-187
v0v166c-48.667 11.333 -87.167 18.833 -115.5 22.5s-63.166 5.5 -104.499 5.5c-86.667 0 -157.667 -24.833 -213 -74.5s-83 -113.5 -83 -191.5c0 -79.333 27.667 -144.166 83 -194.499s126.333 -75.5 213 -75.5c73.333 0 134.666 9.83301 183.999 29.5
s106.666 57.5 171.999 113.5zM524.003 1048l-304 290l138 88l278 -219v0l278 219l138 -88l-304 -290h-112h-112z" />
    <glyph glyph-name="Dcaron" unicode="&#x10e;" 
d="M220 189l0.000976562 792.999h-171v189h281v0h306c168.667 0 296.667 -49.333 384 -148s131 -242.667 131 -432c0 -193.333 -45.833 -340.166 -137.5 -440.499s-225.834 -150.5 -402.501 -150.5h-281v0h-281v189h171zM440.001 216.999l171 -0.000976562
c110.667 0 191.667 29.833 243 89.5s77 153.834 77 282.501c0 126.667 -23.667 219.167 -71 277.5s-122 87.5 -224 87.5h-196v0v-737zM480.001 1294l-304 290l138 88l278 -219v0l278 219l138 -88l-304 -290h-112h-112z" />
    <glyph glyph-name="dcaron" unicode="&#x10f;" 
d="M488 -23c-130 0 -240.001 47.333 -330.001 142s-135 210.667 -135 348c0 134.667 45 248.5 135 341.5s200 139.5 330 139.5c104 0 194.333 -29.667 271 -89v0v228h-258v189h210h211h55v-1087h165v-189h-191h-192v0v57v0c-75.333 -53.333 -165.666 -80 -270.999 -80z
M500.999 731c-76 0 -138.001 -24.833 -186.001 -74.5s-72 -113.5 -72 -191.5c0 -79.333 24 -144.333 72 -195s109.667 -76 185 -76c76 0 138.167 25.167 186.5 75.5s72.5 114.833 72.5 193.5c0 82 -23.167 147.167 -69.5 195.5s-109.166 72.5 -188.499 72.5zM1089 982
l134 535h265l-204 -535h-195z" />
    <glyph glyph-name="Dcroat" unicode="&#x110;" 
d="M49 0l0.000976562 188.999h171v316v0h-130v162h130v0v315h-171v189h281v0h306c168.667 0 296.667 -49.333 384 -148s131 -242.667 131 -432c0 -193.333 -45.833 -340.166 -137.5 -440.499s-225.834 -150.5 -402.501 -150.5h-281v0h-281zM440.001 953.999v-287.001v0h196
v-162h-196v0v-288v0h171c110.667 0 191.667 29.833 243 89.5s77 153.834 77 282.501c0 126.667 -23.667 219.167 -71 277.5s-122 87.5 -224 87.5h-196z" />
    <glyph glyph-name="dcroat" unicode="&#x111;" 
d="M554 -23c-130 0 -240.001 47.333 -330.001 142s-135 210.667 -135 348c0 134.667 45 248.5 135 341.5s200 139.5 330 139.5c104 0 194.333 -29.667 271 -89v0v191h-203v118h203v108v0h81h82h55v-108h165v-118h-165v-861h165v-189h-191h-192v0v57v0
c-75.333 -53.333 -165.666 -80 -270.999 -80zM566.999 731c-76 0 -138.001 -24.833 -186.001 -74.5s-72 -113.5 -72 -191.5c0 -79.333 24 -144.333 72 -195s109.667 -76 185 -76c76 0 138.167 25.167 186.5 75.5s72.5 114.833 72.5 193.5c0 82 -23.167 147.167 -69.5 195.5
s-109.166 72.5 -188.499 72.5z" />
    <glyph glyph-name="Emacron" unicode="&#x112;" 
d="M99 0v189h171v793h-171v189h391v0h637v0v-229v-230h-191v242h-446v0v-249v0h173v145h189v-253v-254h-189v145h-173v0v-271v0h446v242h191v-229v-230v0h-637v0h-391zM226 1487h860v-217h-860v217z" />
    <glyph glyph-name="emacron" unicode="&#x113;" 
d="M645 -23c-151.333 0 -275.168 45.666 -371.501 136.999s-144.5 209 -144.5 353c0 141.333 49.5 256.833 148.5 346.5s226.5 134.5 382.5 134.5c132.667 0 241.334 -44.833 326.001 -134.5s127 -205.167 127 -346.5c0 -30.667 -2 -60.667 -6 -90v0h-759v0
c12 -47.333 35.667 -86 71 -116c54 -44.667 135 -67 243 -67c74.667 0 140.667 8.33301 198 25s124 46.667 200 90l94 -179c-77.333 -47.333 -161.5 -84.666 -252.5 -111.999s-176.5 -41 -256.5 -41zM909.998 563.999c-12.667 35.333 -34 66.334 -64 93.001
c-55.333 49.333 -126.333 74 -213 74s-157.667 -25 -213 -75c-28.667 -26.667 -50.667 -57.334 -66 -92.001v0h556zM226.998 1269h860v-217h-860v217z" />
    <glyph glyph-name="Edotaccent" unicode="&#x116;" 
d="M99 0v189h171v793h-171v189h391v0h637v0v-229v-230h-191v242h-446v0v-249v0h173v145h189v-253v-254h-189v145h-173v0v-271v0h446v242h191v-229v-230v0h-637v0h-391zM530 1642h252v-306h-252v306z" />
    <glyph glyph-name="edotaccent" unicode="&#x117;" 
d="M645 -23c-151.333 0 -275.168 45.666 -371.501 136.999s-144.5 209 -144.5 353c0 141.333 49.5 256.833 148.5 346.5s226.5 134.5 382.5 134.5c132.667 0 241.334 -44.833 326.001 -134.5s127 -205.167 127 -346.5c0 -30.667 -2 -60.667 -6 -90v0h-759v0
c12 -47.333 35.667 -86 71 -116c54 -44.667 135 -67 243 -67c74.667 0 140.667 8.33301 198 25s124 46.667 200 90l94 -179c-77.333 -47.333 -161.5 -84.666 -252.5 -111.999s-176.5 -41 -256.5 -41zM909.998 563.999c-12.667 35.333 -34 66.334 -64 93.001
c-55.333 49.333 -126.333 74 -213 74s-157.667 -25 -213 -75c-28.667 -26.667 -50.667 -57.334 -66 -92.001v0h556zM530.998 1396h252v-306h-252v306z" />
    <glyph glyph-name="Eogonek" unicode="&#x118;" 
d="M99 0v189h171v793h-171v189h391v0h637v0v-229v-230h-191v242h-446v0v-249v0h173v145h189v-253v-254h-189v145h-173v0v-271v0h446v242h191v-229v-230v0h-637v0h-391zM590 -168c0 44.667 19.8311 85.001 59.498 121.001s96.167 65.333 169.5 88h171
c-70 -26.667 -120.667 -53.334 -152 -80.001s-47 -57 -47 -91c0 -20 6 -36.833 18 -50.5s26.667 -20.5 44 -20.5c14.667 0 33.167 6.83301 55.5 20.5s45.833 32.5 70.5 56.5l-25 -147c-23.333 -20.667 -51.666 -37.167 -84.999 -49.5s-65.666 -18.5 -96.999 -18.5
c-53.333 0 -97 16 -131 48s-51 73 -51 123z" />
    <glyph glyph-name="eogonek" unicode="&#x119;" 
d="M645 -23c-151.333 0 -275.168 45.666 -371.501 136.999s-144.5 209 -144.5 353c0 141.333 49.5 256.833 148.5 346.5s226.5 134.5 382.5 134.5c132.667 0 241.334 -44.833 326.001 -134.5s127 -205.167 127 -346.5c0 -30.667 -2 -60.667 -6 -90v0h-759v0
c12 -47.333 35.667 -86 71 -116c54 -44.667 135 -67 243 -67c74.667 0 140.667 8.33301 198 25s124 46.667 200 90l94 -179c-77.333 -47.333 -161.5 -84.666 -252.5 -111.999s-176.5 -41 -256.5 -41zM909.998 563.999c-12.667 35.333 -34 66.334 -64 93.001
c-55.333 49.333 -126.333 74 -213 74s-157.667 -25 -213 -75c-28.667 -26.667 -50.667 -57.334 -66 -92.001v0h556zM583.998 -158c0 47.333 17.834 90.501 53.501 129.501s86.167 70.833 151.5 95.5h219c-78.667 -34 -137.5 -66.333 -176.5 -97s-58.5 -60.334 -58.5 -89.001
c0 -19.333 5.5 -34.166 16.5 -44.499s26.5 -15.5 46.5 -15.5c18 0 40.667 7 68 21s56.333 33.667 87 59l-28 -161c-24 -24.667 -53.333 -44.5 -88 -59.5s-68.334 -22.5 -101.001 -22.5c-53.333 0 -98.333 18 -135 54c-36.667 35.333 -55 78.666 -55 129.999z" />
    <glyph glyph-name="Ecaron" unicode="&#x11a;" 
d="M99 0v189h171v793h-171v189h391v0h637v0v-229v-230h-191v242h-446v0v-249v0h173v145h189v-253v-254h-189v145h-173v0v-271v0h446v242h191v-229v-230v0h-637v0h-391zM544 1294l-304 290l138 88l278 -219v0l278 219l138 -88l-304 -290h-112h-112z" />
    <glyph glyph-name="ecaron" unicode="&#x11b;" 
d="M645 -23c-151.333 0 -275.168 45.666 -371.501 136.999s-144.5 209 -144.5 353c0 141.333 49.5 256.833 148.5 346.5s226.5 134.5 382.5 134.5c132.667 0 241.334 -44.833 326.001 -134.5s127 -205.167 127 -346.5c0 -30.667 -2 -60.667 -6 -90v0h-759v0
c12 -47.333 35.667 -86 71 -116c54 -44.667 135 -67 243 -67c74.667 0 140.667 8.33301 198 25s124 46.667 200 90l94 -179c-77.333 -47.333 -161.5 -84.666 -252.5 -111.999s-176.5 -41 -256.5 -41zM909.998 563.999c-12.667 35.333 -34 66.334 -64 93.001
c-55.333 49.333 -126.333 74 -213 74s-157.667 -25 -213 -75c-28.667 -26.667 -50.667 -57.334 -66 -92.001v0h556zM544.998 1048l-304 290l138 88l278 -219v0l278 219l138 -88l-304 -290h-112h-112z" />
    <glyph glyph-name="Gbreve" unicode="&#x11e;" 
d="M633 -23c-161.333 0 -293.333 57.332 -396 171.999s-154 262 -154 442c0 176.667 52.5 321.334 157.5 434.001s239.5 169 403.5 169c109.333 0.666992 205.333 -25 288 -77v0v77h191v0v-480v0h-191v0v199c-55.333 25.333 -103 42.333 -143 51s-89 13 -147 13
c-99.333 0 -180.666 -36.167 -243.999 -108.5s-95 -165.5 -95 -279.5c0 -126.667 30.5 -224.167 91.5 -292.5s147.833 -102.5 260.5 -102.5h-1c85.333 0 161.666 10.333 228.999 31v0v160h-299v189h306h307v-189h-94v-298v0c-129.333 -73.333 -286 -110 -470 -110zM644 1294
c-114 0 -209.333 28.833 -286 86.5s-128.667 139.5 -156 245.5h222c15.333 -46 42.333 -82 81 -108s85 -39 139 -39s100.333 13 139 39s65.667 62 81 108h222c-27.333 -106 -79.333 -187.833 -156 -245.5s-172 -86.5 -286 -86.5z" />
    <glyph glyph-name="gbreve" unicode="&#x11f;" 
d="M566 -161c78.667 0 137.333 12.666 176 37.999s58 64 58 116v107v0c-76 -51.333 -166.333 -77 -271 -77c-136.667 0 -248.5 43.667 -335.5 131s-130.5 199.333 -130.5 336c0 134.667 45.167 244.667 135.5 330s206.5 128 348.5 128c96 0 180.333 -26 253 -78v0v55v0h191
h192v-189h-165v-762c0 -113.333 -37 -200.333 -111 -261s-180.333 -91 -319 -91c-72 0 -143.333 6.33301 -214 19s-152 34 -244 64l58 215c92.667 -31.333 165 -52.666 217 -63.999s105.667 -17 161 -17zM540.999 730.999c-76 0 -138 -22.833 -186 -68.5
s-72 -104.167 -72 -175.5c0 -72.667 24 -132 72 -178s109.667 -69 185 -69c76 0 138.333 23 187 69s73 105 73 177s-24.167 130.833 -72.5 176.5s-110.5 68.5 -186.5 68.5zM546.999 1048c-114 0 -209.333 28.833 -286 86.5s-128.667 139.5 -156 245.5h222
c15.333 -46 42.333 -82 81 -108s85 -39 139 -39s100.333 13 139 39s65.667 62 81 108h222c-27.333 -106 -79.333 -187.833 -156 -245.5s-172 -86.5 -286 -86.5z" />
    <glyph glyph-name="Gcommaaccent" unicode="&#x122;" 
d="M633 -23c-161.333 0 -293.333 57.332 -396 171.999s-154 262 -154 442c0 176.667 52.5 321.334 157.5 434.001s239.5 169 403.5 169c109.333 0.666992 205.333 -25 288 -77v0v77h191v0v-480v0h-191v0v199c-55.333 25.333 -103 42.333 -143 51s-89 13 -147 13
c-99.333 0 -180.666 -36.167 -243.999 -108.5s-95 -165.5 -95 -279.5c0 -126.667 30.5 -224.167 91.5 -292.5s147.833 -102.5 260.5 -102.5h-1c85.333 0 161.666 10.333 228.999 31v0v160h-299v189h306h307v-189h-94v-298v0c-129.333 -73.333 -286 -110 -470 -110z
M340 -623.001l163 500h239l-226 -500h-176z" />
    <glyph glyph-name="gcommaaccent" unicode="&#x123;" 
d="M566 -161c78.667 0 137.333 12.666 176 37.999s58 64 58 116v107v0c-76 -51.333 -166.333 -77 -271 -77c-136.667 0 -248.5 43.667 -335.5 131s-130.5 199.333 -130.5 336c0 134.667 45.167 244.667 135.5 330s206.5 128 348.5 128c96 0 180.333 -26 253 -78v0v55v0h191
h192v-189h-165v-762c0 -113.333 -37 -200.333 -111 -261s-180.333 -91 -319 -91c-72 0 -143.333 6.33301 -214 19s-152 34 -244 64l58 215c92.667 -31.333 165 -52.666 217 -63.999s105.667 -17 161 -17zM540.999 730.999c-76 0 -138 -22.833 -186 -68.5
s-72 -104.167 -72 -175.5c0 -72.667 24 -132 72 -178s109.667 -69 185 -69c76 0 138.333 23 187 69s73 105 73 177s-24.167 130.833 -72.5 176.5s-110.5 68.5 -186.5 68.5zM785.999 1548l-134 -500h-265l204 500h195z" />
    <glyph glyph-name="Imacron" unicode="&#x12a;" 
d="M539 189v793h-359v189h469h469v-189h-359v-793h359v-189h-469h-469v189h359zM219 1487h860v-217h-860v217z" />
    <glyph glyph-name="imacron" unicode="&#x12b;" 
d="M543 189v547h-304v189h233h234h55v-736h363v-189h-472h-472v189h363zM222 1269h860v-217h-860v217z" />
    <glyph glyph-name="Iogonek" unicode="&#x12e;" 
d="M539 189v793h-359v189h469h469v-189h-359v-793h359v-189h-469h-469v189h359zM420 -168c0 44.667 19.8311 85.001 59.498 121.001s96.167 65.333 169.5 88h171c-70 -26.667 -120.667 -53.334 -152 -80.001s-47 -57 -47 -91c0 -20 6 -36.833 18 -50.5
s26.667 -20.5 44 -20.5c14.667 0 33.167 6.83301 55.5 20.5s45.833 32.5 70.5 56.5l-25 -147c-23.333 -20.667 -51.666 -37.167 -84.999 -49.5s-65.666 -18.5 -96.999 -18.5c-53.333 0 -97 16 -131 48s-51 73 -51 123z" />
    <glyph glyph-name="iogonek" unicode="&#x12f;" 
d="M543 189v547h-304v189h233h234h55v-736h363v-189h-472h-472v189h363zM511 1367h248v-333h-248v333zM447 -181c0 47.333 17.834 90.501 53.501 129.501s86.167 70.833 151.5 95.5h219c-78.667 -34 -137.5 -66.333 -176.5 -97s-58.5 -60.334 -58.5 -89.001
c0 -19.333 5.5 -34.166 16.5 -44.499s26.5 -15.5 46.5 -15.5c18 0 40.667 7 68 21s56.333 33.667 87 59l-28 -161c-24 -24.667 -53.333 -44.5 -88 -59.5s-68.334 -22.5 -101.001 -22.5c-53.333 0 -98.333 18 -135 54c-36.667 35.333 -55 78.666 -55 129.999z" />
    <glyph glyph-name="Idotaccent" unicode="&#x130;" 
d="M539 189v793h-359v189h469h469v-189h-359v-793h359v-189h-469h-469v189h359zM523 1671h252v-306h-252v306z" />
    <glyph glyph-name="dotlessi" unicode="&#x131;" 
d="M543 189v547h-304v189h233h234h55v-736h363v-189h-472h-472v189h363z" />
    <glyph glyph-name="Kcommaaccent" unicode="&#x136;" 
d="M233 189v793h-171v189h265h265v-189h-139v-368v0l309 368h-77v189h242h242v-189h-140l-349 -408v0l84 -102c62 -79.333 126 -173.666 192 -282.999h231v-189h-181h-182v0c-66 127.333 -130 231.666 -192 312.999l-87 105v0l-92 -108v0v-121h166v-189h-278h-279v189h171z
M345 -623l163 500h239l-226 -500h-176z" />
    <glyph glyph-name="kcommaaccent" unicode="&#x137;" 
d="M263 189l-0.000976562 898.001h-163v189h163h163h55v-653v0l144 113h-42v189h278h279v-189h-202l-258 -197v0l93 -93c70.667 -72.667 145 -158.334 223 -257.001h213v-189h-263h-264v189h64c-37.333 45.333 -73.333 86.333 -108 123
c-33.333 35.333 -70.666 72 -111.999 110v0l-45 -34v0v-388h-55h-164h-164v189h165zM392.999 -622.999l163 500h239l-226 -500h-176z" />
    <glyph glyph-name="Lacute" unicode="&#x139;" 
d="M99 0v189h205v793h-205v189h340h341v-189h-256v-765v0h427v363h191v-290v-290v0h-618v0h-425zM336 1418l587 256l75 -221l-620 -159z" />
    <glyph glyph-name="lacute" unicode="&#x13a;" 
d="M543 189v898h-347v189h255h255h55v-1087h363v-189h-472h-472v189h363zM317 1512l587 256l75 -221l-620 -159z" />
    <glyph glyph-name="Lcommaaccent" unicode="&#x13b;" 
d="M99 0v189h205v793h-205v189h340h341v-189h-256v-765v0h427v363h191v-290v-290v0h-618v0h-425zM430 -623l163 500h239l-226 -500h-176z" />
    <glyph glyph-name="lcommaaccent" unicode="&#x13c;" 
d="M543 189v898h-347v189h255h255h55v-1087h363v-189h-472h-472v189h363zM359 -623l163 500h239l-226 -500h-176z" />
    <glyph glyph-name="Lcaron" unicode="&#x13d;" 
d="M99 0v189h205v793h-205v189h340h341v-189h-256v-765v0h427v363h191v-290v-290v0h-618v0h-425zM900 982l134 535h265l-204 -535h-195z" />
    <glyph glyph-name="lcaron" unicode="&#x13e;" 
d="M543 189v898h-347v189h255h255h55v-1087h363v-189h-472h-472v189h363zM908 982l134 535h265l-204 -535h-195z" />
    <glyph glyph-name="Lslash" unicode="&#x141;" 
d="M107 0v189h205v246l-174 -56v156l174 56v391h-205v189h340h341v-189h-256v-321l299 96v-156l-299 -96v-288v0h427v363h191v-290v-290v0h-618v0h-425z" />
    <glyph glyph-name="lslash" unicode="&#x142;" 
d="M536 189v363l-212 -56v154l212 56v381h-344v189h253h254h55v-513l212 56v-154l-212 -56v-420h361v-189h-467h-468v189h356z" />
    <glyph glyph-name="Nacute" unicode="&#x143;" 
d="M415 189h200v-189h-294h-294v189h171v793h-171v189h195h196v0l440 -751v0v0v562h-205v189h296h297v-189h-171v-982h-108h-108l-444 758v0v0v-569zM371 1418l587 256l75 -221l-620 -159z" />
    <glyph glyph-name="nacute" unicode="&#x144;" 
d="M218 189l-0.000976562 547h-169v189h160h161h55v-52v0v0l47 22c75.333 35.333 150.333 53 225 53c102.667 0 181.334 -23 236.001 -69s82 -112 82 -198v-492h165v-189h-257h-258v189h132v432c0 40 -9 68.167 -27 84.5s-49.333 24.5 -94 24.5
c-51.333 0 -101.333 -10.667 -150 -32c-30.667 -13.333 -60.667 -31 -90 -53v0v-456h132v-189h-257h-258v189h165zM303.999 1172l587 256l75 -221l-620 -159z" />
    <glyph glyph-name="Ncommaaccent" unicode="&#x145;" 
d="M415 189h200v-189h-294h-294v189h171v793h-171v189h195h196v0l440 -751v0v0v562h-205v189h296h297v-189h-171v-982h-108h-108l-444 758v0v0v-569zM343 -623l163 500h239l-226 -500h-176z" />
    <glyph glyph-name="ncommaaccent" unicode="&#x146;" 
d="M218 189l-0.000976562 547h-169v189h160h161h55v-52v0v0l47 22c75.333 35.333 150.333 53 225 53c102.667 0 181.334 -23 236.001 -69s82 -112 82 -198v-492h165v-189h-257h-258v189h132v432c0 40 -9 68.167 -27 84.5s-49.333 24.5 -94 24.5
c-51.333 0 -101.333 -10.667 -150 -32c-30.667 -13.333 -60.667 -31 -90 -53v0v-456h132v-189h-257h-258v189h165zM322.999 -623l163 500h239l-226 -500h-176z" />
    <glyph glyph-name="Ncaron" unicode="&#x147;" 
d="M415 189h200v-189h-294h-294v189h171v793h-171v189h195h196v0l440 -751v0v0v562h-205v189h296h297v-189h-171v-982h-108h-108l-444 758v0v0v-569zM524 1294l-304 290l138 88l278 -219v0l278 219l138 -88l-304 -290h-112h-112z" />
    <glyph glyph-name="ncaron" unicode="&#x148;" 
d="M218 189l-0.000976562 547h-169v189h160h161h55v-52v0v0l47 22c75.333 35.333 150.333 53 225 53c102.667 0 181.334 -23 236.001 -69s82 -112 82 -198v-492h165v-189h-257h-258v189h132v432c0 40 -9 68.167 -27 84.5s-49.333 24.5 -94 24.5
c-51.333 0 -101.333 -10.667 -150 -32c-30.667 -13.333 -60.667 -31 -90 -53v0v-456h132v-189h-257h-258v189h165zM503.999 1048l-304 290l138 88l278 -219v0l278 219l138 -88l-304 -290h-112h-112z" />
    <glyph glyph-name="Omacron" unicode="&#x14c;" 
d="M614 -23c-158.667 0 -288.667 57.333 -390 172s-152 262 -152 442c0 176.667 50.667 321.334 152 434.001s231.333 169 390 169c159.333 0 289.5 -56.333 390.5 -169s151.5 -257.334 151.5 -434.001c0 -180 -50.5 -327.333 -151.5 -442s-231.167 -172 -390.5 -172v0z
M614 194c94.667 0 172 36.833 232 110.5s90 168.5 90 284.5c0 114 -30 207.167 -90 279.5s-137.333 108.5 -232 108.5s-172 -36.167 -232 -108.5s-90 -165.5 -90 -279.5c0 -116 30 -210.833 90 -284.5s137.333 -110.5 232 -110.5v0zM184 1487h860v-217h-860v217z" />
    <glyph glyph-name="omacron" unicode="&#x14d;" 
d="M613 -23c-153.333 0 -278.833 45.667 -376.5 137s-146.5 209 -146.5 353c0 141.333 48.833 256.833 146.5 346.5s223.167 134.5 376.5 134.5c154 0 279.833 -44.833 377.5 -134.5s146.5 -205.167 146.5 -346.5c0 -144 -48.833 -261.667 -146.5 -353
s-223.5 -137 -377.5 -137v0zM613 194c89.333 0 162.333 25.333 219 76s85 115.667 85 195c0 78 -28.333 141.833 -85 191.5s-129.667 74.5 -219 74.5c-88.667 0 -161.334 -24.833 -218.001 -74.5s-85 -113.5 -85 -191.5c0 -79.333 28.333 -144.333 85 -195
s129.334 -76 218.001 -76v0zM183 1269h860v-217h-860v217z" />
    <glyph glyph-name="Ohungarumlaut" unicode="&#x150;" 
d="M614 -23c-158.667 0 -288.667 57.333 -390 172s-152 262 -152 442c0 176.667 50.667 321.334 152 434.001s231.333 169 390 169c159.333 0 289.5 -56.333 390.5 -169s151.5 -257.334 151.5 -434.001c0 -180 -50.5 -327.333 -151.5 -442s-231.167 -172 -390.5 -172v0z
M614 194c94.667 0 172 36.833 232 110.5s90 168.5 90 284.5c0 114 -30 207.167 -90 279.5s-137.333 108.5 -232 108.5s-172 -36.167 -232 -108.5s-90 -165.5 -90 -279.5c0 -116 30 -210.833 90 -284.5s137.333 -110.5 232 -110.5v0zM310 1345l340 398l166 -84l-407 -365z
M672 1345l340 398l166 -84l-407 -365z" />
    <glyph glyph-name="ohungarumlaut" unicode="&#x151;" 
d="M613 -23c-153.333 0 -278.833 45.667 -376.5 137s-146.5 209 -146.5 353c0 141.333 48.833 256.833 146.5 346.5s223.167 134.5 376.5 134.5c154 0 279.833 -44.833 377.5 -134.5s146.5 -205.167 146.5 -346.5c0 -144 -48.833 -261.667 -146.5 -353
s-223.5 -137 -377.5 -137v0zM613 194c89.333 0 162.333 25.333 219 76s85 115.667 85 195c0 78 -28.333 141.833 -85 191.5s-129.667 74.5 -219 74.5c-88.667 0 -161.334 -24.833 -218.001 -74.5s-85 -113.5 -85 -191.5c0 -79.333 28.333 -144.333 85 -195
s129.334 -76 218.001 -76v0zM309 1099l340 398l166 -84l-407 -365zM671 1099l340 398l166 -84l-407 -365z" />
    <glyph glyph-name="OE" unicode="&#x152;" 
d="M437 1171c81.333 0 153 -21.999 215 -65.999v0v66h220v0h374v0v-195v-196h-152v174h-222v0v-249v0h15v101h151v-209v-210h-151v101h-15v0v-271v0h222v174h152v-195v-196v0h-374v0h-220v66v0c-62 -43.333 -133.667 -65.333 -215 -66
c-127.333 0 -231.666 55.167 -312.999 165.5s-122 252.166 -122 425.499c0 170 40.667 309.333 122 418c81.333 108 185.666 162 312.999 162zM437 954.001c-63.333 0 -115 -34 -155 -102s-60 -155.667 -60 -263c0 -109.333 20 -198.666 60 -267.999s91.667 -104 155 -104
s115 34.667 155 104c18.667 33.333 33 71 43 113c4.66699 20 8.66699 52 12 96c3.33301 43.333 5 86.666 5 129.999v511v-582c0 107.333 -20 195 -60 263s-91.667 102 -155 102z" />
    <glyph glyph-name="oe" unicode="&#x153;" 
d="M403 948c115.333 0 200.333 -36 255 -108v0c70.667 72.667 151 108.667 241 108c102 0 183 -43.333 243 -130s90 -203.667 90 -351c0 -30.667 -1.33301 -60.667 -4 -90v0h-470v0c6 -46 18 -84 36 -114c28 -46 68.667 -69 122 -69c40 0 78.333 4.33301 115 13
s86 25.334 148 50.001l68 -211c-44 -22 -95 -39 -153 -51s-117 -18 -177 -18c-110 -0.666992 -201 38 -273 116v0c-72 -78 -159.667 -116.667 -263 -116c-108.667 0 -197.667 41.167 -267 123.5s-104 188.166 -104 317.499c0 162.667 35.667 291.667 107 387
c70.667 95.333 166 143 286 143zM396 731c-55.333 0 -96.833 -24.833 -124.5 -74.5s-41.5 -124.5 -41.5 -224.5c0 -76 13.167 -134.667 39.5 -176s63.5 -62 111.5 -62c52.667 0 91 21.167 115 63.5s36 109.5 36 201.5c0 100 -10.333 170.333 -31 211
c-20 40.667 -55 61 -105 61zM1007 564c-3.33301 48.667 -11.3311 85.001 -23.998 109.001c-18.667 38.667 -52.334 58 -101.001 58c-41.333 0 -73.333 -23 -96 -69c-12.667 -26.667 -22.334 -59.334 -29.001 -98.001v0h250z" />
    <glyph glyph-name="Racute" unicode="&#x154;" 
d="M260 189l0.000976562 793.001h-171v189h281v0h299c122 0 217.333 -30.167 286 -90.5s103 -144.166 103 -251.499c0 -125.333 -44 -219.333 -132 -282c-32.667 -22.667 -71 -41.334 -115 -56.001v0c39.333 -52 74.666 -100.667 105.999 -146c32 -46 65.667 -98 101 -156
h169v-189h-169h-149c-72 137.333 -139 252.666 -201 345.999c-22.667 34.667 -48 70.667 -76 108v0l-62 -1h-50v0v-264h160v-189h-275h-276v189h171zM480.001 665.001l143 -0.000976562c68.667 0 121.667 13.167 159 39.5s56 63.5 56 111.5c0 46.667 -12 81.334 -36 104.001
s-61 34 -111 34h-211v0v-289zM354.001 1418l587 256l75 -221l-620 -159z" />
    <glyph glyph-name="racute" unicode="&#x155;" 
d="M371 189v546.999h-236v189h194h194h55v-131v0v0c38 28.667 74.667 53.667 110 75c88.667 52.667 167 79 235 79c79.333 0 137.833 -18.5 175.5 -55.5s59.167 -97.167 64.5 -180.5l-208 -33c-2 16.667 -6.33301 29.334 -13 38.001s-15.667 13 -27 13
c-44 0 -97.667 -20 -161 -60c-50.667 -32 -105.667 -76 -165 -132v0v-349h396v-189h-422h-423v189h231zM379 1172l587 256l75 -221l-620 -159z" />
    <glyph glyph-name="Rcommaaccent" unicode="&#x156;" 
d="M260 189l0.000976562 793.001h-171v189h281v0h299c122 0 217.333 -30.167 286 -90.5s103 -144.166 103 -251.499c0 -125.333 -44 -219.333 -132 -282c-32.667 -22.667 -71 -41.334 -115 -56.001v0c39.333 -52 74.666 -100.667 105.999 -146c32 -46 65.667 -98 101 -156
h169v-189h-169h-149c-72 137.333 -139 252.666 -201 345.999c-22.667 34.667 -48 70.667 -76 108v0l-62 -1h-50v0v-264h160v-189h-275h-276v189h171zM480.001 665.001l143 -0.000976562c68.667 0 121.667 13.167 159 39.5s56 63.5 56 111.5c0 46.667 -12 81.334 -36 104.001
s-61 34 -111 34h-211v0v-289zM405.001 -623l163 500h239l-226 -500h-176z" />
    <glyph glyph-name="rcommaaccent" unicode="&#x157;" 
d="M371 189v546.999h-236v189h194h194h55v-131v0v0c38 28.667 74.667 53.667 110 75c88.667 52.667 167 79 235 79c79.333 0 137.833 -18.5 175.5 -55.5s59.167 -97.167 64.5 -180.5l-208 -33c-2 16.667 -6.33301 29.334 -13 38.001s-15.667 13 -27 13
c-44 0 -97.667 -20 -161 -60c-50.667 -32 -105.667 -76 -165 -132v0v-349h396v-189h-422h-423v189h231zM187 -623.001l163 500h239l-226 -500h-176z" />
    <glyph glyph-name="Rcaron" unicode="&#x158;" 
d="M260 189l0.000976562 793.001h-171v189h281v0h299c122 0 217.333 -30.167 286 -90.5s103 -144.166 103 -251.499c0 -125.333 -44 -219.333 -132 -282c-32.667 -22.667 -71 -41.334 -115 -56.001v0c39.333 -52 74.666 -100.667 105.999 -146c32 -46 65.667 -98 101 -156
h169v-189h-169h-149c-72 137.333 -139 252.666 -201 345.999c-22.667 34.667 -48 70.667 -76 108v0l-62 -1h-50v0v-264h160v-189h-275h-276v189h171zM480.001 665.001l143 -0.000976562c68.667 0 121.667 13.167 159 39.5s56 63.5 56 111.5c0 46.667 -12 81.334 -36 104.001
s-61 34 -111 34h-211v0v-289zM507.001 1294l-304 290l138 88l278 -219v0l278 219l138 -88l-304 -290h-112h-112z" />
    <glyph glyph-name="rcaron" unicode="&#x159;" 
d="M371 189v546.999h-236v189h194h194h55v-131v0v0c38 28.667 74.667 53.667 110 75c88.667 52.667 167 79 235 79c79.333 0 137.833 -18.5 175.5 -55.5s59.167 -97.167 64.5 -180.5l-208 -33c-2 16.667 -6.33301 29.334 -13 38.001s-15.667 13 -27 13
c-44 0 -97.667 -20 -161 -60c-50.667 -32 -105.667 -76 -165 -132v0v-349h396v-189h-422h-423v189h231zM503 1048l-304 290l138 88l278 -219v0l278 219l138 -88l-304 -290h-112h-112z" />
    <glyph glyph-name="Sacute" unicode="&#x15a;" 
d="M860 749l0.00195312 199.002c-47.333 15.333 -87 25.5 -119 30.5s-72.667 7.5 -122 7.5c-65.333 0 -118.833 -14.333 -160.5 -43s-62.5 -65.334 -62.5 -110.001c0 -44 24.333 -79.333 73 -106c48 -26 123 -44.333 225 -55c137.333 -15.333 237.333 -49.666 300 -102.999
c62.667 -52.667 94 -130.334 94 -233.001c0 -105.333 -40.167 -191.5 -120.5 -258.5s-183.833 -100.5 -310.5 -100.5c-118 0 -223.333 23 -316 69v0v-69h-191v0v421v0h191v0v-152c55.333 -24 104.666 -40.167 147.999 -48.5s99.333 -12.5 168 -12.5
c65.333 0 118.666 13.167 159.999 39.5s62 60.166 62 101.499c0 43.333 -18 75.666 -54 96.999s-99 37 -189 47c-156.667 17.333 -270.667 54 -342 110s-107 137 -107 243c0 108.667 40.333 197.667 121 267s184.334 104 311.001 104
c95.333 0.666992 175.666 -15.666 240.999 -48.999v0v49h191v0v-445v0h-191zM354.002 1418l587 256l75 -221l-620 -159z" />
    <glyph glyph-name="sacute" unicode="&#x15b;" 
d="M847 592l-0.00195312 106.002c-48.667 13.333 -90.167 22.166 -124.5 26.499s-79.833 6.5 -136.5 6.5c-50.667 0 -92.167 -5.83301 -124.5 -17.5s-48.5 -26.5 -48.5 -44.5c0 -27.333 20.333 -49.333 61 -66c40 -16.667 102 -29 186 -37
c146.667 -14 252.334 -43 317.001 -87c64 -43.333 96 -107.666 96 -192.999c0 -90.667 -38.5 -164.834 -115.5 -222.501s-176.167 -86.5 -297.5 -86.5c-110.667 0 -208.667 15.667 -294 47v0v-47h-191v0v393v0h191v0v-148c54.667 -11.333 100.834 -18.833 138.501 -22.5
s89.5 -5.5 155.5 -5.5c58.667 0 106.834 7.66699 144.501 23s56.5 35.333 56.5 60s-15 42.667 -45 54c-29.333 11.333 -87.333 21 -174 29c-156.667 14.667 -269.334 46 -338.001 94c-68.667 47.333 -103 117.666 -103 210.999c0 83.333 36 151.333 108 204
s164.333 79 277 79c99.333 0 186.333 -12.667 261 -38v0v38h191v0v-356v0h-191zM320.998 1172l587 256l75 -221l-620 -159z" />
    <glyph glyph-name="Scedilla" unicode="&#x15e;" 
d="M860 749l0.00195312 199.002c-47.333 15.333 -87 25.5 -119 30.5s-72.667 7.5 -122 7.5c-65.333 0 -118.833 -14.333 -160.5 -43s-62.5 -65.334 -62.5 -110.001c0 -44 24.333 -79.333 73 -106c48 -26 123 -44.333 225 -55c137.333 -15.333 237.333 -49.666 300 -102.999
c62.667 -52.667 94 -130.334 94 -233.001c0 -105.333 -40.167 -191.5 -120.5 -258.5s-183.833 -100.5 -310.5 -100.5c-118 0 -223.333 23 -316 69v0v-69h-191v0v421v0h191v0v-152c55.333 -24 104.666 -40.167 147.999 -48.5s99.333 -12.5 168 -12.5
c65.333 0 118.666 13.167 159.999 39.5s62 60.166 62 101.499c0 43.333 -18 75.666 -54 96.999s-99 37 -189 47c-156.667 17.333 -270.667 54 -342 110s-107 137 -107 243c0 108.667 40.333 197.667 121 267s184.334 104 311.001 104
c95.333 0.666992 175.666 -15.666 240.999 -48.999v0v49h191v0v-445v0h-191zM729.002 0.00195312l-0.999023 -48v0c43.333 -5.33301 76.666 -19.333 99.999 -42c28.667 -28 43 -70.333 43 -127c0 -61.333 -17.5 -111.333 -52.5 -150s-79.833 -58 -134.5 -58
c-30.667 0 -58 4.33301 -82 13s-50 23.667 -78 45l57 94c13.333 -9.33301 28.666 -16.833 45.999 -22.5s33.333 -8.5 48 -8.5c18.667 0 32.167 5.83301 40.5 17.5s12.5 30.167 12.5 55.5c0 20 -4.83301 34.833 -14.5 44.5s-24.5 14.5 -44.5 14.5c-12 0 -25.667 -2 -41 -6
s-28.666 -9 -39.999 -15v0l18 193h123z" />
    <glyph glyph-name="scedilla" unicode="&#x15f;" 
d="M847 592l-0.00195312 106.002c-48.667 13.333 -90.167 22.166 -124.5 26.499s-79.833 6.5 -136.5 6.5c-50.667 0 -92.167 -5.83301 -124.5 -17.5s-48.5 -26.5 -48.5 -44.5c0 -27.333 20.333 -49.333 61 -66c40 -16.667 102 -29 186 -37
c146.667 -14 252.334 -43 317.001 -87c64 -43.333 96 -107.666 96 -192.999c0 -90.667 -38.5 -164.834 -115.5 -222.501s-176.167 -86.5 -297.5 -86.5c-110.667 0 -208.667 15.667 -294 47v0v-47h-191v0v393v0h191v0v-148c54.667 -11.333 100.834 -18.833 138.501 -22.5
s89.5 -5.5 155.5 -5.5c58.667 0 106.834 7.66699 144.501 23s56.5 35.333 56.5 60s-15 42.667 -45 54c-29.333 11.333 -87.333 21 -174 29c-156.667 14.667 -269.334 46 -338.001 94c-68.667 47.333 -103 117.666 -103 210.999c0 83.333 36 151.333 108 204
s164.333 79 277 79c99.333 0 186.333 -12.667 261 -38v0v38h191v0v-356v0h-191zM721.998 0.00195312l-0.999023 -48v0c42.667 -5.33301 75.667 -19.333 99 -42c28.667 -28 43 -70.333 43 -127c0 -61.333 -17.333 -111.333 -52 -150s-79.334 -58 -134.001 -58
c-30 0 -57 4.33301 -81 13s-50 23.667 -78 45l57 94c12.667 -9.33301 27.667 -16.833 45 -22.5s33.333 -8.5 48 -8.5c18 0 31.167 5.83301 39.5 17.5s12.5 30.167 12.5 55.5c0 20 -4.83301 34.833 -14.5 44.5s-24.167 14.5 -43.5 14.5c-12 0 -25.333 -2 -40 -6
s-28 -9 -40 -15v0l17 193h123z" />
    <glyph glyph-name="Scaron" unicode="&#x160;" 
d="M860 749l0.00195312 199.002c-47.333 15.333 -87 25.5 -119 30.5s-72.667 7.5 -122 7.5c-65.333 0 -118.833 -14.333 -160.5 -43s-62.5 -65.334 -62.5 -110.001c0 -44 24.333 -79.333 73 -106c48 -26 123 -44.333 225 -55c137.333 -15.333 237.333 -49.666 300 -102.999
c62.667 -52.667 94 -130.334 94 -233.001c0 -105.333 -40.167 -191.5 -120.5 -258.5s-183.833 -100.5 -310.5 -100.5c-118 0 -223.333 23 -316 69v0v-69h-191v0v421v0h191v0v-152c55.333 -24 104.666 -40.167 147.999 -48.5s99.333 -12.5 168 -12.5
c65.333 0 118.666 13.167 159.999 39.5s62 60.166 62 101.499c0 43.333 -18 75.666 -54 96.999s-99 37 -189 47c-156.667 17.333 -270.667 54 -342 110s-107 137 -107 243c0 108.667 40.333 197.667 121 267s184.334 104 311.001 104
c95.333 0.666992 175.666 -15.666 240.999 -48.999v0v49h191v0v-445v0h-191zM507.002 1294l-304 290l138 88l278 -219v0l278 219l138 -88l-304 -290h-112h-112z" />
    <glyph glyph-name="scaron" unicode="&#x161;" 
d="M852 592l-0.00195312 106.002c-48.667 13.333 -90.167 22.166 -124.5 26.499s-79.833 6.5 -136.5 6.5c-50.667 0 -92.167 -5.83301 -124.5 -17.5s-48.5 -26.5 -48.5 -44.5c0 -27.333 20.333 -49.333 61 -66c40 -16.667 102 -29 186 -37
c146.667 -14 252.334 -43 317.001 -87c64 -43.333 96 -107.666 96 -192.999c0 -90.667 -38.5 -164.834 -115.5 -222.501s-176.167 -86.5 -297.5 -86.5c-110.667 0 -208.667 15.667 -294 47v0v-47h-191v0v393v0h191v0v-148c54.667 -11.333 100.834 -18.833 138.501 -22.5
s89.5 -5.5 155.5 -5.5c58.667 0 106.834 7.66699 144.501 23s56.5 35.333 56.5 60s-15 42.667 -45 54c-29.333 11.333 -87.333 21 -174 29c-156.667 14.667 -269.334 46 -338.001 94c-68.667 47.333 -103 117.666 -103 210.999c0 83.333 36 151.333 108 204
s164.333 79 277 79c99.333 0 186.333 -12.667 261 -38v0v38h191v0v-356v0h-191zM478.998 1048l-304 290l138 88l278 -219v0l278 219l138 -88l-304 -290h-112h-112z" />
    <glyph glyph-name="Tcommaaccent" unicode="&#x162;" 
d="M504 189v765v0h-238v-266h-189v241v242v0h537v0h538v0v-241v-242h-189v266h-239v0v-765h256v-189h-366h-366v189h256zM686 0l-0.999023 -48v0c43.333 -5.33301 76.666 -19.333 99.999 -42c28.667 -28 43 -70.333 43 -127c0 -61.333 -17.5 -111.333 -52.5 -150
s-79.833 -58 -134.5 -58c-30.667 0 -58 4.33301 -82 13s-50 23.667 -78 45l57 94c13.333 -9.33301 28.666 -16.833 45.999 -22.5s33.333 -8.5 48 -8.5c18.667 0 32.167 5.83301 40.5 17.5s12.5 30.167 12.5 55.5c0 20 -4.83301 34.833 -14.5 44.5s-24.5 14.5 -44.5 14.5
c-12 0 -25.667 -2 -41 -6s-28.666 -9 -39.999 -15v0l18 193h123z" />
    <glyph glyph-name="tcommaaccent" unicode="&#x163;" 
d="M628 -23c-111.333 0 -192.333 26.332 -243 78.999s-76 136.667 -76 252v400v0h-118v217h118v0v278h218v-278v0h475v-217h-475v0v-310c0 -76.667 9.5 -129.667 28.5 -159s53.167 -44 102.5 -44c60 0 117.333 8.16699 172 24.5s139.667 50.5 255 102.5l38 -222
c-92.667 -43.333 -177.667 -74.666 -255 -93.999s-157.333 -29 -240 -29zM731 -0.000976562l-0.999023 -48v0c42.667 -5.33301 75.667 -19.333 99 -42c28.667 -28 43 -70.333 43 -127c0 -61.333 -17.333 -111.333 -52 -150s-79.334 -58 -134.001 -58
c-30 0 -57 4.33301 -81 13s-50 23.667 -78 45l57 94c12.667 -9.33301 27.667 -16.833 45 -22.5s33.333 -8.5 48 -8.5c18 0 31.167 5.83301 39.5 17.5s12.5 30.167 12.5 55.5c0 20 -4.83301 34.833 -14.5 44.5s-24.167 14.5 -43.5 14.5c-12 0 -25.333 -2 -40 -6
s-28 -9 -40 -15v0l17 193h123z" />
    <glyph glyph-name="Tcaron" unicode="&#x164;" 
d="M504 189v765v0h-238v-266h-189v241v242v0h537v0h538v0v-241v-242h-189v266h-239v0v-765h256v-189h-366h-366v189h256zM502 1294l-304 290l138 88l278 -219v0l278 219l138 -88l-304 -290h-112h-112z" />
    <glyph glyph-name="tcaron" unicode="&#x165;" 
d="M628 -23c-111.333 0 -192.333 26.332 -243 78.999s-76 136.667 -76 252v400v0h-118v217h118v0v278h218v-278v0h475v-217h-475v0v-310c0 -76.667 9.5 -129.667 28.5 -159s53.167 -44 102.5 -44c60 0 117.333 8.16699 172 24.5s139.667 50.5 255 102.5l38 -222
c-92.667 -43.333 -177.667 -74.666 -255 -93.999s-157.333 -29 -240 -29zM639 1095l134 535h265l-204 -535h-195z" />
    <glyph glyph-name="Umacron" unicode="&#x16a;" 
d="M1062 406c0 -144.667 -35.168 -252.334 -105.501 -323.001s-177.833 -106 -322.5 -106s-252.334 35.333 -323.001 106s-106 178.334 -106 323.001v576h-171v189h270h271v-189h-150v-578c0 -70.667 17.333 -123.334 52 -158.001s87.334 -52 158.001 -52
s123.334 17.333 158.001 52s52 87.334 52 158.001v578h-171v189h275h275v-189h-162v-576zM203.999 1487h860v-217h-860v217z" />
    <glyph glyph-name="umacron" unicode="&#x16b;" 
d="M430 925v-622c0 -35.333 10.333 -62.333 31 -81s50.667 -28 90 -28c51.333 0 101.333 10.667 150 32c31.333 13.333 61.333 31.333 90 54v0v456h-169v189h166h166h55v-736h165v-189h-186h-186v0v47v0v0l-35 -18c-68 -35.333 -132.333 -53 -193 -53
c-116.667 0 -206.167 26.167 -268.5 78.5s-93.5 127.5 -93.5 225.5v456h-169v189h166h166h55zM180 1269h860v-217h-860v217z" />
    <glyph glyph-name="Uring" unicode="&#x16e;" 
d="M1062 406c0 -144.667 -35.168 -252.334 -105.501 -323.001s-177.833 -106 -322.5 -106s-252.334 35.333 -323.001 106s-106 178.334 -106 323.001v576h-171v189h270h271v-189h-150v-578c0 -70.667 17.333 -123.334 52 -158.001s87.334 -52 158.001 -52
s123.334 17.333 158.001 52s52 87.334 52 158.001v578h-171v189h275h275v-189h-162v-576zM633.999 1286c-56.667 0 -104.667 19.667 -144 59s-59 87.333 -59 144c0 57.333 19.667 105.666 59 144.999s87.333 59 144 59c57.333 0 105.666 -19.667 144.999 -59
s59 -87.666 59 -144.999c0 -56.667 -19.667 -104.667 -59 -144s-87.666 -59 -144.999 -59v0zM633.999 1409c22.667 0 41.834 7.66699 57.501 23s23.5 34.333 23.5 57s-7.83301 41.834 -23.5 57.501s-34.834 23.5 -57.501 23.5s-41.667 -7.83301 -57 -23.5
s-23 -34.834 -23 -57.501s7.66699 -41.667 23 -57s34.333 -23 57 -23v0z" />
    <glyph glyph-name="uring" unicode="&#x16f;" 
d="M430 925v-622c0 -35.333 10.333 -62.333 31 -81s50.667 -28 90 -28c51.333 0 101.333 10.667 150 32c31.333 13.333 61.333 31.333 90 54v0v456h-169v189h166h166h55v-736h165v-189h-186h-186v0v47v0v0l-35 -18c-68 -35.333 -132.333 -53 -193 -53
c-116.667 0 -206.167 26.167 -268.5 78.5s-93.5 127.5 -93.5 225.5v456h-169v189h166h166h55zM610 1079c-59.333 0 -109.333 20.333 -150 61s-61 90.667 -61 150s20.333 109.5 61 150.5s90.667 61.5 150 61.5s109.5 -20.5 150.5 -61.5s61.5 -91.167 61.5 -150.5
s-20.5 -109.333 -61.5 -150s-91.167 -61 -150.5 -61v0zM610 1202c24.667 0 45.667 8.5 63 25.5s26 37.833 26 62.5s-8.66699 45.667 -26 63s-38.333 26 -63 26s-45.5 -8.66699 -62.5 -26s-25.5 -38.333 -25.5 -63s8.5 -45.5 25.5 -62.5s37.833 -25.5 62.5 -25.5v0z" />
    <glyph glyph-name="Uhungarumlaut" unicode="&#x170;" 
d="M1062 406c0 -144.667 -35.168 -252.334 -105.501 -323.001s-177.833 -106 -322.5 -106s-252.334 35.333 -323.001 106s-106 178.334 -106 323.001v576h-171v189h270h271v-189h-150v-578c0 -70.667 17.333 -123.334 52 -158.001s87.334 -52 158.001 -52
s123.334 17.333 158.001 52s52 87.334 52 158.001v578h-171v189h275h275v-189h-162v-576zM329.999 1345l340 398l166 -84l-407 -365zM691.999 1345l340 398l166 -84l-407 -365z" />
    <glyph glyph-name="uhungarumlaut" unicode="&#x171;" 
d="M430 925v-622c0 -35.333 10.333 -62.333 31 -81s50.667 -28 90 -28c51.333 0 101.333 10.667 150 32c31.333 13.333 61.333 31.333 90 54v0v456h-169v189h166h166h55v-736h165v-189h-186h-186v0v47v0v0l-35 -18c-68 -35.333 -132.333 -53 -193 -53
c-116.667 0 -206.167 26.167 -268.5 78.5s-93.5 127.5 -93.5 225.5v456h-169v189h166h166h55zM306 1099l340 398l166 -84l-407 -365zM668 1099l340 398l166 -84l-407 -365z" />
    <glyph glyph-name="Uogonek" unicode="&#x172;" 
d="M1062 406c0 -144.667 -35.168 -252.334 -105.501 -323.001s-177.833 -106 -322.5 -106s-252.334 35.333 -323.001 106s-106 178.334 -106 323.001v576h-171v189h270h271v-189h-150v-578c0 -70.667 17.333 -123.334 52 -158.001s87.334 -52 158.001 -52
s123.334 17.333 158.001 52s52 87.334 52 158.001v578h-171v189h275h275v-189h-162v-576zM504.999 -133c0 44.667 19.8311 85.001 59.498 121.001s96.167 65.333 169.5 88h171c-70 -26.667 -120.667 -53.334 -152 -80.001s-47 -57 -47 -91c0 -20 6 -36.833 18 -50.5
s26.667 -20.5 44 -20.5c14.667 0 33.167 6.83301 55.5 20.5s45.833 32.5 70.5 56.5l-25 -147c-23.333 -20.667 -51.666 -37.167 -84.999 -49.5s-65.666 -18.5 -96.999 -18.5c-53.333 0 -97 16 -131 48s-51 73 -51 123z" />
    <glyph glyph-name="uogonek" unicode="&#x173;" 
d="M430 925v-622c0 -35.333 10.333 -62.333 31 -81s50.667 -28 90 -28c51.333 0 101.333 10.667 150 32c31.333 13.333 61.333 31.333 90 54v0v456h-169v189h166h166h55v-736h165v-189h-186h-186v0v47v0v0l-35 -18c-68 -35.333 -132.333 -53 -193 -53
c-116.667 0 -206.167 26.167 -268.5 78.5s-93.5 127.5 -93.5 225.5v456h-169v189h166h166h55zM630 -181c0 47.333 17.834 90.501 53.501 129.501s86.167 70.833 151.5 95.5h219c-78.667 -34 -137.5 -66.333 -176.5 -97s-58.5 -60.334 -58.5 -89.001
c0 -19.333 5.5 -34.166 16.5 -44.499s26.5 -15.5 46.5 -15.5c18 0 40.667 7 68 21s56.333 33.667 87 59l-28 -161c-24 -24.667 -53.333 -44.5 -88 -59.5s-68.334 -22.5 -101.001 -22.5c-53.333 0 -98.333 18 -135 54c-36.667 35.333 -55 78.666 -55 129.999z" />
    <glyph glyph-name="Ydieresis" unicode="&#x178;" 
d="M511 455l-305 527h-161v189h256h256v-189h-107l176 -327v0l191 327h-131v189h258h259v-189h-153l-319 -513v0v-280h273v-189h-374h-375v189h256v266zM345 1642h254v-305h-254v305zM665 1642h254v-305h-254v305z" />
    <glyph glyph-name="Zacute" unicode="&#x179;" 
d="M150 171l595 783v0h-406v-266h-189v241v242v0h512v0h369v-85v-86l-596 -783v0h452v290h191v-253v-254v0h-559v0h-369v85v86zM325 1418l587 256l75 -221l-620 -159z" />
    <glyph glyph-name="zacute" unicode="&#x17a;" 
d="M188 163l523 547v0h-306v-157h-189v186v186v0h461v0h363v-81v-82l-523 -547v0h323v188h189v-201v-202v0h-478v0h-363v81v82zM363 1172l587 256l75 -221l-620 -159z" />
    <glyph glyph-name="Zdotaccent" unicode="&#x17b;" 
d="M150 171l595 783v0h-406v-266h-189v241v242v0h512v0h369v-85v-86l-596 -783v0h452v290h191v-253v-254v0h-559v0h-369v85v86zM464 1642h252v-306h-252v306z" />
    <glyph glyph-name="zdotaccent" unicode="&#x17c;" 
d="M188 163l523 547v0h-306v-157h-189v186v186v0h461v0h363v-81v-82l-523 -547v0h323v188h189v-201v-202v0h-478v0h-363v81v82zM502 1396h252v-306h-252v306z" />
    <glyph glyph-name="Zcaron" unicode="&#x17d;" 
d="M150 171l595 783v0h-406v-266h-189v241v242v0h512v0h369v-85v-86l-596 -783v0h452v290h191v-253v-254v0h-559v0h-369v85v86zM478 1294l-304 290l138 88l278 -219v0l278 219l138 -88l-304 -290h-112h-112z" />
    <glyph glyph-name="zcaron" unicode="&#x17e;" 
d="M188 163l523 547v0h-306v-157h-189v186v186v0h461v0h363v-81v-82l-523 -547v0h323v188h189v-201v-202v0h-478v0h-363v81v82zM516 1048l-304 290l138 88l278 -219v0l278 219l138 -88l-304 -290h-112h-112z" />
    <glyph glyph-name="florin" unicode="&#x192;" 
d="M693 708l-121.002 -630c-19.333 -106 -62.166 -184 -128.499 -234s-159.166 -75 -278.499 -75c-52 0 -88.667 0.666992 -110 2s-52.333 4.66602 -93 9.99902l123 217c38 -5.33301 65 -8.66602 81 -9.99902s40 -2 72 -2c39.333 0 68.666 11.667 87.999 35
s34.666 65 45.999 125l108 562v0h-194l41 217h194v0l26 135c16.667 89.333 57.334 155 122.001 197s156.667 63 276 63c51.333 0 87.833 -0.666992 109.5 -2s52.834 -4.66602 93.501 -9.99902l-123 -217c-35.333 5.33301 -61 8.66602 -77 9.99902s-40.667 2 -74 2
c-40 0 -69.167 -8 -87.5 -24s-31.5 -45 -39.5 -87l-13 -67v0h193l-41 -217h-193z" />
    <glyph glyph-name="circumflex" unicode="&#x2c6;" 
d="M732 1426l304 -290l-138 -88l-278 219v0l-278 -219l-138 88l304 290h112h112z" />
    <glyph glyph-name="caron" unicode="&#x2c7;" 
d="M508 1048l-304 290l138 88l278 -219v0l278 219l138 -88l-304 -290h-112h-112z" />
    <glyph glyph-name="uni02C9" unicode="&#x2c9;" 
d="M184 1269h860v-217h-860v217z" />
    <glyph glyph-name="breve" unicode="&#x2d8;" 
d="M630 1048c-114 0 -209.333 28.833 -286 86.5s-128.667 139.5 -156 245.5h222c15.333 -46 42.333 -82 81 -108s85 -39 139 -39s100.333 13 139 39s65.667 62 81 108h222c-27.333 -106 -79.333 -187.833 -156 -245.5s-172 -86.5 -286 -86.5z" />
    <glyph glyph-name="dotaccent" unicode="&#x2d9;" 
d="M512 1396h252v-306h-252v306z" />
    <glyph glyph-name="ring" unicode="&#x2da;" 
d="M622 1079c-59.333 0 -109.333 20.333 -150 61s-61 90.667 -61 150s20.333 109.5 61 150.5s90.667 61.5 150 61.5s109.5 -20.5 150.5 -61.5s61.5 -91.167 61.5 -150.5s-20.5 -109.333 -61.5 -150s-91.167 -61 -150.5 -61v0zM622 1202c24.667 0 45.667 8.5 63 25.5
s26 37.833 26 62.5s-8.66699 45.667 -26 63s-38.333 26 -63 26s-45.5 -8.66699 -62.5 -26s-25.5 -38.333 -25.5 -63s8.5 -45.5 25.5 -62.5s37.833 -25.5 62.5 -25.5v0z" />
    <glyph glyph-name="ogonek" unicode="&#x2db;" 
d="M657 -181c0 47.333 17.834 90.501 53.501 129.501s86.167 70.833 151.5 95.5h219c-78.667 -34 -137.5 -66.333 -176.5 -97s-58.5 -60.334 -58.5 -89.001c0 -19.333 5.5 -34.166 16.5 -44.499s26.5 -15.5 46.5 -15.5c18 0 40.667 7 68 21s56.333 33.667 87 59l-28 -161
c-24 -24.667 -53.333 -44.5 -88 -59.5s-68.334 -22.5 -101.001 -22.5c-53.333 0 -98.333 18 -135 54c-36.667 35.333 -55 78.666 -55 129.999z" />
    <glyph glyph-name="tilde" unicode="&#x2dc;" 
d="M203 1109c29.333 96 67.8301 167.83 115.497 215.497s104.834 71.5 171.501 71.5c38.667 0 75.167 -7.66699 109.5 -23s70.833 -40 109.5 -74c16.667 -14.667 32.667 -26.167 48 -34.5s28.333 -12.5 39 -12.5c18.667 0 36.334 14.333 53.001 43s28.334 64.667 35.001 108
l193 -56c-25.333 -99.333 -61.833 -173.666 -109.5 -222.999s-106.834 -74 -177.501 -74c-41.333 0 -79.166 7.33301 -113.499 22s-69.5 38.334 -105.5 71.001c-20 18 -37.167 32 -51.5 42s-24.5 15 -30.5 15c-16 0 -31.833 -14.167 -47.5 -42.5
s-27.5 -64.166 -35.5 -107.499z" />
    <glyph glyph-name="hungarumlaut" unicode="&#x2dd;" 
d="M337 1099l340 398l166 -84l-407 -365zM699 1099l340 398l166 -84l-407 -365z" />
    <glyph glyph-name="pi" unicode="&#x3c0;" 
d="M144 704c49.333 65.333 97.6689 112.833 145.002 142.5s97.666 43.5 150.999 41.5l71 2h662l-44 -115h-197c-14.667 -84.667 -25.834 -203.167 -33.501 -355.5s-7.5 -251.833 0.5 -298.5c11.333 -58 13 -97 5 -117s-28.667 -30 -62 -30c-16 0 -30.333 8 -43 24
s-20 35.667 -22 59c-8.66699 93.333 -9.5 199.666 -2.5 318.999s22.167 252.333 45.5 399h-187l-147 -734c-4.66699 -23.333 -12 -40.333 -22 -51s-23.333 -16 -40 -16c-23.333 0 -39.5 8.5 -48.5 25.5s-9.5 39.833 -1.5 68.5l148 707l-125 -1
c-40.667 -1.33301 -74.667 -9.16602 -102 -23.499s-71.333 -47.5 -132 -99.5z" />
    <glyph glyph-name="endash" unicode="&#x2013;" 
d="M157 610h912v-220h-912v220z" />
    <glyph glyph-name="emdash" unicode="&#x2014;" 
d="M3 610h1222v-220h-1222v220z" />
    <glyph glyph-name="quoteleft" unicode="&#x2018;" 
d="M681 632l-251 626h298l176 -626h-223z" />
    <glyph glyph-name="quoteright" unicode="&#x2019;" 
d="M314 545l176 626h298l-251 -626h-223z" />
    <glyph glyph-name="quotesinglbase" unicode="&#x201a;" 
d="M314 -242l176 625h298l-251 -625h-223z" />
    <glyph glyph-name="quotedblleft" unicode="&#x201c;" 
d="M473 632l-251 626h298l176 -626h-223zM887 632l-251 626h298l176 -626h-223z" />
    <glyph glyph-name="quotedblright" unicode="&#x201d;" 
d="M106 545l176 626h298l-251 -626h-223zM520 545l176 626h298l-251 -626h-223z" />
    <glyph glyph-name="quotedblbase" unicode="&#x201e;" 
d="M106 -242l176 626h298l-251 -626h-223zM520 -242l176 626h298l-251 -626h-223z" />
    <glyph glyph-name="dagger" unicode="&#x2020;" 
d="M239 884h263v0v287h224v-287v0h263v-224h-263v0v-754h-224v754v0h-263v224z" />
    <glyph glyph-name="daggerdbl" unicode="&#x2021;" 
d="M239 888h265v0v283h220v-283v0h265v-220h-265v0v-159v0h265v-220h-265v0v-383h-220v383v0h-265v220h265v0v159v0h-265v220z" />
    <glyph glyph-name="bullet" unicode="&#x2022;" 
d="M615 959c103.333 0 190.833 -35.833 262.5 -107.5s107.5 -159.167 107.5 -262.5s-35.833 -190.833 -107.5 -262.5s-159.167 -107.5 -262.5 -107.5s-190.833 35.833 -262.5 107.5s-107.5 159.167 -107.5 262.5s35.833 190.833 107.5 262.5s159.167 107.5 262.5 107.5z" />
    <glyph glyph-name="ellipsis" unicode="&#x2026;" 
d="M213 270c46.667 0 86 -14.167 118 -42.5s48 -63.166 48 -104.499c0 -40.667 -16 -75.167 -48 -103.5s-71.333 -42.5 -118 -42.5s-86 14.167 -118 42.5s-48 62.833 -48 103.5c0 41.333 16 76.166 48 104.499s71.333 42.5 118 42.5zM619 270c46.667 0 86 -14.167 118 -42.5
s48 -63.166 48 -104.499c0 -40.667 -16 -75.167 -48 -103.5s-71.333 -42.5 -118 -42.5s-86 14.167 -118 42.5s-48 62.833 -48 103.5c0 41.333 16 76.166 48 104.499s71.333 42.5 118 42.5zM1025 270c46.667 0 86 -14.167 118 -42.5s48 -63.166 48 -104.499
c0 -40.667 -16 -75.167 -48 -103.5s-71.333 -42.5 -118 -42.5s-86 14.167 -118 42.5s-48 62.833 -48 103.5c0 41.333 16 76.166 48 104.499s71.333 42.5 118 42.5z" />
    <glyph glyph-name="perthousand" unicode="&#x2030;" 
d="M122 681c-86 0 -158.833 28.5 -218.5 85.5s-89.5 126.833 -89.5 209.5c0 81.333 29.833 150 89.5 206s132.5 84 218.5 84c86.667 0 159.834 -28 219.501 -84s89.5 -124.667 89.5 -206c0 -82.667 -29.833 -152.5 -89.5 -209.5s-132.834 -85.5 -219.501 -85.5v0zM122 1097
c-38.667 0 -71.167 -11.833 -97.5 -35.5s-39.5 -52.834 -39.5 -87.501s13.167 -64 39.5 -88s58.833 -36 97.5 -36s71.334 12 98.001 36s40 53.333 40 88s-13.333 63.834 -40 87.501s-59.334 35.5 -98.001 35.5v0zM-179 489l912 383l72 -157l-912 -383zM474 -75
c-86 0 -158.833 28.5 -218.5 85.5s-89.5 126.833 -89.5 209.5c0 81.333 29.833 150 89.5 206s132.5 84 218.5 84c86.667 0 159.834 -28 219.501 -84s89.5 -124.667 89.5 -206c0 -82.667 -29.833 -152.5 -89.5 -209.5s-132.834 -85.5 -219.501 -85.5v0zM474 341
c-38.667 0 -71.167 -11.833 -97.5 -35.5s-39.5 -52.834 -39.5 -87.501s13.167 -64 39.5 -88s58.833 -36 97.5 -36s71.334 12 98.001 36s40 53.333 40 88s-13.333 63.834 -40 87.501s-59.334 35.5 -98.001 35.5v0zM1122 -75c-86 0 -158.833 28.5 -218.5 85.5
s-89.5 126.833 -89.5 209.5c0 81.333 29.833 150 89.5 206s132.5 84 218.5 84c86.667 0 159.834 -28 219.501 -84s89.5 -124.667 89.5 -206c0 -82.667 -29.833 -152.5 -89.5 -209.5s-132.834 -85.5 -219.501 -85.5v0zM1122 341c-38.667 0 -71.167 -11.833 -97.5 -35.5
s-39.5 -52.834 -39.5 -87.501s13.167 -64 39.5 -88s58.833 -36 97.5 -36s71.334 12 98.001 36s40 53.333 40 88s-13.333 63.834 -40 87.501s-59.334 35.5 -98.001 35.5v0z" />
    <glyph glyph-name="guilsinglleft" unicode="&#x2039;" 
d="M938 749l-337 -267v0l337 -267l-122 -169l-526 436v0l526 436z" />
    <glyph glyph-name="guilsinglright" unicode="&#x203a;" 
d="M290 215l337 267v0l-337 267l122 169l526 -436v0l-526 -436z" />
    <glyph glyph-name="fraction" unicode="&#x2044;" 
d="M1227 1194l-1074 -1354l-107 78l1073 1352z" />
    <glyph glyph-name="uni2074" unicode="&#x2074;" 
d="M565 663h-291v61v62l263 444h83h83v-448v0h70v-119h-70v0v-124h-69h-69v124v0zM565 782v254v0v0l-148 -250l-2 -4v0h150z" />
    <glyph glyph-name="Euro" unicode="&#x20ac;" 
d="M1186 148c-83.333 -62.667 -159.333 -106.833 -228 -132.5s-145.667 -38.5 -231 -38.5c-161.333 0 -293.333 60.333 -396 181c-55.333 65.333 -96.333 140.333 -123 225h-182l47 181h104v57v45h-151l47 181h134c26 88 67.333 164.333 124 229
c102.667 118 234.667 177 396 177c100.667 0.666992 190 -24 268 -74v0v74h191v0v-453v0h-191v0v152c-47.333 33.333 -90.5 56.5 -129.5 69.5s-84.833 19.5 -137.5 19.5c-97.333 0 -177 -39.333 -239 -118c-18 -22.667 -33.333 -48 -46 -76h419l-47 -181h-417l-1 -47l2 -55
h391l-47 -181h-298c14.667 -25.333 31 -50 49 -74c64 -80 146.333 -120 247 -120c60.667 0 116.667 10.167 168 30.5s109 55.5 173 105.5z" />
    <glyph glyph-name="trademark" unicode="&#x2122;" 
d="M114 1388h393v-89h-152v-518h-89v518h-152v89zM570 781v607h160l112 -486l112 486h160v-607h-89v559l-129 -559h-108l-129 559v-559h-89z" />
    <glyph glyph-name="uni2126" unicode="&#x2126;" 
d="M562 0l-372.999 0.00488281l-58 222l44 9c23.333 -54 44.5 -87 63.5 -99s60.833 -19 125.5 -21h56c-6 26 -18 56.667 -36 92s-41.667 73.666 -71 114.999c-79.333 112.667 -133.333 200.5 -162 263.5s-43 124.5 -43 184.5c0 127.333 48.167 230 144.5 308
s223.166 117 380.499 117c160 0 287.833 -38.667 383.5 -116s143.5 -180.333 143.5 -309c0 -56 -15.667 -118.333 -47 -187s-84 -155.667 -158 -261c-32 -45.333 -56 -83.833 -72 -115.5s-27.333 -62.167 -34 -91.5h56c63.333 2 104.5 9 123.5 21s40.5 45 64.5 99l45 -9
l-59 -222h-374c32 111.333 59.167 190.666 81.5 237.999s69.5 126 141.5 236c46 70 77.333 125.167 94 165.5s25 81.166 25 122.499c0 93.333 -38.5 169.666 -115.5 228.999s-176.167 89 -297.5 89c-120.667 0 -220 -29.333 -298 -88s-117 -133.334 -117 -224.001
c0 -34.667 10.5 -77.5 31.5 -128.5s50.833 -106.167 89.5 -165.5c57.333 -87.333 103 -167.333 137 -240s62.333 -150.667 85 -234z" />
    <glyph glyph-name="partialdiff" unicode="&#x2202;" 
d="M229 357c0 144 46.668 272.334 140.001 385.001s200 169 320 169c35.333 0 70.666 -5.33301 105.999 -16s65.333 -25 90 -43c-7.33301 115.333 -30.333 203.166 -69 263.499s-91.667 90.5 -159 90.5c-30 0 -58 -9.33301 -84 -28s-51 -47.334 -75 -86.001
c-4 -7.33301 -9.16699 -13.333 -15.5 -18s-12.166 -7 -17.499 -7c-14.667 0 -26.334 4.33301 -35.001 13s-13 20.667 -13 36c1.33301 50.667 27.333 96.834 78 138.501s106 62.5 166 62.5c104 0 185.833 -51.5 245.5 -154.5s89.5 -243.833 89.5 -422.5
c0 -222 -43.333 -405.167 -130 -549.5s-196.667 -216.5 -330 -216.5c-90 0 -163.667 35.667 -221 107s-86 163.333 -86 276zM340.001 345.001c0 -74.667 17.833 -136.666 53.5 -185.999s80.5 -74 134.5 -74c65.333 0 126 31.667 182 95s98.667 148.666 128 255.999
c32.667 118.667 34.834 209 6.50098 271s-85.5 93 -171.5 93c-88.667 0 -166.334 -45.5 -233.001 -136.5s-100 -197.167 -100 -318.5z" />
    <glyph glyph-name="uni2206" unicode="&#x2206;" 
d="M580 1166h70l453 -1096l-46 -70h-884l-46 70zM610 975l-349 -864h699z" />
    <glyph glyph-name="product" unicode="&#x220f;" 
d="M205 -305v1589h-174v111h1167v-111h-174v-1589h-111v1589h-597v-1589h-111z" />
    <glyph glyph-name="summation" unicode="&#x2211;" 
d="M62 -305v143l600 722l-584 685v150h1110v-111h-1000l631 -724l-641 -754h1010v0v-111h-1126z" />
    <glyph glyph-name="minus" unicode="&#x2212;" 
d="M176 565h876v-220h-876v220z" />
    <glyph glyph-name="uni2215" unicode="&#x2215;" 
d="M1227 1194l-1074 -1354l-107 78l1073 1352z" />
    <glyph glyph-name="uni2219" unicode="&#x2219;" 
d="M644 781c62 0 114.5 -19 157.5 -57s64.5 -84.333 64.5 -139s-21.5 -100.834 -64.5 -138.501s-95.5 -56.5 -157.5 -56.5s-114.5 18.833 -157.5 56.5s-64.5 83.834 -64.5 138.501s21.5 101 64.5 139s95.5 57 157.5 57z" />
    <glyph glyph-name="radical" unicode="&#x221a;" 
d="M230 777h212l129 -548l549 1516h269v-111h-153l-624 -1720h-106l-176 752h-100v111z" />
    <glyph glyph-name="infinity" unicode="&#x221e;" 
d="M55 434c0 104.667 28.165 193.166 84.498 265.499s125.5 108.5 207.5 108.5c56.667 0 106.334 -17 149.001 -51s82 -88 118 -162c38 74 78.333 128 121 162s91.334 51 146.001 51c82 0 151.167 -35.667 207.5 -107s84.5 -158.666 84.5 -261.999
s-28.167 -190.833 -84.5 -262.5s-125.166 -107.5 -206.499 -107.5c-57.333 0 -106.5 16.333 -147.5 49s-81.167 87.667 -120.5 165c-40 -81.333 -79.333 -137.333 -118 -168s-89.334 -46 -152.001 -46c-80.667 0 -149 35.333 -205 106s-84 157 -84 259zM165.998 436.999
c0 -75.333 15.332 -136.999 45.999 -184.999s70 -72 118 -72c44 0 85.333 22.667 124 68s71.667 109.666 99 192.999c-31.333 92 -63.833 157.667 -97.5 197s-74.167 59 -121.5 59s-87.166 -25.167 -119.499 -75.5s-48.5 -111.833 -48.5 -184.5zM1062 437
c0 72.667 -16.333 134.166 -49 184.499s-72.667 75.5 -120 75.5c-45.333 0 -84 -18.833 -116 -56.5s-66 -104.167 -102 -199.5c24 -83.333 55.333 -147.666 94 -192.999s82 -68 130 -68c50 0 89.667 23.167 119 69.5s44 108.833 44 187.5z" />
    <glyph glyph-name="integral" unicode="&#x222b;" 
d="M143 -69c21.333 -3.33301 44.6689 -5.99609 70.002 -7.99609s45.666 -3 60.999 -3c94 0 167 28.167 219 84.5s83.333 141.166 94 254.499c2 24 3.83301 50.667 5.5 80s2.5 53.333 2.5 72v511c0 83.333 4 169.166 12 257.499s17.667 154.833 29 199.5
c28.667 111.333 78.5 197 149.5 257s158.167 90 261.5 90c75.333 0 112.666 -2.33301 111.999 -7v-111c-21.333 2 -42 3.66699 -62 5s-33.667 2 -41 2c-94 0 -169 -28.667 -225 -86s-93 -143.666 -111 -258.999c-4 -24.667 -7.33301 -62.834 -10 -114.501
s-4 -102.834 -4 -153.501v-401c0 -56.667 -0.333008 -113.334 -1 -170.001s-1.33398 -97.667 -2.00098 -123c-5.33301 -156.667 -46.333 -279 -123 -367s-180.667 -132 -312 -132c-17.333 0 -38.166 1 -62.499 3s-45.5 4.66699 -63.5 8z" />
    <glyph glyph-name="approxequal" unicode="&#x2248;" 
d="M42 257c49.333 49.333 102.831 89.166 160.498 119.499s108.834 45.5 153.501 45.5c30 0 72.167 -5.33301 126.5 -16s105.5 -24 153.5 -40c46 -14.667 91.5 -27.167 136.5 -37.5s76.833 -15.5 95.5 -15.5c44.667 0 86.834 8 126.501 24s71.167 37.333 94.5 64l62 -97
c-27.333 -27.333 -70 -51.166 -128 -71.499s-112.333 -30.5 -163 -30.5c-25.333 0 -53.5 2.16699 -84.5 6.5s-56.167 9.83301 -75.5 16.5c-81.333 26.667 -153.333 47.667 -216 63s-106.667 23 -132 23c-32.667 0 -73 -13.167 -121 -39.5s-90.667 -58.833 -128 -97.5z
M41.998 495c49.333 49.333 102.831 89.166 160.498 119.499s108.834 45.5 153.501 45.5c30 0 72.167 -5.33301 126.5 -16s105.5 -24 153.5 -40c46 -14.667 91.5 -27.167 136.5 -37.5s76.833 -15.5 95.5 -15.5c44.667 0 86.834 8 126.501 24s71.167 37.333 94.5 64l62 -97
c-27.333 -27.333 -70 -51.166 -128 -71.499s-112.333 -30.5 -163 -30.5c-25.333 0 -53.5 2.16699 -84.5 6.5s-56.167 9.83301 -75.5 16.5c-81.333 26.667 -153.333 47.667 -216 63s-106.667 23 -132 23c-32.667 0 -73 -13.167 -121 -39.5s-90.667 -58.833 -128 -97.5z" />
    <glyph glyph-name="notequal" unicode="&#x2260;" 
d="M175 -31l190 255h-190v111h274l160 208h-434v111h532l207 255h139l-206 -255h206v-111h-307l-158 -208h465v-111h-548l-191 -255h-139z" />
    <glyph glyph-name="lessequal" unicode="&#x2264;" 
d="M1023 810v-111l-705 -211l705 -211v-111l-816 250v144zM207 111h816v-111h-816v111z" />
    <glyph glyph-name="greaterequal" unicode="&#x2265;" 
d="M206 810l816 -250v-144l-816 -250v111l705 211l-705 211v111zM206 111h816v-111h-816v111z" />
    <glyph glyph-name="lozenge" unicode="&#x25ca;" 
d="M559 1423h110l404 -712l-404 -711h-110l-404 711zM614 1324l-349 -613l349 -615l349 615z" />
    <glyph glyph-name="uniEFED" unicode="&#xefed;" 
d="M518 1642h252v-306h-252v306z" />
    <glyph glyph-name="uniEFEE" unicode="&#xefee;" 
d="M635 1294c-114 0 -209.333 28.833 -286 86.5s-128.667 139.5 -156 245.5h222c15.333 -46 42.333 -82 81 -108s85 -39 139 -39s100.333 13 139 39s65.667 62 81 108h222c-27.333 -106 -79.333 -187.833 -156 -245.5s-172 -86.5 -286 -86.5z" />
    <glyph glyph-name="uniEFEF" unicode="&#xefef;" 
d="M184 1487h860v-217h-860v217z" />
    <glyph glyph-name="uniEFF0" unicode="&#xeff0;" 
d="M337 1345l340 398l166 -84l-407 -365zM699 1345l340 398l166 -84l-407 -365z" />
    <glyph glyph-name="uniEFF1" unicode="&#xeff1;" 
d="M559 -168c0 44.667 19.8311 85.001 59.498 121.001s96.167 65.333 169.5 88h171c-70 -26.667 -120.667 -53.334 -152 -80.001s-47 -57 -47 -91c0 -20 6 -36.833 18 -50.5s26.667 -20.5 44 -20.5c14.667 0 33.167 6.83301 55.5 20.5s45.833 32.5 70.5 56.5l-25 -147
c-23.333 -20.667 -51.666 -37.167 -84.999 -49.5s-65.666 -18.5 -96.999 -18.5c-53.333 0 -97 16 -131 48s-51 73 -51 123z" />
    <glyph glyph-name="uniEFF2" unicode="&#xeff2;" 
d="M682 0l-0.999023 -48v0c43.333 -5.33301 76.666 -19.333 99.999 -42c28.667 -28 43 -70.333 43 -127c0 -61.333 -17.5 -111.333 -52.5 -150s-79.833 -58 -134.5 -58c-30.667 0 -58 4.33301 -82 13s-50 23.667 -78 45l57 94c13.333 -9.33301 28.666 -16.833 45.999 -22.5
s33.333 -8.5 48 -8.5c18.667 0 32.167 5.83301 40.5 17.5s12.5 30.167 12.5 55.5c0 20 -4.83301 34.833 -14.5 44.5s-24.5 14.5 -44.5 14.5c-12 0 -25.667 -2 -41 -6s-28.666 -9 -39.999 -15v0l18 193h123z" />
    <glyph glyph-name="uniEFF3" unicode="&#xeff3;" 
d="M619 1286c-56.667 0 -104.667 19.667 -144 59s-59 87.333 -59 144c0 57.333 19.667 105.666 59 144.999s87.333 59 144 59c57.333 0 105.666 -19.667 144.999 -59s59 -87.666 59 -144.999c0 -56.667 -19.667 -104.667 -59 -144s-87.666 -59 -144.999 -59v0zM619 1409
c22.667 0 41.834 7.66699 57.501 23s23.5 34.333 23.5 57s-7.83301 41.834 -23.5 57.501s-34.834 23.5 -57.501 23.5s-41.667 -7.83301 -57 -23.5s-23 -34.834 -23 -57.501s7.66699 -41.667 23 -57s34.333 -23 57 -23v0z" />
    <glyph glyph-name="uniEFF4" unicode="&#xeff4;" 
d="M508 1294l-304 290l138 88l278 -219v0l278 219l138 -88l-304 -290h-112h-112z" />
    <glyph glyph-name="uniEFF5" unicode="&#xeff5;" 
d="M212 1335c28.667 92.667 67.335 164.167 116.002 214.5s103.667 75.5 165 75.5c40 0 76.833 -7.33301 110.5 -22s68.834 -38.667 105.501 -72c18.667 -16.667 36.5 -29.667 53.5 -39s31.167 -14 42.5 -14c18.667 0 36.167 14.667 52.5 44s27.5 66 33.5 110l193 -56
c-23.333 -96 -59.333 -170 -108 -222s-106.334 -78 -173.001 -78c-39.333 0 -77.333 7.83301 -114 23.5s-76.667 41.5 -120 77.5c-16.667 14 -31.334 25 -44.001 33s-21.667 12 -27 12c-15.333 0 -30.833 -13.833 -46.5 -41.5s-27.834 -62.5 -36.501 -104.5z" />
    <glyph glyph-name="uniEFF6" unicode="&#xeff6;" 
d="M332 1642h254v-305h-254v305zM652 1642h254v-305h-254v305z" />
    <glyph glyph-name="uniEFF7" unicode="&#xeff7;" 
d="M732 1672l304 -290l-138 -88l-278 219v0l-278 -219l-138 88l304 290h112h112z" />
    <glyph glyph-name="uniEFF8" unicode="&#xeff8;" 
d="M944 1294l-630 163l75 220l598 -258z" />
    <glyph glyph-name="uniEFF9" unicode="&#xeff9;" 
d="M360 1418l587 256l75 -221l-620 -159z" />
    <glyph glyph-name="uniF001" unicode="&#xf001;" 
d="M437 708l0.000976562 -518.999h206v-189h-313h-313v189h202v519v0h-177v217h177v0v87c0 105.333 25 183 75 233s127.667 75 233 75c34 0 59 -0.5 75 -1.5s40.667 -3.5 74 -7.5l-30 -211c-20 1.33301 -36.833 2.16602 -50.5 2.49902s-40.834 0.5 -81.501 0.5
c-28.667 0 -48.667 -6.66699 -60 -20s-17 -37 -17 -71v-87v0h178v-217h-178zM797.001 189.001v547h-169v189h166h166h55v-736h204v-189h-314h-315v189h207zM760.001 1378h248v-333h-248v333z" />
    <glyph glyph-name="uniF002" unicode="&#xf002;" 
d="M429 708l-0.000976562 -518.999h209v-189h-312h-313v189h198v519v0h-171v217h171v0v87c0 105.333 26.167 183 78.5 233s133.833 75 244.5 75c39.333 0 67.333 -0.5 84 -1.5s40.334 -3.5 71.001 -7.5l-30 -211c-21.333 1.33301 -39 2.16602 -53 2.49902
s-41.333 0.5 -82 0.5c-36 0 -60.833 -6.66699 -74.5 -20s-20.5 -37 -20.5 -71v-87v0h172v-217h-172zM786.999 189.001v898h-86v189h124h125h55v-1087h209v-189h-314h-315v189h202z" />
    <glyph glyph-name="uniFB01" unicode="&#xfb01;" 
d="M437 708l0.000976562 -518.999h206v-189h-313h-313v189h202v519v0h-177v217h177v0v87c0 105.333 25 183 75 233s127.667 75 233 75c34 0 59 -0.5 75 -1.5s40.667 -3.5 74 -7.5l-30 -211c-20 1.33301 -36.833 2.16602 -50.5 2.49902s-40.834 0.5 -81.501 0.5
c-28.667 0 -48.667 -6.66699 -60 -20s-17 -37 -17 -71v-87v0h178v-217h-178zM797.001 189.001v547h-169v189h166h166h55v-736h204v-189h-314h-315v189h207zM760.001 1378h248v-333h-248v333z" />
    <glyph glyph-name="glyph1" horiz-adv-x="0" 
 />
    <glyph glyph-name="glyph106" horiz-adv-x="0" 
d="M-1 1529c134 0 247.167 -46.167 339.5 -138.5s138.5 -205.5 138.5 -339.5c0 -133.333 -46.167 -246.166 -138.5 -338.499s-205.5 -138.5 -339.5 -138.5c-133.333 0 -246.166 46.167 -338.499 138.5s-138.5 205.166 -138.5 338.499c0 134 46.167 247.167 138.5 339.5
s205.166 138.5 338.499 138.5v0zM412 1051c0 115.333 -40 213 -120 293s-177.667 120 -293 120s-212.833 -40 -292.5 -120s-119.5 -177.667 -119.5 -293s39.833 -212.833 119.5 -292.5s177.167 -119.5 292.5 -119.5s213 39.833 293 119.5s120 177.167 120 292.5v0z" />
    <glyph glyph-name="glyph107" horiz-adv-x="0" 
d="M215 866c-16 -22.667 -43.0029 -41.666 -81.0029 -56.999s-76.333 -23 -115 -23c-73.333 0 -135.5 26.5 -186.5 79.5s-76.5 117.833 -76.5 194.5c0 77.333 25.167 142.5 75.5 195.5s111.833 79.5 184.5 79.5c38.667 0 76.834 -7.33301 114.501 -22
s64.167 -32.667 79.5 -54l-58 -62c-12.667 17.333 -32.167 32.166 -58.5 44.499s-52.166 18.5 -77.499 18.5c-52 0 -95.833 -19.333 -131.5 -58s-53.5 -86 -53.5 -142s18.167 -103.167 54.5 -141.5s80.833 -57.5 133.5 -57.5c24.667 0 50.334 6.5 77.001 19.5
s47 28.833 61 47.5z" />
    <glyph glyph-name="glyph113" horiz-adv-x="0" 
d="M-1 1524c134 0 247.167 -46.167 339.5 -138.5s138.5 -205.5 138.5 -339.5c0 -133.333 -46.167 -246.166 -138.5 -338.499s-205.5 -138.5 -339.5 -138.5c-133.333 0 -246.166 46.167 -338.499 138.5s-138.5 205.166 -138.5 338.499c0 134 46.167 247.167 138.5 339.5
s205.166 138.5 338.499 138.5v0zM412 1046c0 115.333 -40 213 -120 293s-177.667 120 -293 120s-212.833 -40 -292.5 -120s-119.5 -177.667 -119.5 -293s39.833 -212.833 119.5 -292.5s177.167 -119.5 292.5 -119.5s213 39.833 293 119.5s120 177.167 120 292.5v0z" />
    <glyph glyph-name="glyph114" horiz-adv-x="0" 
d="M-160 807v505.998h187c41.333 0 76.166 -14.167 104.499 -42.5s42.5 -63.166 42.5 -104.499s-14.333 -76.333 -43 -105c-13.333 -13.333 -28.666 -23.666 -45.999 -30.999l89 -223h-91l-84 212v0h-84v-212h-75zM99 1166c0 20 -7 37 -21 51s-31 21 -51 21h-112v0v-72v-72
h112c20 0 37 7 51 21s21 31 21 51z" />
    <glyph glyph-name="glyph130" 
d="M505 674v381v0l-155 -32v156l309 63v0v0v-568h188v-135h-264h-265v135h187z" />
    <glyph glyph-name="glyph131" 
d="M565 663h-291v61v62l263 444h83h83v-448v0h70v-119h-70v0v-124h-69h-69v124v0zM565 782v254v0v0l-148 -250l-2 -4v0h150z" />
    <glyph glyph-name="glyph133" 
d="M505 674v381v0l-155 -32v156l309 63v0v0v-568h188v-135h-264h-265v135h187z" />
    <glyph glyph-name="glyph134" 
d="M775 1023c0 -37.333 -11.3311 -75 -33.998 -113s-56.667 -76.333 -102 -115l-113 -97v0h249v0v-79v-80v0h-493v71v72l262 224c26 22 45.333 42.667 58 62s19 37.666 19 54.999c0 18.667 -8.33301 34.334 -25 47.001s-37.334 19 -62.001 19
c-34 0 -59.833 -7.33301 -77.5 -22s-23.834 -34 -18.501 -58l2 -23v0h-134v154v0c28.667 36 61.5 62 98.5 78s82.167 24 135.5 24c68.667 0 125 -20.667 169 -62c44 -40.667 66 -93 66 -157z" />
    <glyph glyph-name="glyph136" 
d="M585 1041c0 15.333 -5.00293 27.1699 -15.0029 35.5029s-24 12.5 -42 12.5c-21.333 0 -46 -5.66699 -74 -17s-54 -26.333 -78 -45l-88 129c30.667 25.333 67.834 46 111.501 62s84.834 24 123.501 24c60.667 0 111.834 -18.5 153.501 -55.5s62.5 -82.5 62.5 -136.5
c0.666992 -46.667 -14 -87 -44 -121v0l6 -6c48.667 -44 73 -98.333 73 -163c0 -65.333 -24.333 -120.5 -73 -165.5s-108 -67.5 -178 -67.5c-28.667 0 -69.5 7.66699 -122.5 23s-95.5 31.666 -127.5 48.999l66 142c18 -14 45.5 -27.667 82.5 -41s65.833 -20 86.5 -20
c35.333 0 62.833 6.83301 82.5 20.5s29.5 32.5 29.5 56.5c0 21.333 -6.33301 38.666 -19 51.999c-9.33301 9.33301 -28.833 16 -58.5 20s-61.167 4.33301 -94.5 1v163v0h56c22.667 0 42 4.66699 58 14c15.333 9.33301 23 20.666 23 33.999z" />
    <glyph glyph-name="glyph137" 
d="M565 663h-291v61v62l263 444h83h83v-448v0h70v-119h-70v0v-124h-69h-69v124v0zM565 782v254v0v0l-148 -250l-2 -4v0h150z" />
    <glyph glyph-name="glyph140" horiz-adv-x="0" 
d="M334 0l-630 163l75 220l598 -258z" />
    <glyph glyph-name="glyph142" horiz-adv-x="0" 
d="M-265 124l587 256l75 -221l-620 -159z" />
    <glyph glyph-name="glyph144" horiz-adv-x="0" 
d="M112 378l304 -290l-138 -88l-278 219v0l-278 -219l-138 88l304 290h112h112z" />
    <glyph glyph-name="glyph146" horiz-adv-x="0" 
d="M-436 41c28.667 92.667 67.335 164.167 116.002 214.5s103.667 75.5 165 75.5c40 0 76.833 -7.33301 110.5 -22s68.834 -38.667 105.501 -72c18.667 -16.667 36.5 -29.667 53.5 -39s31.167 -14 42.5 -14c18.667 0 36.167 14.667 52.5 44s27.5 66 33.5 110l193 -56
c-23.333 -96 -59.333 -170 -108 -222s-106.334 -78 -173.001 -78c-39.333 0 -77.333 7.83301 -114 23.5s-76.667 41.5 -120 77.5c-16.667 14 -31.334 25 -44.001 33s-21.667 12 -27 12c-15.333 0 -30.833 -13.833 -46.5 -41.5s-27.834 -62.5 -36.501 -104.5z" />
    <glyph glyph-name="glyph148" horiz-adv-x="0" 
d="M-287 348h254v-305h-254v305zM33 348h254v-305h-254v305z" />
    <glyph glyph-name="glyph150" horiz-adv-x="0" 
d="M0 -8c-56.667 0 -104.667 19.667 -144 59s-59 87.333 -59 144c0 57.333 19.667 105.666 59 144.999s87.333 59 144 59c57.333 0 105.666 -19.667 144.999 -59s59 -87.666 59 -144.999c0 -56.667 -19.667 -104.667 -59 -144s-87.666 -59 -144.999 -59v0zM0 115
c22.667 0 41.834 7.66699 57.501 23s23.5 34.333 23.5 57s-7.83301 41.834 -23.5 57.501s-34.834 23.5 -57.501 23.5s-41.667 -7.83301 -57 -23.5s-23 -34.834 -23 -57.501s7.66699 -41.667 23 -57s34.333 -23 57 -23v0z" />
    <glyph glyph-name="glyph153" horiz-adv-x="0" 
d="M72 0l-0.999023 -48v0c43.333 -5.33301 76.666 -19.333 99.999 -42c28.667 -28 43 -70.333 43 -127c0 -61.333 -17.5 -111.333 -52.5 -150s-79.833 -58 -134.5 -58c-30.667 0 -58 4.33301 -82 13s-50 23.667 -78 45l57 94c13.333 -9.33301 28.666 -16.833 45.999 -22.5
s33.333 -8.5 48 -8.5c18.667 0 32.167 5.83301 40.5 17.5s12.5 30.167 12.5 55.5c0 20 -4.83301 34.833 -14.5 44.5s-24.5 14.5 -44.5 14.5c-12 0 -25.667 -2 -41 -6s-28.666 -9 -39.999 -15v0l18 193h123z" />
    <glyph glyph-name="glyph179" horiz-adv-x="0" 
d="M334 0l-630 163l75 220l598 -258z" />
    <glyph glyph-name="glyph181" horiz-adv-x="0" 
d="M-265 124l587 256l75 -221l-620 -159z" />
    <glyph glyph-name="glyph183" horiz-adv-x="0" 
d="M112 378l304 -290l-138 -88l-278 219v0l-278 -219l-138 88l304 290h112h112z" />
    <glyph glyph-name="glyph185" horiz-adv-x="0" 
d="M-437 61c29.333 96 67.8301 167.83 115.497 215.497s104.834 71.5 171.501 71.5c38.667 0 75.167 -7.66699 109.5 -23s70.833 -40 109.5 -74c16.667 -14.667 32.667 -26.167 48 -34.5s28.333 -12.5 39 -12.5c18.667 0 36.334 14.333 53.001 43s28.334 64.667 35.001 108
l193 -56c-25.333 -99.333 -61.833 -173.666 -109.5 -222.999s-106.834 -74 -177.501 -74c-41.333 0 -79.166 7.33301 -113.499 22s-69.5 38.334 -105.5 71.001c-20 18 -37.167 32 -51.5 42s-24.5 15 -30.5 15c-16 0 -31.833 -14.167 -47.5 -42.5
s-27.5 -64.166 -35.5 -107.499z" />
    <glyph glyph-name="glyph187" horiz-adv-x="0" 
d="M-288 348h254v-305h-254v305zM33 348h254v-305h-254v305z" />
    <glyph glyph-name="glyph189" horiz-adv-x="0" 
d="M0 31c-59.333 0 -109.333 20.333 -150 61s-61 90.667 -61 150s20.333 109.5 61 150.5s90.667 61.5 150 61.5s109.5 -20.5 150.5 -61.5s61.5 -91.167 61.5 -150.5s-20.5 -109.333 -61.5 -150s-91.167 -61 -150.5 -61v0zM0 154c24.667 0 45.667 8.5 63 25.5
s26 37.833 26 62.5s-8.66699 45.667 -26 63s-38.333 26 -63 26s-45.5 -8.66699 -62.5 -26s-25.5 -38.333 -25.5 -63s8.5 -45.5 25.5 -62.5s37.833 -25.5 62.5 -25.5v0z" />
    <glyph glyph-name="glyph192" horiz-adv-x="0" 
d="M62 0l-0.999023 -48v0c42.667 -5.33301 75.667 -19.333 99 -42c28.667 -28 43 -70.333 43 -127c0 -61.333 -17.333 -111.333 -52 -150s-79.334 -58 -134.001 -58c-30 0 -57 4.33301 -81 13s-50 23.667 -78 45l57 94c12.667 -9.33301 27.667 -16.833 45 -22.5
s33.333 -8.5 48 -8.5c18 0 31.167 5.83301 39.5 17.5s12.5 30.167 12.5 55.5c0 20 -4.83301 34.833 -14.5 44.5s-24.167 14.5 -43.5 14.5c-12 0 -25.333 -2 -40 -6s-28 -9 -40 -15v0l17 193h123z" />
    <glyph glyph-name="glyph219" horiz-adv-x="0" 
d="M-430 193h860v-217h-860v217z" />
    <glyph glyph-name="glyph221" horiz-adv-x="0" 
d="M-430 221h860v-217h-860v217z" />
    <glyph glyph-name="glyph223" horiz-adv-x="0" 
d="M0 0c-114 0 -209.333 28.833 -286 86.5s-128.667 139.5 -156 245.5h222c15.333 -46 42.333 -82 81 -108s85 -39 139 -39s100.333 13 139 39s65.667 62 81 108h222c-27.333 -106 -79.333 -187.833 -156 -245.5s-172 -86.5 -286 -86.5z" />
    <glyph glyph-name="glyph225" horiz-adv-x="0" 
d="M0 0c-114 0 -209.333 28.833 -286 86.5s-128.667 139.5 -156 245.5h222c15.333 -46 42.333 -82 81 -108s85 -39 139 -39s100.333 13 139 39s65.667 62 81 108h222c-27.333 -106 -79.333 -187.833 -156 -245.5s-172 -86.5 -286 -86.5z" />
    <glyph glyph-name="glyph227" horiz-adv-x="0" 
d="M-229 -168c0 44.667 19.8311 85.001 59.498 121.001s96.167 65.333 169.5 88h171c-70 -26.667 -120.667 -53.334 -152 -80.001s-47 -57 -47 -91c0 -20 6 -36.833 18 -50.5s26.667 -20.5 44 -20.5c14.667 0 33.167 6.83301 55.5 20.5s45.833 32.5 70.5 56.5l-25 -147
c-23.333 -20.667 -51.666 -37.167 -84.999 -49.5s-65.666 -18.5 -96.999 -18.5c-53.333 0 -97 16 -131 48s-51 73 -51 123z" />
    <glyph glyph-name="glyph229" horiz-adv-x="0" 
d="M-205 -181c0 47.333 17.834 90.501 53.501 129.501s86.167 70.833 151.5 95.5h219c-78.667 -34 -137.5 -66.333 -176.5 -97s-58.5 -60.334 -58.5 -89.001c0 -19.333 5.5 -34.166 16.5 -44.499s26.5 -15.5 46.5 -15.5c18 0 40.667 7 68 21s56.333 33.667 87 59l-28 -161
c-24 -24.667 -53.333 -44.5 -88 -59.5s-68.334 -22.5 -101.001 -22.5c-53.333 0 -98.333 18 -135 54c-36.667 35.333 -55 78.666 -55 129.999z" />
    <glyph glyph-name="glyph233" horiz-adv-x="0" 
d="M-112 0l-304 290l138 88l278 -219v0l278 219l138 -88l-304 -290h-112h-112z" />
    <glyph glyph-name="glyph235" horiz-adv-x="0" 
d="M-112 0l-304 290l138 88l278 -219v0l278 219l138 -88l-304 -290h-112h-112z" />
    <glyph glyph-name="glyph238" horiz-adv-x="0" 
d="M-271 -23c-130 0 -240.001 47.333 -330.001 142s-135 210.667 -135 348c0 134.667 45 248.5 135 341.5s200 139.5 330 139.5c104 0 194.333 -29.667 271 -89v0v228h-258v189h210h211h55v-1087h165v-189h-191h-192v0v57v0c-75.333 -53.333 -165.666 -80 -270.999 -80z
M-258.001 731c-76 0 -138.001 -24.833 -186.001 -74.5s-72 -113.5 -72 -191.5c0 -79.333 24 -144.333 72 -195s109.667 -76 185 -76c76 0 138.167 25.167 186.5 75.5s72.5 114.833 72.5 193.5c0 82 -23.167 147.167 -69.5 195.5s-109.166 72.5 -188.499 72.5z" />
    <glyph glyph-name="glyph239" horiz-adv-x="0" 
d="M-11 241l134 535h265l-204 -535h-195z" />
    <glyph glyph-name="glyph245" horiz-adv-x="0" 
d="M-126 348h252v-306h-252v306z" />
    <glyph glyph-name="glyph247" horiz-adv-x="0" 
d="M-126 348h252v-306h-252v306z" />
    <glyph glyph-name="glyph255" horiz-adv-x="0" 
d="M-11 0l163 500h239l-226 -500h-176z" />
    <glyph glyph-name="glyph257" horiz-adv-x="0" 
d="M239 500l-134 -500h-265l204 500h195z" />
    <glyph glyph-name="glyph282" horiz-adv-x="0" 
d="M-304 51l340 398l166 -84l-407 -365zM58 51l340 398l166 -84l-407 -365z" />
    <glyph glyph-name="glyph284" horiz-adv-x="0" 
d="M-304 51l340 398l166 -84l-407 -365zM58 51l340 398l166 -84l-407 -365z" />
    <glyph glyph-name="glyph300" horiz-adv-x="0" 
d="M72 0l-0.999023 -48v0c43.333 -5.33301 76.666 -19.333 99.999 -42c28.667 -28 43 -70.333 43 -127c0 -61.333 -17.5 -111.333 -52.5 -150s-79.833 -58 -134.5 -58c-30.667 0 -58 4.33301 -82 13s-50 23.667 -78 45l57 94c13.333 -9.33301 28.666 -16.833 45.999 -22.5
s33.333 -8.5 48 -8.5c18.667 0 32.167 5.83301 40.5 17.5s12.5 30.167 12.5 55.5c0 20 -4.83301 34.833 -14.5 44.5s-24.5 14.5 -44.5 14.5c-12 0 -25.667 -2 -41 -6s-28.666 -9 -39.999 -15v0l18 193h123z" />
    <glyph glyph-name="glyph302" horiz-adv-x="0" 
d="M62 0l-0.999023 -48v0c42.667 -5.33301 75.667 -19.333 99 -42c28.667 -28 43 -70.333 43 -127c0 -61.333 -17.333 -111.333 -52 -150s-79.334 -58 -134.001 -58c-30 0 -57 4.33301 -81 13s-50 23.667 -78 45l57 94c12.667 -9.33301 27.667 -16.833 45 -22.5
s33.333 -8.5 48 -8.5c18 0 31.167 5.83301 39.5 17.5s12.5 30.167 12.5 55.5c0 20 -4.83301 34.833 -14.5 44.5s-24.167 14.5 -43.5 14.5c-12 0 -25.333 -2 -40 -6s-28 -9 -40 -15v0l17 193h123z" />
    <glyph glyph-name="glyph350" horiz-adv-x="0" 
d="M0 1388h393v-89h-152v-518h-89v518h-152v89z" />
    <glyph glyph-name="glyph351" horiz-adv-x="0" 
d="M0 781v607h160l112 -486l112 486h160v-607h-89v559l-129 -559h-108l-129 559v-559h-89z" />
  </font>
</defs>
</svg>
